<svg width="141" height="68" viewBox="0 0 141 68" fill="none" xmlns="http://www.w3.org/2000/svg">
<g clip-path="url(#clip0_920_6784)">
<path d="M10.054 49.7292C9.58239 49.7292 9.13826 49.778 8.75975 49.5949C8.37972 49.4117 8.03632 49.169 7.78907 48.8683C7.5403 48.5676 7.29763 48.2303 7.16637 47.864C7.03512 47.4977 7.13432 47.0825 7.13432 46.6887C7.13432 45.9301 7.36326 45.2784 7.83333 44.6495C8.08821 44.3091 8.34462 43.9474 8.76891 43.7917C9.12757 43.6589 9.57323 43.6849 10.054 43.6849C10.4661 43.6849 10.5943 43.9825 10.7789 43.6131C11.1468 42.882 11.0445 42.8439 11.0445 42.0257C11.0445 41.2076 10.7026 41.2076 10.7026 40.388C10.7026 39.5683 10.7835 39.5699 10.7835 38.7502C10.7835 37.9306 11.0125 37.9321 11.0125 37.114C11.0125 36.2959 10.7362 36.2959 10.7362 35.4777C10.7362 34.6596 10.8888 34.6596 10.8888 33.84C10.8888 33.0203 10.7286 33.0203 10.7286 32.2022C10.7286 31.3841 10.8537 31.3841 10.8537 30.5645C10.8537 29.7448 11.0125 29.7448 11.0125 28.9252C11.0125 28.1055 10.7484 28.1055 10.7484 27.2859C10.7484 26.7456 11.0201 26.2922 11.1636 25.8816C11.333 25.3978 11.5115 24.9536 11.8794 24.6484C12.2441 24.3461 12.7218 24.2378 13.2209 24.0974C13.6544 23.9768 14.1137 23.8379 14.6495 23.8379C15.1852 23.8379 15.6323 23.9737 16.0612 24.1004C16.5481 24.2439 16.9205 24.4789 17.2822 24.7842C17.647 25.0925 17.9018 25.4268 18.0712 25.9015C18.2178 26.3121 18.5352 26.7517 18.5352 27.2859C18.5352 28.104 18.4024 28.104 18.4024 28.9236C18.4024 29.7433 18.5184 29.7418 18.5184 30.5614C18.5184 31.3811 18.4131 31.3795 18.4131 32.1992C18.4131 33.0188 18.5245 33.0173 18.5245 33.8354C18.5245 34.6535 18.3719 34.6535 18.3719 35.4716C18.3719 36.2898 18.3002 36.2898 18.3002 37.1094C18.3002 37.929 18.5642 37.9291 18.5642 38.7472C18.5642 39.5653 18.5047 39.5653 18.5047 40.3849C18.5047 41.2046 18.2864 41.2046 18.2864 42.0242C18.2864 42.8439 17.8057 43.0774 18.349 43.6895C18.8313 44.2328 19.106 43.6544 19.8325 43.6544C20.559 43.6544 20.7711 44.1779 21.2534 43.6345C21.7968 43.0224 21.2061 42.8454 21.2061 42.0257C21.2061 41.2061 21.2794 41.2076 21.2794 40.388C21.2794 39.5683 21.2412 39.5699 21.2412 38.7502C21.2412 37.9306 21.2 37.9321 21.2 37.114C21.2 36.2959 21.432 36.2959 21.432 35.4777C21.432 34.6596 21.2092 34.6596 21.2092 33.84C21.2092 33.0203 21.2458 33.0203 21.2458 32.2022C21.2458 31.3841 21.4244 31.3841 21.4244 30.5645C21.4244 29.7448 21.139 29.7448 21.139 28.9252C21.139 28.1055 21.3984 28.1055 21.3984 27.2859C21.3984 26.7471 21.2122 26.2235 21.3526 25.813C21.519 25.3276 22.0287 25.1017 22.3905 24.7964C22.7491 24.4942 23.12 24.3141 23.6191 24.1737C24.0479 24.0531 24.4829 23.728 25.0171 23.728C25.5513 23.728 26.0107 23.9524 26.4441 24.0806C26.9325 24.224 27.4117 24.3492 27.7796 24.6545C28.1504 24.9628 28.5625 25.3291 28.735 25.8023C28.8846 26.2129 28.8998 26.7501 28.8998 27.2859C28.8998 28.104 28.8525 28.104 28.8525 28.9236C28.8525 29.7433 28.7594 29.7418 28.7594 30.5614C28.7594 31.3811 28.8586 31.3795 28.8586 32.1992C28.8586 33.0188 28.6984 33.0173 28.6984 33.8354C28.6984 34.6535 28.8418 34.6535 28.8418 35.4716C28.8418 36.2898 28.9258 36.2898 28.9258 37.1094C28.9258 37.929 28.796 37.9291 28.796 38.7472C28.796 39.5653 28.8098 39.5653 28.8098 40.3849C28.8098 41.2046 28.9471 41.2046 28.9471 42.0242C28.9471 42.8439 28.2939 43.0087 28.7502 43.6879C29.057 44.1443 29.3378 43.549 29.8873 43.549C30.3665 43.549 30.7588 43.8039 31.1189 43.9352C31.5432 44.0909 31.818 44.3336 32.0728 44.6739C32.5444 45.3028 32.9657 45.9271 32.9657 46.6857C32.9657 47.0779 32.7169 47.4259 32.5856 47.7923C32.4544 48.1586 32.3109 48.4883 32.0622 48.789C31.8134 49.0896 31.5722 49.4285 31.1922 49.6132C30.8122 49.7963 30.3574 49.8757 29.8873 49.8757C29.1242 49.8757 29.1242 49.6864 28.3626 49.6864C27.601 49.6864 27.5995 49.8849 26.8379 49.8849C26.0763 49.8849 26.0748 49.7032 25.3132 49.7032C24.5516 49.7032 24.5501 49.8269 23.7885 49.8269C23.0269 49.8269 23.0254 49.9612 22.2638 49.9612C21.5022 49.9612 21.5007 49.8971 20.7391 49.8971C19.9775 49.8971 19.976 49.7536 19.2144 49.7536C18.4528 49.7536 18.4513 49.7429 17.6897 49.7429C16.9281 49.7429 16.9266 49.7185 16.165 49.7185C15.4034 49.7185 15.4019 49.978 14.6388 49.978C13.8757 49.978 13.8757 49.978 13.1141 49.978C12.3525 49.978 12.3525 49.8238 11.5894 49.7902C10.8263 49.7567 10.8247 49.7246 10.0616 49.7246L10.054 49.7292ZM10.5256 22.2398C10.054 22.2398 9.60986 22.2886 9.23136 22.1055C8.85133 21.9223 8.50335 21.6827 8.24084 21.3805C7.97833 21.0798 7.72802 20.7333 7.59677 20.3532C7.46551 19.9747 7.56624 19.5519 7.56624 19.1596C7.56624 18.7674 7.62882 18.4026 7.74634 18.0225C7.86386 17.644 7.92033 17.2288 8.1691 16.9144C8.41788 16.6 8.79943 16.4107 9.17946 16.2138C9.55797 16.0169 10.0006 15.7895 10.5241 15.7895C11.2887 15.7895 11.2887 16.0673 12.0518 16.0673C12.8149 16.0673 12.8165 15.7254 13.5796 15.7254C14.3427 15.7254 14.3442 15.8063 15.1073 15.8063C15.8704 15.8063 15.872 16.0352 16.6351 16.0352C17.3982 16.0352 17.3997 15.759 18.1628 15.759C18.9259 15.759 18.9259 15.9116 19.6906 15.9116C20.4552 15.9116 20.4537 15.7513 21.2183 15.7513C21.983 15.7513 21.983 15.8765 22.7461 15.8765C23.5092 15.8765 23.5107 16.0352 24.2754 16.0352C25.04 16.0352 25.04 15.7712 25.8031 15.7712C26.5662 15.7712 26.5677 15.9742 27.3324 15.9742C28.097 15.9742 28.097 15.8689 28.8617 15.8689C29.3852 15.8689 29.7957 16.0795 30.1757 16.2749C30.5542 16.4718 30.9037 16.6519 31.1525 16.9663C31.4013 17.2807 31.5112 17.647 31.6287 18.0271C31.7462 18.4072 31.7676 18.7689 31.7676 19.1612C31.7676 19.5534 31.731 19.9091 31.5997 20.2891C31.4684 20.6692 31.4791 21.1424 31.2166 21.4431C30.9541 21.7437 30.5268 21.9055 30.1467 22.0887C29.7667 22.2719 29.3317 22.481 28.8601 22.481C28.0955 22.481 28.0955 22.3756 27.3324 22.3756C26.5693 22.3756 26.5677 22.4871 25.8046 22.4871C25.0415 22.4871 25.04 22.3344 24.2769 22.3344C23.5138 22.3344 23.5122 22.2627 22.7491 22.2627C21.986 22.2627 21.9845 22.5268 21.2214 22.5268C20.4583 22.5268 20.4583 22.4672 19.6936 22.4672C18.929 22.4672 18.9305 22.249 18.1659 22.249C17.4012 22.249 17.4012 22.3009 16.6381 22.3009C15.875 22.3009 15.8735 22.3497 15.1088 22.3497C14.3442 22.3497 14.3442 22.3848 13.5811 22.3848C12.818 22.3848 12.8119 22.455 12.0488 22.4199C11.2857 22.3848 11.2872 22.2383 10.5225 22.2383L10.5256 22.2398ZM34.266 18.3354C34.266 17.7463 34.2111 17.209 34.3835 16.7541C34.5789 16.2398 34.8857 15.7803 35.3039 15.44C35.6976 15.1194 36.1234 14.8248 36.5767 14.6646C37.03 14.5043 37.5428 14.5898 38.0526 14.5898C38.5623 14.5898 39.0095 14.6783 39.4811 14.8477C39.9527 15.0187 40.4381 15.1362 40.7922 15.4506C41.1462 15.7651 41.3645 16.223 41.5873 16.6931C41.8102 17.1647 42.0513 17.705 42.0513 18.3339C42.0513 19.1612 41.7735 19.1612 41.7735 19.9884C41.7735 20.8157 42.1154 20.8157 42.1154 21.6445C42.1154 22.4733 42.0345 22.4733 42.0345 23.3006C42.0345 24.1279 41.8056 24.1279 41.8056 24.9567C41.8056 25.7855 42.0818 25.7855 42.0818 26.6128C42.0818 27.44 41.421 27.6232 41.9322 28.2749C42.3321 28.7847 42.5885 28.1177 43.2356 28.1177C43.837 28.1177 44.3467 28.3513 44.739 28.5604C45.1312 28.7695 45.325 29.1389 45.5616 29.4655C45.7966 29.7937 46.2026 30.0486 46.3079 30.4546C46.4117 30.8606 46.2652 31.2925 46.2652 31.6848C46.2652 32.0771 46.3171 32.4846 46.2133 32.8906C46.108 33.2966 45.8348 33.6034 45.5982 33.93C45.3632 34.2582 45.1114 34.5711 44.7054 34.7802C44.2994 34.9893 43.8126 35.0183 43.2372 35.0183C42.5885 35.0183 42.2528 34.5207 41.8483 35.0275C41.3416 35.6655 41.8468 35.9158 41.8468 36.7309C41.8468 37.5459 42.0971 37.5459 42.0971 38.361C42.0971 39.1761 41.9643 39.1761 41.9643 39.9911C41.9643 40.8062 42.0803 40.8062 42.0803 41.6197C42.0803 42.4333 41.975 42.4348 41.975 43.2483C41.975 44.0619 42.0864 44.0634 42.0864 44.8785C42.0864 45.6935 41.9338 45.6935 41.9338 46.5086C41.9338 47.3237 41.862 47.3237 41.862 48.1387C41.862 48.9538 42.1261 48.9538 42.1261 49.7689C42.1261 50.5839 42.5946 50.8953 42.0315 51.486C41.4683 52.0767 41.1646 51.3074 40.3862 51.3074C39.6078 51.3074 39.6093 51.3593 38.831 51.3593C38.0526 51.3593 38.0541 51.4082 37.2757 51.4082C36.4974 51.4082 36.4974 51.4433 35.7205 51.4433C34.9437 51.4433 34.6552 52.008 34.1088 51.4555C33.5624 50.9029 34.1592 50.6129 34.1592 49.8253C34.1592 49.0378 34.121 49.0378 34.121 48.2517C34.121 47.4656 34.0798 47.4641 34.0798 46.678C34.0798 45.892 34.3118 45.8904 34.3118 45.1044C34.3118 44.3183 34.089 44.3168 34.089 43.5307C34.089 42.7447 34.1256 42.7431 34.1256 41.9571C34.1256 41.171 34.3042 41.1695 34.3042 40.3834C34.3042 39.5973 34.0188 39.5958 34.0188 38.8082C34.0188 38.0206 34.2782 38.0206 34.2782 37.2346C34.2782 36.4485 34.0142 36.447 34.0142 35.6594C34.0142 34.8718 34.3255 34.8718 34.3255 34.0842C34.3255 33.2966 34.3347 33.2966 34.3347 32.509C34.3347 31.7214 34.063 31.7214 34.063 30.9338C34.063 30.1462 34.2263 30.1462 34.2263 29.3586C34.2263 28.5711 34.1134 28.5711 34.1134 27.785C34.1134 26.9989 33.9806 26.9974 33.9806 26.2113C33.9806 25.4253 34.0523 25.4237 34.0523 24.6362C34.0523 23.8486 34.0997 23.8486 34.0997 23.061C34.0997 22.2734 34.1928 22.2734 34.1928 21.4858C34.1928 20.6982 34.06 20.6936 34.0936 19.9076C34.1271 19.1215 34.266 19.123 34.266 18.3354Z" fill="#7260F8"/>
<path d="M53.6098 25.7978C53.6098 25.259 53.4602 24.7263 53.5136 24.2272C53.5701 23.693 53.8265 23.2031 53.944 22.7146C54.0692 22.1957 54.1394 21.6706 54.3332 21.202C54.5118 20.7731 54.6369 20.3137 54.8598 19.9291C55.0826 19.5444 55.6107 19.3399 55.8915 18.9888C56.1723 18.6378 56.357 18.2028 56.6912 17.896C57.0255 17.5877 57.3704 17.2931 57.7489 17.0366C58.1274 16.7802 58.4769 16.478 58.8921 16.2765C59.3072 16.075 59.759 16.0064 60.2 15.8568C60.6747 15.6965 61.186 15.669 61.6957 15.5653C62.2055 15.4615 62.6603 15.2325 63.1807 15.1837C63.7012 15.1348 64.1881 15.0493 64.7115 15.0493C65.235 15.0493 65.7524 15.0921 66.2469 15.1379C66.7674 15.1867 67.2573 15.3729 67.7457 15.4737C68.2341 15.5744 68.7606 15.6599 69.2353 15.8186C69.6764 15.9667 70.0991 16.1422 70.502 16.3361C70.905 16.5299 71.343 16.7237 71.7184 16.9725C72.0939 17.2213 72.3183 17.6777 72.6571 17.9799C72.9959 18.2837 73.5057 18.4226 73.7926 18.7782C74.0795 19.1338 74.2962 19.5444 74.5298 19.9443C74.7633 20.3442 74.9373 20.7548 75.1143 21.1852C75.3081 21.6569 75.4333 22.1682 75.5584 22.6887C75.6775 23.1817 75.8209 23.69 75.8789 24.2257C75.9324 24.7279 75.9095 25.2545 75.9095 25.7948C75.9095 26.5839 75.8393 26.5839 75.8393 27.3745C75.8393 28.1652 75.9446 28.1637 75.9446 28.9543C75.9446 29.7449 75.8683 29.7434 75.8683 30.5325C75.8683 31.3217 75.8179 31.3217 75.8179 32.1108C75.8179 32.8999 76.0377 32.8999 76.0377 33.6905C76.0377 34.4812 75.9018 34.4812 75.9018 35.2703C75.9018 36.0594 76.0071 36.0594 76.0071 36.8501C76.0071 37.6407 75.8957 37.6407 75.8957 38.4298C75.8957 39.2189 76.0789 39.2205 76.0789 40.0096C76.0789 40.5499 75.8347 41.0658 75.7797 41.568C75.7217 42.1037 75.8393 42.6624 75.7202 43.1538C75.5951 43.6743 75.1906 44.0986 74.9968 44.5703C74.8197 45.0007 74.6717 45.4235 74.4489 45.8081C74.226 46.1928 73.8506 46.4874 73.5713 46.8369C73.292 47.1864 73.0875 47.6031 72.7517 47.9084C72.4159 48.2137 72.0756 48.5098 71.694 48.7647C71.3125 49.0196 70.8668 49.1142 70.4486 49.3141C70.0304 49.5141 69.6489 49.6881 69.2048 49.8362C68.7301 49.9949 68.3165 50.4162 67.8113 50.52C67.3061 50.6238 66.7918 50.5642 66.2759 50.6131C65.7601 50.6619 65.2717 50.4726 64.7528 50.4726C64.2338 50.4726 63.7271 50.5474 63.2326 50.5016C62.7122 50.4528 62.2101 50.4162 61.7217 50.317C61.2333 50.2177 60.7418 50.0315 60.2687 49.8728C59.8276 49.7247 59.4125 49.5691 59.0096 49.3752C58.6067 49.1814 58.1778 49.0013 57.8023 48.7509C57.4269 48.5006 57.0407 48.2488 56.7019 47.9466C56.3631 47.6428 56.0731 47.2933 55.7847 46.9376C55.4962 46.582 55.1681 46.263 54.9346 45.8631C54.701 45.4632 54.5042 45.0633 54.3256 44.6313C54.1318 44.1597 54.0524 43.6331 53.9257 43.1126C53.8067 42.6196 53.6174 42.1205 53.5594 41.5832C53.506 41.0811 53.4984 40.5514 53.4984 40.0111C53.4984 39.222 53.4205 39.222 53.4205 38.4313C53.4205 37.6407 53.6983 37.6422 53.6983 36.8516C53.6983 36.0609 53.4587 36.0625 53.4587 35.2734C53.4587 34.4842 53.3809 34.4842 53.3809 33.6951C53.3809 32.906 53.4389 32.906 53.4389 32.1154C53.4389 31.3247 53.6251 31.3247 53.6251 30.5356C53.6251 29.7465 53.4633 29.7465 53.4633 28.9558C53.4633 28.1652 53.561 28.1652 53.5777 27.3761C53.5945 26.587 53.6083 26.5854 53.6083 25.7948L53.6098 25.7978ZM61.2882 40.1714C61.2882 40.7728 61.5248 41.2719 61.6545 41.7374C61.8132 42.3067 61.9155 42.8364 62.2681 43.2042C62.5931 43.5431 63.0098 43.7155 63.4188 43.8819C63.8279 44.0483 64.2338 44.03 64.7131 44.03C65.1923 44.03 65.699 44.2574 66.1019 44.0941C66.5049 43.9308 66.8269 43.5232 67.1581 43.1859C67.5168 42.8196 67.764 42.3418 67.9258 41.774C68.0586 41.307 68.0372 40.7743 68.0372 40.1714C68.0372 39.3639 68.1425 39.3639 68.1425 38.558C68.1425 37.7521 68.2478 37.7506 68.2478 36.9432C68.2478 36.1357 68.086 36.1357 68.086 35.3298C68.086 34.5239 68.0219 34.5224 68.0219 33.7165C68.0219 32.9106 68.0418 32.9091 68.0418 32.1016C68.0418 31.2942 68.1562 31.2942 68.1562 30.4867C68.1562 29.6793 68.1043 29.6793 68.1043 28.8719C68.1043 28.0644 68.1074 28.0645 68.1074 27.257C68.1074 26.4496 68.0616 26.4496 68.0616 25.6421C68.0616 25.0377 68.2127 24.4577 68.0784 23.9861C67.9166 23.4183 67.4206 23.0718 67.0635 22.6994C66.7338 22.3559 66.4255 22.0812 66.0165 21.9179C65.6074 21.7546 65.1954 21.6645 64.7146 21.6767C64.2369 21.6905 63.7973 21.7424 63.399 21.9118C63.0007 22.0812 62.6649 22.3804 62.3398 22.7177C61.9888 23.0825 61.6988 23.5068 61.5401 24.0639C61.4088 24.5249 61.273 25.0499 61.273 25.6437C61.273 26.4511 61.3783 26.4511 61.3783 27.257C61.3783 28.0629 61.302 28.0644 61.302 28.8719C61.302 29.6793 61.2516 29.6793 61.2516 30.4852C61.2516 31.2911 61.4714 31.2927 61.4714 32.0986C61.4714 32.9045 61.3355 32.906 61.3355 33.7134C61.3355 34.5209 61.4409 34.5209 61.4409 35.3283C61.4409 36.1357 61.3294 36.1357 61.3294 36.9432C61.3294 37.7506 61.5278 37.7552 61.5126 38.5626C61.4973 39.37 61.2898 39.367 61.2898 40.1744L61.2882 40.1714ZM80.4164 51.3686C79.8609 50.813 80.2546 50.6176 80.2546 49.8331C80.2546 49.0486 80.4225 49.0486 80.4225 48.2625C80.4225 47.4764 80.3264 47.478 80.3264 46.6919C80.3264 45.9058 80.2348 45.9074 80.2348 45.1213C80.2348 44.3352 80.5553 44.3352 80.5553 43.5507C80.5553 42.7662 80.395 42.7662 80.395 41.9801C80.395 41.194 80.3782 41.194 80.3782 40.4095C80.3782 39.6249 80.2897 39.6234 80.2897 38.8389C80.2897 38.0543 80.395 38.0528 80.395 37.2683C80.395 36.4837 80.5003 36.4822 80.5003 35.6977C80.5003 34.9131 80.3386 34.9116 80.3386 34.1271C80.3386 33.3425 80.2745 33.341 80.2745 32.5565C80.2745 31.7719 80.2928 31.7704 80.2928 30.9859C80.2928 30.2013 80.4057 30.1998 80.4057 29.4153C80.4057 28.6307 80.3538 28.6292 80.3538 27.8447C80.3538 27.0601 80.3569 27.0586 80.3569 26.2741C80.3569 25.4895 80.3111 25.488 80.3111 24.7034C80.3111 23.9189 80.5339 23.9174 80.5339 23.1313C80.5339 22.3453 80.2623 22.3453 80.2623 21.5607C80.2623 20.7762 80.3157 20.7746 80.3157 19.9886C80.3157 19.2025 80.3386 19.2025 80.3386 18.4165C80.3386 17.8166 80.4637 17.2854 80.6347 16.823C80.83 16.2964 81.1017 15.8156 81.5199 15.4676C81.9152 15.1379 82.3776 14.9288 82.8385 14.7655C83.2994 14.6021 83.7848 14.593 84.3037 14.593C84.8226 14.593 85.3247 14.5716 85.7811 14.7334C86.2374 14.8952 86.6358 15.2096 87.0311 15.5378C87.4492 15.8858 87.6995 16.3269 87.8949 16.8535C88.0658 17.316 88.365 17.8181 88.365 18.418C88.365 19.2025 88.2307 19.2025 88.2307 19.9886C88.2307 20.7746 88.3345 20.7731 88.3345 21.5592C88.3345 22.3453 88.223 22.3437 88.223 23.1298C88.223 23.9159 88.4047 23.9143 88.4047 24.7004C88.4047 25.4865 88.1879 25.4865 88.1879 26.271C88.1879 27.0555 88.3955 27.0555 88.3955 27.8416C88.3955 28.6277 88.1422 28.6277 88.1422 29.4122C88.1422 30.1967 88.1956 30.1983 88.1956 30.9828C88.1956 31.7673 88.0506 31.7689 88.0506 32.5534C88.0506 33.338 88.1864 33.3395 88.1864 34.124C88.1864 34.9086 88.2124 34.9101 88.2124 35.6946C88.2124 36.4792 88.0765 36.4807 88.0765 37.2652C88.0765 38.0498 88.0964 38.0513 88.0964 38.8358C88.0964 39.6204 88.3955 39.6219 88.3955 40.4064C88.3955 41.191 88.2627 41.1925 88.2627 41.977C88.2627 42.7616 88.0521 42.7631 88.0521 43.5476C88.0521 44.3322 88.1498 44.3337 88.1498 45.1182C88.1498 45.9028 88.1864 45.9043 88.1864 46.6904C88.1864 47.4764 88.133 47.4764 88.133 48.261C88.133 49.0455 88.1452 49.047 88.1452 49.8331C88.1452 50.6192 88.7633 50.8252 88.2078 51.3808C87.6522 51.9364 87.4462 51.4068 86.6617 51.4068C85.8772 51.4068 85.8757 51.3762 85.0912 51.3762C84.3068 51.3762 84.3067 51.4678 83.5207 51.4678C82.7347 51.4678 82.7317 51.3121 81.9625 51.4678C81.1933 51.6235 80.9674 51.9257 80.4118 51.3701L80.4164 51.3686Z" fill="#7260F8"/>
<path d="M118.907 15.658C119.404 15.658 119.788 15.8213 120.128 15.9923C120.468 16.1632 120.717 16.3601 120.928 16.6348C121.137 16.9096 121.282 17.1828 121.373 17.5094C121.465 17.8376 121.752 18.152 121.752 18.4924C121.752 19.1213 121.457 19.7822 121.051 20.3576C120.645 20.9345 119.875 20.9819 118.907 20.9819C118.103 20.9819 118.103 21.1894 117.298 21.1894C116.494 21.1894 116.494 21.1467 115.69 21.1467C114.885 21.1467 114.885 21.0048 114.079 21.0048C113.274 21.0048 113.274 21.1055 112.469 21.1055C111.665 21.1055 111.665 21.078 110.859 21.078C110.053 21.078 110.053 20.9849 109.249 20.9849C108.445 20.9849 108.443 21.1818 107.639 21.1818C106.932 21.1818 106.439 21.4657 106.439 22.0671C106.439 22.5769 106.096 22.8913 106.519 23.1767C107.147 23.5995 107.337 23.0989 108.095 23.0989C108.854 23.0989 108.854 23.2271 109.611 23.2271C110.368 23.2271 110.369 23.1035 111.126 23.1035C111.883 23.1035 111.885 23.1096 112.643 23.1096C113.402 23.1096 113.402 22.9112 114.16 22.9112C114.919 22.9112 114.919 23.2439 115.677 23.2439C116.436 23.2439 116.436 23.0867 117.195 23.0867C117.953 23.0867 117.953 22.9264 118.712 22.9264C119.156 22.9264 119.449 23.3172 119.749 23.4866C120.05 23.6575 120.3 23.7888 120.497 24.0513C120.694 24.3139 120.755 24.5886 120.847 24.903C120.938 25.2175 120.996 25.4708 120.996 25.7593C120.996 26.0478 120.935 26.292 120.844 26.5927C120.752 26.8934 120.654 27.1376 120.459 27.3986C120.262 27.6611 120.096 27.8992 119.781 28.0549C119.467 28.2121 119.13 28.5052 118.712 28.5052C117.953 28.5052 117.953 28.3297 117.195 28.3297C116.436 28.3297 116.436 28.4899 115.679 28.4899C114.922 28.4899 114.92 28.406 114.163 28.406C113.406 28.406 113.405 28.4151 112.646 28.4151C111.888 28.4151 111.888 28.3174 111.129 28.3174C110.371 28.3174 110.371 28.3587 109.612 28.3587C108.854 28.3587 108.854 28.2976 108.095 28.2976C107.337 28.2976 107.141 27.8229 106.503 28.235C106.091 28.5021 106.628 28.841 106.628 29.3309C106.628 29.6973 106.57 30.0651 106.741 30.1948C106.911 30.3261 107.271 30.2177 107.637 30.2177C108.385 30.2177 108.385 30.404 109.133 30.404C109.881 30.404 109.881 30.1307 110.629 30.1307C111.377 30.1307 111.377 30.2528 112.124 30.2528C112.872 30.2528 112.872 30.1842 113.62 30.1842C114.368 30.1842 114.368 30.2712 115.116 30.2712C115.864 30.2712 115.864 30.2467 116.613 30.2467C117.362 30.2467 117.361 30.1094 118.109 30.1094C118.857 30.1094 118.858 30.4345 119.606 30.4345C120.354 30.4345 120.355 30.4513 121.103 30.4513C122.098 30.4513 122.811 30.5474 123.217 31.1091C123.623 31.6723 123.818 32.2768 123.818 32.9056C123.818 33.5864 123.699 34.2839 123.281 34.8609C122.861 35.4363 122.072 35.7309 121.105 35.7309C120.335 35.7309 120.335 35.6195 119.566 35.6195C118.797 35.6195 118.797 35.6637 118.028 35.6637C117.259 35.6637 117.259 35.6668 116.489 35.6668C115.72 35.6668 115.72 35.8179 114.951 35.8179C114.182 35.8179 114.182 35.708 113.413 35.708C112.643 35.708 112.643 35.5386 111.874 35.5386C111.105 35.5386 111.105 35.5309 110.336 35.5309C109.566 35.5309 109.566 35.682 108.797 35.682C108.028 35.682 108.028 35.8057 107.259 35.8057C106.49 35.8057 106.49 35.7446 105.719 35.7446C104.948 35.7446 104.95 35.5798 104.179 35.5798C103.706 35.5798 103.257 35.7828 102.86 35.7461C102.376 35.7004 101.955 35.5019 101.581 35.4027C100.901 35.2196 100.263 34.9937 99.8566 34.5754C99.4506 34.1572 99.1744 33.5375 99.005 32.8705C98.9119 32.5088 99.0446 32.0692 99.0034 31.6189C98.9683 31.2389 99.0172 30.8374 99.0172 30.3933C99.0172 29.6057 98.7898 29.6057 98.7898 28.8166C98.7898 28.0274 98.8417 28.0274 98.8417 27.2399C98.8417 26.4523 98.9683 26.4507 98.9683 25.6616C98.9683 24.8725 98.6875 24.8725 98.6875 24.0849C98.6875 23.2973 99.0202 23.2958 99.0202 22.5067C99.0202 21.7176 98.9882 21.7176 98.9882 20.9284C98.9882 20.4858 98.8325 20.0706 98.8691 19.6906C98.9119 19.2403 98.9943 18.8343 99.0874 18.4726C99.2568 17.8055 99.6048 17.3156 100.011 16.8958C100.417 16.4776 100.916 16.1632 101.598 15.9785C101.972 15.8778 102.384 15.6946 102.868 15.6504C103.266 15.6137 103.707 15.5786 104.18 15.5786C104.998 15.5786 104.998 15.6824 105.816 15.6824C106.635 15.6824 106.635 15.5603 107.453 15.5603C108.271 15.5603 108.271 15.5344 109.089 15.5344C109.907 15.5344 109.907 15.5664 110.725 15.5664C111.543 15.5664 111.543 15.661 112.361 15.661C113.179 15.661 113.179 15.5206 113.997 15.5206C114.815 15.5206 114.815 15.7297 115.633 15.7297C116.451 15.7297 116.451 15.5221 117.269 15.5191C118.087 15.516 118.089 15.6595 118.907 15.6595V15.658ZM108.069 51.527C107.43 51.527 106.841 51.4018 106.28 51.324C105.646 51.2354 105.076 51.1057 104.541 50.918C104.058 50.7485 103.625 50.5608 103.223 50.3288C102.787 50.0754 102.242 49.9716 101.902 49.6435C101.574 49.3275 101.323 48.9123 101.081 48.5384C100.838 48.1644 100.896 47.6485 100.739 47.2181C100.577 46.7739 100.263 46.3756 100.183 45.8917C100.108 45.4323 100.113 44.95 100.113 44.4524C100.113 43.9548 100.29 43.4969 100.365 43.0329C100.44 42.5689 100.461 42.0728 100.621 41.6241C100.777 41.1891 100.994 40.8105 101.233 40.4366C101.473 40.0626 101.815 39.7925 102.144 39.475C102.486 39.1468 102.743 38.7118 103.181 38.4554C103.582 38.2203 104.081 38.1608 104.563 37.9853C105.098 37.7914 105.649 37.6235 106.284 37.532C106.845 37.4511 107.431 37.3152 108.071 37.3152C108.878 37.3152 108.878 37.4419 109.684 37.4419C110.49 37.4419 110.491 37.3183 111.297 37.3183C112.103 37.3183 112.105 37.3244 112.91 37.3244C113.716 37.3244 113.718 37.1275 114.524 37.1275C115.329 37.1275 115.329 37.4602 116.137 37.4602C116.944 37.4602 116.943 37.3045 117.75 37.3045C118.557 37.3045 118.557 37.1443 119.363 37.1443C120.169 37.1443 120.171 37.4694 120.976 37.4694C121.782 37.4694 121.784 37.4053 122.59 37.4053C123.396 37.4053 123.397 37.474 124.204 37.474C125.012 37.474 125.012 37.4541 125.819 37.4541C126.45 37.4541 127.019 37.5136 127.576 37.593C128.2 37.6815 128.753 37.7869 129.285 37.9746C129.768 38.144 130.225 38.2631 130.627 38.4966C131.063 38.75 131.593 38.8706 131.933 39.1972C132.263 39.5147 132.426 39.9848 132.673 40.3648C132.921 40.7449 133.267 41.0822 133.429 41.5172C133.597 41.969 133.646 42.4819 133.728 42.9779C133.806 43.4465 133.855 43.9441 133.855 44.4524C133.855 44.9607 133.722 45.4018 133.65 45.8475C133.574 46.3252 133.496 46.7862 133.339 47.2135C133.182 47.6409 132.915 48.0469 132.663 48.4377C132.411 48.8284 132.066 49.123 131.729 49.4603C131.353 49.8358 131.042 50.2983 130.552 50.5654C130.1 50.8126 129.534 50.8264 128.986 50.9821C128.495 51.121 128.011 51.4216 127.443 51.4873C126.935 51.5453 126.388 51.3911 125.818 51.3911C125.01 51.3911 125.01 51.6628 124.204 51.6628C123.399 51.6628 123.397 51.5407 122.591 51.5407C121.785 51.5407 121.784 51.6094 120.978 51.6094C120.172 51.6094 120.171 51.5224 119.365 51.5224C118.559 51.5224 118.559 51.5468 117.752 51.5468C116.944 51.5468 116.946 51.6842 116.138 51.6842C115.331 51.6842 115.331 51.3606 114.525 51.3606C113.719 51.3606 113.718 51.3438 112.912 51.3438C112.106 51.3438 112.105 51.5346 111.299 51.5346C110.493 51.5346 110.491 51.5224 109.684 51.5239C108.877 51.5254 108.877 51.5254 108.069 51.5254V51.527ZM123.698 46.2107C124.508 46.2107 125.125 46.1008 125.427 45.7605C125.728 45.4201 125.896 44.9484 125.896 44.4509C125.896 43.9533 125.718 43.4999 125.416 43.1855C125.116 42.8711 124.51 42.9367 123.698 42.9367C122.947 42.9367 122.947 42.8635 122.197 42.8635C121.448 42.8635 121.447 42.5811 120.697 42.5811C119.948 42.5811 119.946 42.7887 119.197 42.7887C118.448 42.7887 118.446 42.7459 117.697 42.7459C116.947 42.7459 116.946 42.604 116.196 42.604C115.447 42.604 115.445 42.7047 114.695 42.7047C113.944 42.7047 113.944 42.6773 113.194 42.6773C112.445 42.6773 112.443 42.5841 111.692 42.5841C110.942 42.5841 110.942 42.7795 110.191 42.7795C109.379 42.7795 108.722 42.8223 108.422 43.1367C108.121 43.4511 107.964 43.9533 107.964 44.4509C107.964 44.9484 108.213 45.3743 108.515 45.7147C108.816 46.055 109.38 46.3557 110.192 46.3557C110.943 46.3557 110.943 46.2321 111.692 46.2321C112.442 46.2321 112.443 46.2382 113.193 46.2382C113.942 46.2382 113.944 46.0413 114.693 46.0413C115.442 46.0413 115.444 46.374 116.193 46.374C116.943 46.374 116.944 46.2184 117.694 46.2184C118.443 46.2184 118.444 46.0581 119.195 46.0581C119.946 46.0581 119.946 46.3832 120.696 46.3832C121.445 46.3832 121.447 46.3206 122.197 46.3191C122.948 46.3176 122.948 46.2123 123.699 46.2123L123.698 46.2107ZM125.457 18.4146C125.457 17.8132 125.625 17.3095 125.801 16.8455C125.999 16.3204 126.285 15.9144 126.709 15.5664C127.11 15.2382 127.516 14.9971 127.98 14.8338C128.444 14.6704 128.908 14.3514 129.43 14.3514C129.952 14.3514 130.451 14.5148 130.937 14.6842C131.42 14.8551 131.692 15.3329 132.06 15.6595C132.426 15.9877 132.864 16.2472 133.087 16.7325C133.31 17.2179 133.382 17.7842 133.382 18.413C133.382 19.2174 133.24 19.2174 133.24 20.0233C133.24 20.8292 133.34 20.8277 133.34 21.6336C133.34 22.4395 133.313 22.438 133.313 23.2439C133.313 24.0498 133.22 24.0483 133.22 24.8542C133.22 25.6601 133.414 25.6586 133.414 26.4629C133.414 27.2673 133.258 27.2673 133.258 28.0732C133.258 28.8791 133.29 28.8776 133.29 29.6835C133.29 30.4894 133.386 30.4894 133.386 31.2938C133.386 32.0982 133.26 32.0982 133.26 32.9041C133.26 33.71 133.383 33.71 133.383 34.5159C133.383 35.3218 133.948 35.5386 133.383 36.1125C132.818 36.6864 132.605 36.3033 131.813 36.3033C131.021 36.3033 131.019 35.972 130.227 35.972C129.435 35.972 129.433 36.1277 128.641 36.1277C127.849 36.1277 127.848 36.2865 127.054 36.2865C126.26 36.2865 126.141 36.5765 125.584 36.0117C125.027 35.447 125.567 35.3218 125.567 34.5174C125.567 33.7131 125.636 33.7131 125.636 32.9072C125.636 32.1012 125.618 32.1028 125.618 31.2969C125.618 30.491 125.641 30.4925 125.641 29.6866C125.641 28.8807 125.616 28.8822 125.616 28.0778C125.616 27.2734 125.537 27.2734 125.537 26.4675C125.537 25.6616 125.317 25.6631 125.317 24.8572C125.317 24.0513 125.491 24.0513 125.491 23.2469C125.491 22.4426 125.331 22.4426 125.331 21.6367C125.331 20.8308 125.416 20.8308 125.415 20.0264C125.413 19.222 125.464 19.2205 125.464 18.4146H125.457Z" fill="#7260F8"/>
<path d="M139.852 5.37302C139.852 5.18375 139.914 4.99754 139.893 4.81591C139.872 4.63427 139.773 4.4618 139.728 4.28169C139.684 4.10158 139.805 3.86347 139.739 3.69099C139.673 3.51852 139.553 3.35215 139.466 3.18883C139.379 3.02551 139.115 2.96903 139.009 2.81487C138.904 2.66071 138.867 2.46534 138.744 2.32492C138.62 2.1845 138.57 1.96776 138.431 1.84412C138.292 1.72049 138.115 1.63196 137.961 1.52512C137.807 1.41827 137.601 1.40148 137.436 1.31448C137.271 1.22748 137.092 1.19085 136.918 1.12522C136.745 1.05958 136.572 1.03058 136.39 0.984793C136.209 0.939003 136.07 0.67342 135.882 0.652051C135.694 0.630682 135.498 0.69021 135.31 0.69021C135.122 0.69021 134.939 0.786369 134.756 0.809264C134.573 0.832159 134.35 0.70242 134.171 0.746684C133.993 0.790948 133.874 1.05806 133.701 1.12369C133.529 1.18932 133.391 1.3099 133.227 1.3969C133.062 1.48391 132.905 1.55412 132.752 1.65944C132.599 1.76475 132.354 1.74796 132.215 1.87312C132.076 1.99828 131.989 2.17534 131.865 2.31576C131.742 2.45618 131.72 2.66377 131.615 2.81793C131.51 2.97209 131.249 3.02704 131.162 3.19188C131.075 3.35673 130.983 3.5292 130.916 3.7032C130.849 3.87721 130.919 4.09547 130.875 4.27711C130.83 4.45874 130.87 4.6419 130.849 4.82964C130.827 5.01738 130.727 5.18375 130.727 5.37302C130.727 5.18375 130.707 4.99601 130.685 4.81285C130.664 4.62969 130.505 4.47095 130.463 4.29085C130.42 4.11074 130.382 3.93673 130.316 3.76426C130.25 3.59178 130.336 3.34604 130.25 3.1812C130.165 3.01635 129.997 2.89119 129.892 2.73856C129.786 2.58592 129.556 2.53708 129.432 2.39818C129.309 2.25929 129.217 2.10665 129.078 1.98302C128.939 1.85939 128.874 1.64875 128.721 1.54191C128.569 1.43506 128.405 1.3389 128.24 1.2519C128.076 1.1649 127.862 1.19848 127.686 1.13132C127.511 1.06416 127.344 1.0199 127.163 0.974109C126.981 0.928319 126.819 0.836738 126.633 0.815369C126.447 0.794001 126.269 0.807738 126.081 0.807738C125.893 0.807738 125.721 0.876423 125.537 0.897792C125.354 0.919161 125.182 0.951214 125.002 0.995477C124.822 1.03974 124.625 1.01227 124.452 1.0779C124.28 1.14353 124.136 1.26717 123.972 1.35264C123.807 1.43812 123.605 1.45948 123.453 1.5648C123.3 1.67012 123.216 1.85939 123.077 1.98302C122.938 2.10665 122.647 2.08223 122.523 2.22265C122.4 2.36308 122.445 2.63935 122.34 2.79198C122.235 2.94461 122.035 3.03925 121.948 3.20562C121.861 3.37199 121.902 3.59026 121.836 3.76578C121.771 3.94131 121.652 4.09089 121.606 4.27253C121.56 4.45416 121.478 4.62817 121.456 4.81438C121.435 5.00059 121.574 5.18833 121.574 5.37607C121.574 5.18681 121.395 5.00822 121.374 4.82506C121.353 4.6419 121.383 4.44653 121.34 4.26642C121.298 4.08632 121.275 3.89247 121.211 3.71847C121.146 3.54447 121.011 3.39794 120.924 3.23309C120.837 3.06825 120.724 2.92172 120.618 2.76908C120.513 2.61645 120.432 2.44397 120.309 2.30508C120.185 2.16618 120.071 2.01355 119.932 1.88839C119.793 1.76323 119.565 1.75865 119.413 1.6518C119.26 1.54496 119.155 1.37248 118.99 1.28548C118.825 1.19848 118.663 1.10843 118.488 1.04127C118.312 0.974109 118.115 1.00769 117.932 0.961898C117.749 0.916108 117.597 0.74821 117.41 0.725315C117.224 0.70242 117.035 0.61084 116.847 0.61084C116.659 0.61084 116.459 0.644419 116.276 0.667314C116.093 0.690209 115.948 0.95274 115.77 0.997004C115.591 1.04127 115.423 1.09316 115.251 1.1588C115.078 1.22443 114.822 1.11148 114.657 1.19695C114.492 1.28243 114.436 1.54801 114.283 1.65333C114.13 1.75865 113.966 1.83649 113.827 1.96012C113.688 2.08376 113.54 2.1906 113.416 2.33102C113.293 2.47145 113.106 2.56303 113.001 2.71566C112.896 2.8683 112.914 3.09572 112.827 3.26057C112.74 3.42541 112.586 3.55515 112.52 3.72915C112.455 3.90315 112.378 4.07563 112.333 4.25727C112.287 4.4389 112.278 4.62664 112.255 4.81285C112.232 4.99907 112.3 5.18223 112.3 5.37149C112.3 5.18223 112.142 5.0067 112.119 4.82354C112.096 4.64038 112.252 4.41753 112.207 4.23742C112.163 4.05732 111.934 3.92758 111.869 3.7551C111.803 3.58262 111.847 3.3552 111.76 3.19188C111.673 3.02856 111.589 2.84845 111.484 2.69582C111.379 2.54319 111.189 2.44703 111.067 2.3066C110.945 2.16618 110.883 1.95555 110.744 1.83191C110.605 1.70828 110.388 1.67317 110.236 1.56633C110.083 1.45948 109.946 1.32517 109.779 1.23817C109.613 1.15116 109.384 1.22138 109.21 1.15422C109.036 1.08706 108.932 0.800106 108.749 0.755842C108.566 0.711578 108.369 0.700894 108.181 0.679525C107.993 0.658156 107.801 0.882528 107.612 0.882528C107.423 0.882528 107.25 0.858107 107.067 0.879476C106.884 0.900844 106.666 0.755842 106.487 0.800106C106.309 0.84437 106.112 0.888634 105.939 0.954266C105.767 1.0199 105.686 1.29464 105.521 1.38164C105.356 1.46864 105.153 1.47627 105.001 1.58312C104.848 1.68996 104.75 1.85633 104.611 1.97997C104.472 2.1036 104.347 2.22571 104.224 2.36613C104.1 2.50655 103.825 2.52792 103.719 2.68208C103.612 2.83624 103.674 3.09267 103.587 3.25751C103.5 3.42236 103.293 3.53225 103.227 3.70778C103.161 3.88331 103.2 4.09089 103.154 4.27253C103.108 4.45416 103.169 4.64343 103.146 4.82964C103.123 5.01586 102.87 5.18375 102.87 5.37302C102.87 5.18375 103.003 4.99601 102.981 4.81285C102.96 4.62969 102.955 4.43279 102.911 4.25421C102.867 4.07563 102.853 3.8711 102.788 3.69863C102.722 3.52615 102.487 3.42388 102.401 3.25904C102.316 3.09419 102.185 2.96903 102.079 2.8164C101.974 2.66377 102.034 2.38139 101.911 2.24097C101.789 2.10055 101.643 1.96776 101.502 1.84412C101.362 1.72049 101.142 1.69454 100.99 1.5877C100.837 1.48085 100.695 1.35875 100.53 1.27174C100.365 1.18474 100.213 1.06416 100.039 0.997004C99.8648 0.929845 99.6924 0.836738 99.5092 0.790948C99.3261 0.745158 99.1261 0.795527 98.9399 0.774158C98.7537 0.752789 98.5706 0.778737 98.3829 0.778737C98.1951 0.778737 97.9952 0.650525 97.8136 0.671893C97.632 0.693262 97.4335 0.740579 97.255 0.784843C97.0764 0.829106 96.9207 0.984793 96.7483 1.05043C96.5758 1.11606 96.3545 1.09774 96.1897 1.18322C96.0248 1.26869 95.8905 1.42438 95.7379 1.53122C95.5853 1.63807 95.5471 1.88228 95.4082 2.00591C95.2694 2.12955 95.0068 2.12497 94.8832 2.26539C94.7596 2.40582 94.6085 2.53403 94.5017 2.68819C94.3948 2.84235 94.3903 3.06214 94.3048 3.22699C94.2193 3.39183 94.1827 3.57499 94.1171 3.75052C94.0514 3.92605 94.0789 4.11532 94.0346 4.29695C93.9904 4.47858 93.9049 4.63732 93.8835 4.82354C93.8622 5.00975 93.6607 5.18223 93.6607 5.37149C93.6607 5.18223 93.8454 4.98686 93.8225 4.8037C93.7996 4.62053 93.7324 4.43127 93.6882 4.25269C93.6439 4.0741 93.534 3.90621 93.4684 3.73373C93.4028 3.56125 93.2105 3.44983 93.1235 3.28499C93.0365 3.12014 93.0899 2.87593 92.9846 2.72329C92.8793 2.57066 92.8305 2.3585 92.7068 2.2196C92.5832 2.08071 92.3405 2.05018 92.2016 1.92502C92.0628 1.79986 91.8934 1.72507 91.7392 1.61822C91.5851 1.51138 91.5271 1.24274 91.3622 1.15574C91.1974 1.06874 90.97 1.10232 90.7945 1.03516C90.619 0.968003 90.4648 0.82758 90.2817 0.78179C90.0985 0.736 89.894 0.816896 89.7078 0.794001C89.5216 0.771105 89.3415 0.754316 89.1523 0.754316C88.963 0.754316 88.7844 0.812317 88.6028 0.833685C88.4212 0.855054 88.2167 0.797053 88.0381 0.841317C87.8595 0.885581 87.6886 0.980214 87.5161 1.04737C87.3437 1.11453 87.1834 1.21374 87.0201 1.29922C86.8568 1.38469 86.7179 1.50833 86.5653 1.61365C86.4127 1.71896 86.2784 1.83802 86.1395 1.96165C86.0006 2.08528 85.7274 2.08071 85.6038 2.2196C85.4802 2.3585 85.355 2.51724 85.2497 2.66987C85.1444 2.82251 85.123 3.03925 85.036 3.20409C84.949 3.36894 84.9048 3.55362 84.8376 3.72915C84.7705 3.90468 84.6972 4.07563 84.6529 4.25727C84.6087 4.4389 84.714 4.63885 84.6926 4.82506C84.6713 5.01128 84.4942 5.17917 84.4942 5.36844C84.4942 5.17917 84.4393 5.00365 84.4179 4.82201C84.3965 4.64038 84.5736 4.41143 84.5293 4.23132C84.4851 4.05121 84.3431 3.88637 84.2775 3.71389C84.2119 3.54141 84.2149 3.32162 84.1279 3.15677C84.0409 2.99193 83.9326 2.82098 83.8273 2.66835C83.7219 2.51571 83.3984 2.53098 83.2763 2.39055C83.1542 2.25013 83.1359 2.01507 82.997 1.89144C82.8581 1.76781 82.7238 1.63043 82.5712 1.52359C82.4186 1.41675 82.2186 1.38775 82.0538 1.29922C81.8889 1.21069 81.7531 1.06264 81.5776 0.995477C81.4021 0.928319 81.2067 0.931371 81.0251 0.885581C80.8435 0.839791 80.6573 0.864212 80.4711 0.841317C80.2849 0.818422 80.1109 0.784843 79.9216 0.784843C79.7324 0.784843 79.534 0.63984 79.3508 0.661209C79.1677 0.682578 78.9708 0.732947 78.7922 0.777211C78.6137 0.821475 78.4122 0.859633 78.2398 0.925266C78.0673 0.990898 77.8902 1.09011 77.7254 1.17711C77.5606 1.26411 77.4385 1.43659 77.2859 1.54191C77.1332 1.64722 77.0615 1.85175 76.9226 1.97539C76.7837 2.09902 76.593 2.16313 76.4693 2.30355C76.3457 2.44397 76.1946 2.56303 76.0893 2.71719C75.984 2.87135 75.8375 3.00872 75.7505 3.17356C75.6635 3.33841 75.7093 3.56583 75.6436 3.74136C75.578 3.91689 75.5887 4.10311 75.5444 4.28474C75.5002 4.46637 75.2911 4.6129 75.2697 4.80064C75.2484 4.98838 75.1919 5.17765 75.1919 5.36691C75.1919 5.17765 75.2422 4.99907 75.2194 4.81591C75.1965 4.63275 75.143 4.45722 75.1003 4.27863C75.0576 4.10005 75.0973 3.89247 75.0316 3.71847C74.966 3.54447 74.9462 3.33994 74.8607 3.17662C74.7752 3.0133 74.6165 2.88051 74.5112 2.72787C74.4059 2.57524 74.3738 2.35087 74.2502 2.21197C74.1266 2.07307 73.832 2.09902 73.6931 1.97539C73.5542 1.85175 73.5405 1.5648 73.3879 1.45948C73.2353 1.35417 72.9956 1.37554 72.8308 1.28853C72.666 1.20153 72.5179 1.0779 72.3439 1.01074C72.17 0.943582 71.9914 0.879476 71.8098 0.835212C71.6281 0.790948 71.4526 0.671893 71.2664 0.648998C71.0802 0.626103 70.8833 0.870318 70.6941 0.870318C70.5048 0.870318 70.3171 0.731421 70.134 0.752789C69.9508 0.774158 69.757 0.792474 69.5784 0.836738C69.3999 0.881002 69.2717 1.08858 69.0977 1.15422C68.9237 1.21985 68.6947 1.15422 68.5299 1.24122C68.3651 1.32822 68.2445 1.48849 68.0919 1.5938C67.9393 1.69912 67.7332 1.74186 67.5943 1.86549C67.4554 1.98912 67.4631 2.25166 67.3395 2.39208C67.2158 2.5325 67.0037 2.5905 66.8984 2.74466C66.7931 2.89882 66.7992 3.10946 66.7122 3.27583C66.6252 3.4422 66.3321 3.51241 66.2665 3.68794C66.2009 3.86347 66.1627 4.05732 66.1185 4.23895C66.0742 4.42058 66.1215 4.62206 66.0986 4.8098C66.0757 4.99754 66.0498 5.17917 66.0498 5.36844C66.0498 5.17917 66.1841 4.97922 66.1627 4.79759C66.1414 4.61596 66.0956 4.416 66.0513 4.2359C66.0071 4.05579 65.8743 3.89094 65.8086 3.71694C65.743 3.54294 65.6545 3.37351 65.569 3.20867C65.4836 3.04383 65.2699 2.95988 65.1646 2.80724C65.0593 2.65461 65.1356 2.35545 65.0135 2.21655C64.8914 2.07765 64.7143 1.97081 64.5755 1.84718C64.4366 1.72354 64.2717 1.6167 64.1191 1.51138C63.9665 1.40606 63.7376 1.42438 63.5727 1.33738C63.4079 1.25038 63.2309 1.21985 63.0569 1.15269C62.8829 1.08553 62.7272 1.01074 62.5441 0.966477C62.3609 0.922213 62.219 0.677999 62.0328 0.655104C61.8466 0.632209 61.6497 0.876423 61.462 0.876423C61.2742 0.876423 61.0728 0.626103 60.8896 0.648998C60.7065 0.671893 60.531 0.815369 60.3524 0.859633C60.1738 0.903897 59.9586 0.877949 59.7862 0.943582C59.6137 1.00921 59.4412 1.11301 59.2764 1.20001C59.1116 1.28701 58.9727 1.43048 58.8201 1.5358C58.6674 1.64112 58.5988 1.85023 58.4599 1.97386C58.321 2.09749 58.2111 2.23487 58.089 2.37529C57.9669 2.51571 57.8097 2.61645 57.7029 2.77061C57.596 2.92477 57.3732 3.00872 57.2862 3.17509C57.1992 3.34146 57.1244 3.52157 57.0573 3.6971C56.9901 3.87263 57.0054 4.07563 56.9611 4.25879C56.9169 4.44195 56.9642 4.63275 56.9428 4.82048C56.9214 5.00822 56.8589 5.18223 56.8589 5.36997C56.8589 5.1807 56.9657 4.97922 56.9428 4.79759C56.9199 4.61596 56.8222 4.42669 56.7795 4.24811C56.7368 4.06953 56.6482 3.89094 56.5841 3.71847C56.52 3.54599 56.4743 3.35215 56.3873 3.1873C56.3003 3.02246 56.2163 2.84235 56.111 2.68971C56.0057 2.53708 55.9111 2.35545 55.789 2.21655C55.6669 2.07765 55.3815 2.09292 55.2426 1.96928C55.1037 1.84565 54.9786 1.71744 54.8244 1.61059C54.6703 1.50375 54.507 1.43354 54.3421 1.34654C54.1773 1.25953 54.0415 1.12522 53.8659 1.05806C53.6904 0.990898 53.4981 1.01227 53.3165 0.966477C53.1349 0.920687 52.967 0.871844 52.7808 0.850475C52.5946 0.829106 52.4206 0.63984 52.2329 0.63984C52.0452 0.63984 51.8681 0.832159 51.685 0.853528C51.5018 0.874897 51.2836 0.743631 51.105 0.787895C50.9264 0.832159 50.7784 1.00769 50.6059 1.07332C50.4335 1.13895 50.2595 1.20459 50.0946 1.29159C49.9298 1.37859 49.6948 1.3618 49.5421 1.46712C49.3895 1.57243 49.2598 1.72965 49.1209 1.85328C48.982 1.97691 48.9011 2.16618 48.779 2.3066C48.6569 2.44703 48.5303 2.5844 48.425 2.73856C48.3196 2.89272 48.2449 3.06367 48.1579 3.22851C48.0709 3.39336 48.0403 3.57804 47.9747 3.75357C47.9091 3.9291 47.8435 4.09395 47.7992 4.27558C47.7549 4.45722 47.8023 4.6419 47.7794 4.82812C47.7565 5.01433 47.7275 5.18223 47.7275 5.36997C47.7275 5.1807 47.5611 5.00059 47.5397 4.81896C47.5184 4.63732 47.5825 4.43127 47.5397 4.25116C47.497 4.07105 47.3596 3.91384 47.294 3.74136C47.2284 3.56889 47.2772 3.33536 47.1902 3.17051C47.1032 3.00567 46.8346 2.94767 46.7293 2.79503C46.624 2.6424 46.6087 2.42108 46.4851 2.28218C46.3615 2.14328 46.2135 2.02423 46.0746 1.9006C45.9357 1.77696 45.7098 1.77391 45.5572 1.66707C45.4046 1.56022 45.3176 1.36027 45.1527 1.27327C44.9879 1.18627 44.8551 1.01532 44.6811 0.948161C44.5071 0.881002 44.3194 0.823001 44.1378 0.777211C43.9562 0.731421 43.7578 0.74821 43.57 0.725315C43.3823 0.70242 43.1961 0.729894 43.0069 0.729894C42.8176 0.729894 42.6451 0.858107 42.462 0.881002C42.2788 0.903897 42.0988 0.908476 41.9187 0.95274C41.7386 0.997004 41.5203 0.926792 41.3478 0.992425C41.1754 1.05806 40.9785 1.10079 40.8137 1.1878C40.6488 1.2748 40.4794 1.37706 40.3268 1.48238C40.1742 1.5877 40.0506 1.74796 39.9117 1.8716C39.7728 1.99523 39.6507 2.14328 39.5271 2.28218C39.4034 2.42108 39.3836 2.63782 39.2783 2.79045C39.173 2.94309 39.0326 3.06825 38.9456 3.23309C38.8586 3.39794 38.8403 3.58415 38.7731 3.75968C38.706 3.93521 38.5259 4.068 38.4816 4.25116C38.4373 4.43432 38.4816 4.62817 38.4587 4.81438C38.4358 5.00059 38.5121 5.17917 38.5121 5.36691C38.5121 5.17765 38.3793 4.99296 38.358 4.8098C38.3366 4.62664 38.3732 4.42211 38.3305 4.24353C38.2878 4.06495 38.1199 3.91537 38.0543 3.74289C37.9886 3.57041 38.0588 3.3262 37.9718 3.16288C37.8848 2.99956 37.7475 2.84845 37.6422 2.69582C37.5369 2.54319 37.398 2.40429 37.2744 2.26387C37.1507 2.12344 36.9584 2.05018 36.8195 1.92654C36.6807 1.80291 36.499 1.74338 36.3464 1.63654C36.1938 1.5297 36.0427 1.44117 35.8779 1.35417C35.713 1.26717 35.5436 1.22443 35.3681 1.1588C35.1926 1.09316 35.0827 0.835212 34.9011 0.790948C34.7195 0.746684 34.5104 0.856581 34.3242 0.833685C34.138 0.81079 33.9624 0.746684 33.7747 0.746684C33.587 0.746684 33.4084 0.826054 33.2268 0.847423C33.0452 0.868791 32.8254 0.740579 32.6468 0.783316C32.4683 0.826054 32.3004 0.95274 32.1279 1.01837C31.9555 1.08401 31.8563 1.30532 31.6914 1.3908C31.5266 1.47627 31.3099 1.46406 31.1572 1.56938C31.0046 1.6747 30.8856 1.82123 30.7467 1.94486C30.6078 2.06849 30.356 2.08681 30.2339 2.22723C30.1118 2.36766 30.0049 2.53555 29.8981 2.68971C29.7913 2.84388 29.7669 3.05146 29.6799 3.2163C29.5929 3.38115 29.4525 3.52768 29.3868 3.70168C29.3212 3.87568 29.2312 4.05426 29.1869 4.2359C29.1426 4.41753 29.1197 4.6129 29.0968 4.79912C29.074 4.98533 29.1732 5.17917 29.1732 5.36844C29.1732 5.17917 29.1152 4.99754 29.0938 4.81438C29.0724 4.63122 28.9656 4.46637 28.9213 4.28627C28.8771 4.10616 28.8542 3.92758 28.7885 3.7551C28.7229 3.58262 28.8389 3.31857 28.7534 3.15525C28.668 2.99193 28.4619 2.88509 28.3566 2.73245C28.2513 2.57982 28.0422 2.51266 27.9186 2.37224C27.795 2.23181 27.679 2.1036 27.5401 1.97997C27.4012 1.85633 27.3936 1.56328 27.2394 1.45643C27.0853 1.34959 26.8655 1.33738 26.7007 1.25038C26.5358 1.16337 26.3802 1.04279 26.2062 0.977161C26.0322 0.911529 25.8429 0.870318 25.6613 0.826054C25.4797 0.78179 25.2767 0.876423 25.0905 0.855054C24.9043 0.833685 24.7318 0.842843 24.5426 0.842843C24.3533 0.842843 24.1565 0.653577 23.9733 0.674946C23.7902 0.696315 23.607 0.797053 23.4284 0.841317C23.2499 0.885581 23.0805 0.984793 22.908 1.05043C22.7355 1.11606 22.6241 1.30532 22.4608 1.39233C22.2975 1.47933 22.0304 1.39538 21.8778 1.5007C21.7252 1.60601 21.6763 1.84718 21.5375 1.97081C21.3986 2.09444 21.1437 2.10513 21.0216 2.24402C20.8995 2.38292 20.7743 2.53555 20.669 2.68971C20.5637 2.84388 20.5714 3.06825 20.4844 3.23462C20.3974 3.40099 20.3516 3.57499 20.2844 3.75052C20.2173 3.92605 20.0189 4.05732 19.9731 4.24048C19.9273 4.42364 20.0418 4.63122 20.0204 4.81743C19.999 5.00365 19.8678 5.17917 19.8678 5.36691C19.8678 5.17765 19.8815 4.99601 19.8586 4.81438C19.8357 4.63275 19.8067 4.44806 19.7625 4.26948C19.7182 4.09089 19.6877 3.90468 19.622 3.73068C19.5564 3.55668 19.4694 3.39183 19.3839 3.22851C19.2985 3.06519 19.2588 2.86677 19.1535 2.71414C19.0482 2.5615 18.7979 2.5264 18.6743 2.38597C18.5506 2.24555 18.5888 1.94639 18.4499 1.82275C18.311 1.69912 18.0256 1.76017 17.8715 1.65486C17.7173 1.54954 17.6273 1.35264 17.4624 1.26564C17.2976 1.17864 17.0824 1.2229 16.9069 1.15574C16.7314 1.08858 16.6276 0.806211 16.446 0.761947C16.2643 0.717684 16.0415 0.917634 15.8538 0.894739C15.6661 0.871844 15.4997 0.67342 15.3105 0.67342C15.1212 0.67342 14.9243 0.653577 14.7412 0.676472C14.558 0.699368 14.3581 0.729894 14.1795 0.774158C14.001 0.818422 13.8453 0.978688 13.6728 1.04432C13.5004 1.10995 13.3889 1.30227 13.2256 1.38927C13.0623 1.47627 12.8975 1.54038 12.7449 1.6457C12.5922 1.75102 12.3053 1.69301 12.1664 1.81665C12.0275 1.94028 12.0184 2.19976 11.8948 2.34018C11.7711 2.48061 11.5376 2.53708 11.4323 2.68971C11.327 2.84235 11.3591 3.08351 11.2736 3.24836C11.1881 3.4132 10.9683 3.52157 10.9027 3.6971C10.8371 3.87263 10.7959 4.06342 10.7516 4.24658C10.7074 4.42974 10.8493 4.64038 10.8279 4.82659C10.8066 5.0128 10.6982 5.18375 10.6982 5.37302C10.6982 5.18375 10.6829 4.99907 10.6616 4.81591C10.6402 4.63275 10.6509 4.43585 10.6066 4.25574C10.5624 4.07563 10.4021 3.9291 10.3365 3.75663C10.2709 3.58415 10.3746 3.3262 10.2877 3.16288C10.2007 2.99956 9.99767 2.89272 9.89236 2.74008C9.78705 2.58745 9.56575 2.5325 9.44212 2.39208C9.3185 2.25166 9.22998 2.09597 9.09109 1.97233C8.9522 1.8487 8.92321 1.58159 8.76906 1.47627C8.61491 1.37096 8.36766 1.41675 8.2013 1.32975C8.03494 1.24274 7.893 1.11911 7.71901 1.05195C7.54502 0.984793 7.33898 1.05195 7.15736 1.00769C6.97574 0.963424 6.82312 0.829106 6.63692 0.806211C6.45072 0.783316 6.27215 0.736 6.0829 0.736C5.89365 0.736 5.71508 0.812317 5.53193 0.833685C5.34879 0.855054 5.1809 0.940529 5.00234 0.984793C4.82377 1.02906 4.64978 1.06722 4.47731 1.13285C4.30485 1.19848 4.04692 1.09011 3.88361 1.17711C3.72031 1.26411 3.64094 1.50222 3.48832 1.60754C3.3357 1.71286 3.21207 1.84718 3.07319 1.97081C2.9343 2.09444 2.8412 2.2486 2.7191 2.38903C2.597 2.52945 2.38486 2.5905 2.27955 2.74466C2.17424 2.89882 2.09946 3.06977 2.01246 3.23462C1.92547 3.39946 1.89189 3.58262 1.82474 3.75663C1.75758 3.93063 1.71027 4.10158 1.66601 4.28321C1.62175 4.46485 1.62938 4.6419 1.60649 4.82964C1.58359 5.01738 1.60191 5.18528 1.60191 5.37455" stroke="#7260F8" stroke-width="1.2207" stroke-linecap="round" stroke-linejoin="round"/>
<path d="M140.047 66.5815C140.047 66.3922 140.11 66.206 140.089 66.0229C140.067 65.8397 139.968 65.6688 139.924 65.4887C139.879 65.3085 140 65.0689 139.934 64.8964C139.869 64.724 139.747 64.5576 139.66 64.3943C139.573 64.2309 139.307 64.1745 139.202 64.0218C139.096 63.8692 139.058 63.6723 138.935 63.5319C138.811 63.3915 138.759 63.1747 138.62 63.0511C138.481 62.9275 138.303 62.8389 138.149 62.7321C137.995 62.6252 137.789 62.6085 137.622 62.5215C137.456 62.4344 137.279 62.3978 137.103 62.3322C136.928 62.2665 136.757 62.2376 136.574 62.1933C136.391 62.149 136.252 61.8819 136.065 61.859C135.879 61.8361 135.681 61.8972 135.492 61.8972C135.302 61.8972 135.121 61.9949 134.938 62.0162C134.754 62.0376 134.532 61.9094 134.351 61.9537C134.171 61.9979 134.054 62.265 133.88 62.3322C133.706 62.3993 133.569 62.5184 133.405 62.6054C133.242 62.6924 133.082 62.7626 132.929 62.8679C132.776 62.9732 132.529 62.9565 132.39 63.0801C132.251 63.2037 132.163 63.3823 132.039 63.5227C131.916 63.6632 131.894 63.8723 131.787 64.0249C131.681 64.1775 131.42 64.234 131.333 64.3988C131.246 64.5637 131.153 64.7362 131.087 64.9117C131.021 65.0872 131.09 65.304 131.046 65.4856C131.001 65.6672 131.041 65.8519 131.018 66.0381C130.995 66.2244 130.895 66.3922 130.895 66.5815C130.895 66.3922 130.875 66.203 130.853 66.0213C130.832 65.8397 130.673 65.6779 130.629 65.4993C130.585 65.3208 130.548 65.1452 130.482 64.9712C130.417 64.7972 130.502 64.5515 130.417 64.3882C130.331 64.2248 130.162 64.0982 130.057 63.9455C129.951 63.7929 129.719 63.7456 129.596 63.6052C129.472 63.4647 129.381 63.3136 129.242 63.19C129.103 63.0664 129.036 62.8542 128.883 62.7489C128.73 62.6436 128.567 62.5459 128.401 62.4589C128.234 62.3719 128.021 62.4054 127.845 62.3398C127.67 62.2742 127.503 62.2284 127.32 62.1841C127.137 62.1399 126.977 62.0468 126.789 62.0254C126.601 62.004 126.424 62.0178 126.235 62.0178C126.046 62.0178 125.875 62.0864 125.692 62.1078C125.509 62.1292 125.335 62.1612 125.156 62.2055C124.977 62.2498 124.779 62.2208 124.605 62.2864C124.431 62.352 124.288 62.4757 124.124 62.5611C123.961 62.6466 123.758 62.668 123.605 62.7733C123.453 62.8786 123.369 63.0679 123.23 63.1915C123.091 63.3151 122.798 63.2907 122.674 63.4296C122.551 63.5685 122.596 63.8463 122.49 64.0005C122.383 64.1546 122.183 64.2477 122.096 64.4126C122.009 64.5774 122.05 64.7972 121.983 64.9728C121.916 65.1483 121.797 65.2979 121.752 65.481C121.708 65.6642 121.624 65.8367 121.601 66.0229C121.578 66.2091 121.719 66.3968 121.719 66.5861C121.719 66.3968 121.54 66.2182 121.517 66.0351C121.495 65.8519 121.527 65.655 121.482 65.4764C121.438 65.2979 121.417 65.101 121.351 64.9285C121.285 64.756 121.15 64.608 121.063 64.4431C120.976 64.2783 120.863 64.1317 120.757 63.9791C120.652 63.8265 120.57 63.654 120.446 63.5151C120.322 63.3762 120.208 63.2236 120.068 63.0999C119.927 62.9763 119.701 62.9702 119.547 62.8649C119.393 62.7596 119.289 62.5856 119.123 62.4986C118.956 62.4116 118.795 62.3215 118.621 62.2543C118.447 62.1872 118.247 62.2208 118.065 62.1765C117.884 62.1322 117.729 61.9628 117.542 61.9399C117.354 61.917 117.166 61.8254 116.977 61.8254C116.788 61.8254 116.588 61.859 116.406 61.8819C116.224 61.9048 116.078 62.1673 115.898 62.2116C115.718 62.2559 115.551 62.3078 115.379 62.3734C115.207 62.439 114.949 62.3246 114.785 62.4116C114.622 62.4986 114.562 62.7626 114.41 62.8695C114.257 62.9763 114.092 63.0526 113.953 63.1763C113.815 63.2999 113.667 63.4067 113.543 63.5472C113.419 63.6876 113.233 63.7776 113.126 63.9318C113.019 64.0859 113.038 64.3118 112.951 64.4767C112.864 64.6415 112.71 64.7713 112.642 64.9468C112.575 65.1223 112.499 65.2933 112.455 65.4764C112.41 65.6596 112.4 65.8458 112.377 66.0336C112.354 66.2213 112.423 66.4029 112.423 66.5922C112.423 66.4029 112.262 66.2259 112.241 66.0427C112.22 65.8596 112.374 65.6352 112.33 65.4566C112.285 65.278 112.055 65.1468 111.989 64.9743C111.924 64.8018 111.966 64.5744 111.881 64.4095C111.795 64.2447 111.708 64.0661 111.603 63.9135C111.498 63.7608 111.309 63.6647 111.185 63.5258C111.061 63.3869 111 63.1747 110.86 63.0511C110.719 62.9275 110.503 62.8923 110.35 62.7855C110.197 62.6787 110.059 62.5443 109.894 62.4573C109.729 62.3703 109.498 62.4421 109.323 62.3749C109.147 62.3078 109.044 62.0208 108.862 61.975C108.68 61.9292 108.48 61.9201 108.294 61.8987C108.108 61.8773 107.913 62.1017 107.725 62.1017C107.537 62.1017 107.362 62.0773 107.179 62.0987C106.995 62.12 106.777 61.9735 106.597 62.0178C106.417 62.062 106.222 62.1063 106.048 62.1719C105.874 62.2375 105.793 62.5123 105.628 62.5993C105.463 62.6863 105.259 62.6939 105.106 62.7992C104.953 62.9046 104.856 63.0725 104.715 63.1961C104.575 63.3197 104.45 63.4418 104.326 63.5823C104.202 63.7227 103.926 63.744 103.819 63.8967C103.713 64.0493 103.775 64.3073 103.688 64.4736C103.601 64.64 103.392 64.7484 103.326 64.9239C103.261 65.0994 103.297 65.307 103.253 65.4887C103.209 65.6703 103.268 65.8596 103.245 66.0473C103.223 66.235 102.969 66.4029 102.969 66.5907C102.969 66.4014 103.102 66.2137 103.081 66.0305C103.059 65.8473 103.055 65.6504 103.01 65.4703C102.966 65.2902 102.952 65.0872 102.887 64.9147C102.821 64.7423 102.585 64.64 102.499 64.4752C102.414 64.3103 102.281 64.1852 102.176 64.0325C102.07 63.8799 102.13 63.596 102.006 63.4571C101.883 63.3182 101.736 63.1839 101.596 63.0602C101.455 62.9366 101.234 62.9122 101.081 62.8053C100.929 62.6985 100.787 62.5764 100.62 62.4894C100.454 62.4024 100.303 62.2818 100.127 62.2162C99.9519 62.1505 99.7794 62.0559 99.5978 62.0117C99.4162 61.9674 99.2147 62.0178 99.027 61.9949C98.8393 61.972 98.6577 62.001 98.4684 62.001C98.2791 62.001 98.0807 61.8712 97.8976 61.8941C97.7144 61.917 97.5176 61.9628 97.3375 62.0071C97.1574 62.0513 97.0032 62.207 96.8292 62.2727C96.6552 62.3383 96.4339 62.3184 96.2691 62.4054C96.1043 62.4924 95.97 62.6466 95.8158 62.7535C95.6617 62.8603 95.625 63.1045 95.4846 63.2281C95.3442 63.3518 95.0817 63.3472 94.9581 63.4861C94.8345 63.625 94.6818 63.7547 94.575 63.9074C94.4682 64.06 94.4636 64.2813 94.3766 64.4462C94.2896 64.611 94.253 64.7942 94.1873 64.9697C94.1217 65.1452 94.1492 65.3345 94.1034 65.5161C94.0576 65.6978 93.9737 65.8565 93.9508 66.0427C93.9279 66.2289 93.7279 66.4014 93.7279 66.5907C93.7279 66.4014 93.9126 66.2045 93.8913 66.0229C93.8699 65.8412 93.7997 65.6504 93.7554 65.4703C93.7112 65.2902 93.5997 65.1239 93.5341 64.9499C93.4685 64.7759 93.2747 64.666 93.1877 64.5011C93.1007 64.3363 93.1541 64.0921 93.0473 63.9394C92.9404 63.7868 92.8916 63.5746 92.768 63.4342C92.6443 63.2938 92.4017 63.2648 92.2612 63.1411C92.1208 63.0175 91.9514 62.9412 91.7973 62.8343C91.6431 62.7275 91.5851 62.4589 91.4188 62.3719C91.2524 62.2849 91.025 62.3184 90.8495 62.2528C90.674 62.1872 90.5183 62.0452 90.3367 62.001C90.1551 61.9567 89.949 62.0361 89.7613 62.0147C89.5736 61.9933 89.395 61.975 89.2057 61.975C89.0165 61.975 88.8379 62.033 88.6548 62.0544C88.4716 62.0758 88.2686 62.0162 88.0901 62.0605C87.9115 62.1048 87.7406 62.1994 87.5666 62.265C87.3926 62.3307 87.2339 62.4314 87.069 62.5169C86.9042 62.6023 86.7653 62.726 86.6127 62.8313C86.4601 62.9366 86.3258 63.0557 86.1853 63.1793C86.0449 63.3029 85.7717 63.2968 85.6481 63.4357C85.5245 63.5746 85.3993 63.7334 85.2925 63.886C85.1857 64.0386 85.1658 64.2554 85.0788 64.4202C84.9918 64.5851 84.9461 64.7697 84.8804 64.9453C84.8148 65.1208 84.74 65.2918 84.6942 65.4734C84.6484 65.655 84.7553 65.855 84.7339 66.0427C84.7125 66.2305 84.5355 66.3968 84.5355 66.5861C84.5355 66.3968 84.4806 66.2213 84.4577 66.0381C84.4348 65.855 84.6133 65.626 84.5691 65.4474C84.5248 65.2689 84.3829 65.1025 84.3172 64.93C84.2516 64.7575 84.2531 64.5362 84.1677 64.3729C84.0822 64.2096 83.9708 64.0371 83.8655 63.8845C83.7602 63.7318 83.4366 63.7471 83.313 63.6082C83.1894 63.4693 83.1711 63.2327 83.0322 63.1091C82.8933 62.9855 82.759 62.8481 82.6048 62.7412C82.4507 62.6344 82.2507 62.6054 82.0859 62.5184C81.9211 62.4314 81.7837 62.2818 81.6082 62.2147C81.4327 62.1475 81.2373 62.1505 81.0542 62.1063C80.871 62.062 80.6864 62.0849 80.4986 62.062C80.3109 62.0391 80.1384 62.0055 79.9492 62.0055C79.7599 62.0055 79.5615 61.859 79.3784 61.8819C79.1952 61.9048 78.9984 61.9537 78.8183 61.9979C78.6382 62.0422 78.4382 62.0803 78.2642 62.146C78.0903 62.2116 77.9132 62.3108 77.7499 62.3963C77.5866 62.4818 77.4614 62.6558 77.3088 62.7611C77.1562 62.8664 77.0845 63.0709 76.9441 63.1946C76.8036 63.3182 76.6129 63.3823 76.4892 63.5212C76.3656 63.6601 76.213 63.7807 76.1077 63.9348C76.0024 64.089 75.8543 64.2264 75.7673 64.3912C75.6803 64.5561 75.7261 64.7835 75.659 64.959C75.5918 65.1345 75.6025 65.3208 75.5582 65.5039C75.514 65.6871 75.3049 65.8321 75.282 66.0198C75.2591 66.2076 75.2042 66.3968 75.2042 66.5861C75.2042 66.3968 75.2545 66.2182 75.2316 66.0351C75.2087 65.8519 75.1553 65.6764 75.1111 65.4963C75.0668 65.3162 75.1065 65.1086 75.0409 64.9361C74.9752 64.7636 74.9554 64.5576 74.8684 64.3927C74.7814 64.2279 74.6227 64.0966 74.5174 63.944C74.412 63.7914 74.3785 63.567 74.2548 63.4281C74.1312 63.2892 73.8367 63.3167 73.6962 63.193C73.5558 63.0694 73.5421 62.7825 73.3895 62.6756C73.2369 62.5688 72.9972 62.5932 72.8309 62.5062C72.6645 62.4192 72.518 62.2955 72.3425 62.2284C72.167 62.1612 71.9899 62.0971 71.8068 62.0529C71.6236 62.0086 71.4497 61.8895 71.2619 61.8666C71.0742 61.8438 70.8773 62.088 70.6896 62.088C70.5019 62.088 70.3126 61.9491 70.1295 61.9704C69.9463 61.9918 69.7525 62.0101 69.5724 62.0544C69.3923 62.0987 69.2641 62.3062 69.0916 62.3719C68.9192 62.4375 68.6872 62.3719 68.5239 62.4573C68.3606 62.5428 68.2369 62.7046 68.0843 62.8099C67.9317 62.9152 67.7257 62.958 67.5853 63.0816C67.4448 63.2052 67.4525 63.4693 67.3288 63.6082C67.2052 63.7471 66.9931 63.8066 66.8862 63.9608C66.7794 64.1149 66.787 64.3271 66.7 64.492C66.613 64.6568 66.32 64.7285 66.2529 64.9025C66.1857 65.0765 66.1491 65.2719 66.1033 65.4551C66.0575 65.6382 66.1048 65.8397 66.0834 66.0259C66.0621 66.2121 66.0346 66.3968 66.0346 66.5861C66.0346 66.3968 66.1689 66.1969 66.1475 66.0137C66.1262 65.8306 66.0804 65.6306 66.0361 65.452C65.9919 65.2734 65.8576 65.1071 65.7919 64.9331C65.7263 64.7591 65.6378 64.5896 65.5508 64.4248C65.4638 64.26 65.2501 64.1775 65.1448 64.0234C65.0395 63.8692 65.1158 63.5716 64.9922 63.4327C64.8686 63.2938 64.6931 63.1885 64.5526 63.0648C64.4122 62.9412 64.2489 62.8359 64.0948 62.729C63.9406 62.6222 63.7132 62.6436 63.5469 62.5566C63.3805 62.4696 63.205 62.439 63.0295 62.3734C62.854 62.3078 62.6983 62.233 62.5167 62.1872C62.335 62.1414 62.1916 61.8972 62.0038 61.8758C61.8161 61.8544 61.6208 62.0987 61.4315 62.0987C61.2423 62.0987 61.0423 61.8483 60.8592 61.8697C60.676 61.8911 60.5005 62.0361 60.3204 62.0803C60.1403 62.1246 59.9267 62.0987 59.7542 62.1643C59.5817 62.2299 59.4077 62.3337 59.2444 62.4192C59.0811 62.5047 58.9392 62.6497 58.7866 62.755C58.6339 62.8603 58.5637 63.0694 58.4248 63.193C58.286 63.3167 58.1761 63.454 58.0524 63.5929C57.9288 63.7318 57.7716 63.8341 57.6648 63.9867C57.558 64.1394 57.3336 64.2248 57.2466 64.3897C57.1596 64.5545 57.0833 64.7362 57.0177 64.9117C56.952 65.0872 56.9658 65.2918 56.92 65.4734C56.8742 65.655 56.923 65.8489 56.9002 66.0351C56.8773 66.2213 56.8162 66.3968 56.8162 66.5861C56.8162 66.3968 56.923 66.1953 56.9002 66.0122C56.8773 65.829 56.7796 65.6413 56.7353 65.4612C56.6911 65.2811 56.6041 65.104 56.5384 64.93C56.4728 64.756 56.427 64.5622 56.3416 64.3988C56.2561 64.2355 56.1691 64.0539 56.0638 63.9013C55.9585 63.7486 55.8638 63.567 55.7402 63.4281C55.6166 63.2892 55.3312 63.306 55.1923 63.1808C55.0534 63.0557 54.9267 62.929 54.7741 62.8221C54.6215 62.7153 54.4551 62.6451 54.2903 62.5581C54.1255 62.4711 53.9881 62.3368 53.8141 62.2711C53.6401 62.2055 53.4463 62.2253 53.2647 62.1811C53.0831 62.1368 52.9152 62.0864 52.7275 62.0651C52.5397 62.0437 52.3673 61.8529 52.178 61.8529C51.9888 61.8529 51.8117 62.0452 51.6301 62.0666C51.4485 62.088 51.2287 61.9552 51.0486 61.9994C50.8685 62.0437 50.722 62.2192 50.548 62.2849C50.374 62.3505 50.2 62.4161 50.0367 62.5016C49.8734 62.5871 49.6353 62.5718 49.4827 62.6771C49.3301 62.7825 49.2003 62.9397 49.0599 63.0633C48.9195 63.1869 48.8402 63.3762 48.7165 63.5166C48.5929 63.657 48.4662 63.7944 48.3609 63.9486C48.2556 64.1027 48.1793 64.2737 48.0923 64.4385C48.0053 64.6034 47.9748 64.7881 47.9076 64.9636C47.8405 65.1391 47.7749 65.304 47.7306 65.4871C47.6863 65.6703 47.7336 65.8534 47.7108 66.0412C47.6879 66.2289 47.6589 66.3953 47.6589 66.5846C47.6589 66.3953 47.4925 66.2152 47.4696 66.032C47.4467 65.8489 47.5123 65.6428 47.4696 65.4642C47.4269 65.2857 47.2895 65.1269 47.2239 64.9544C47.1583 64.782 47.2056 64.5469 47.1201 64.3836C47.0346 64.2203 46.763 64.1623 46.6577 64.0096C46.5524 63.857 46.5371 63.6357 46.4135 63.4953C46.2898 63.3548 46.1403 63.2373 46.0014 63.1137C45.8625 62.99 45.6351 62.9885 45.4825 62.8817C45.3298 62.7748 45.2413 62.5749 45.0765 62.4879C44.9117 62.4009 44.7789 62.2299 44.6034 62.1628C44.4278 62.0956 44.2401 62.0376 44.0585 61.9933C43.8769 61.9491 43.6769 61.9643 43.4907 61.943C43.3045 61.9216 43.1153 61.9491 42.9276 61.9491C42.7398 61.9491 42.5659 62.0773 42.3827 62.1002C42.1996 62.1231 42.0179 62.1277 41.8394 62.1719C41.6608 62.2162 41.441 62.1444 41.2686 62.2101C41.0961 62.2757 40.8977 62.3184 40.7329 62.4054C40.568 62.4924 40.3971 62.5947 40.2445 62.7C40.0918 62.8053 39.9667 62.9656 39.8278 63.0892C39.6889 63.2129 39.5653 63.3609 39.4417 63.4998C39.318 63.6387 39.2967 63.8555 39.1914 64.0096C39.0861 64.1638 38.9441 64.2859 38.8571 64.4523C38.7701 64.6186 38.7503 64.8049 38.6847 64.9789C38.619 65.1529 38.4374 65.2872 38.3916 65.4703C38.3458 65.6535 38.3916 65.8473 38.3687 66.0351C38.3458 66.2228 38.4222 66.3999 38.4222 66.5891C38.4222 66.3999 38.2894 66.2137 38.268 66.0305C38.2466 65.8473 38.2833 65.6428 38.239 65.4627C38.1947 65.2826 38.0269 65.1345 37.9612 64.9621C37.8956 64.7896 37.9658 64.5454 37.8788 64.3805C37.7918 64.2157 37.6545 64.0661 37.5476 63.9135C37.4408 63.7608 37.3019 63.6219 37.1783 63.4815C37.0547 63.3411 36.8624 63.2678 36.7219 63.1442C36.5815 63.0206 36.4014 62.961 36.2473 62.8557C36.0931 62.7504 35.9436 62.6619 35.7772 62.5749C35.6108 62.4879 35.4414 62.4467 35.2674 62.3795C35.0935 62.3123 34.982 62.0559 34.7989 62.0101C34.6157 61.9643 34.4082 62.0758 34.2205 62.0529C34.0327 62.03 33.8587 61.9659 33.6695 61.9659C33.4802 61.9659 33.3032 62.0452 33.12 62.0666C32.9369 62.088 32.7187 61.9582 32.5386 62.0025C32.3585 62.0468 32.1921 62.1719 32.0181 62.2375C31.8441 62.3032 31.7449 62.5245 31.5801 62.61C31.4153 62.6955 31.197 62.6817 31.0444 62.787C30.8918 62.8923 30.7727 63.0389 30.6338 63.1625C30.4949 63.2861 30.2431 63.3045 30.1195 63.4434C29.9959 63.5823 29.889 63.7517 29.7822 63.9058C29.6754 64.06 29.6494 64.2676 29.5624 64.434C29.4754 64.6003 29.335 64.7453 29.2679 64.9193C29.2007 65.0933 29.1122 65.2719 29.0679 65.4535C29.0237 65.6352 29.0008 65.8306 28.9779 66.0183C28.955 66.206 29.0557 66.3984 29.0557 66.5876C29.0557 66.3984 28.9977 66.2167 28.9763 66.0336C28.955 65.8504 28.8466 65.6856 28.8039 65.5054C28.7612 65.3253 28.7367 65.1468 28.6711 64.9728C28.6055 64.7987 28.7215 64.5362 28.6345 64.3714C28.5475 64.2065 28.3414 64.1012 28.2361 63.9486C28.1308 63.7959 27.9202 63.7288 27.7966 63.5899C27.673 63.451 27.5554 63.3213 27.4165 63.1976C27.2777 63.074 27.2685 62.7809 27.1144 62.6741C26.9602 62.5672 26.7404 62.5566 26.5741 62.4696C26.4077 62.3826 26.2536 62.262 26.078 62.1963C25.9025 62.1307 25.7148 62.0895 25.5317 62.0452C25.3485 62.001 25.1471 62.0971 24.9609 62.0742C24.7747 62.0513 24.6022 62.062 24.4129 62.062C24.2237 62.062 24.0253 61.8728 23.8437 61.8941C23.662 61.9155 23.4774 62.0162 23.2973 62.0605C23.1172 62.1048 22.9493 62.204 22.7753 62.2696C22.6013 62.3352 22.4899 62.526 22.3266 62.6115C22.1633 62.697 21.8962 62.613 21.7436 62.7183C21.5909 62.8237 21.5421 63.0648 21.4032 63.1885C21.2643 63.3121 21.0095 63.3213 20.8858 63.4617C20.7622 63.6021 20.6371 63.7532 20.5317 63.9074C20.4264 64.0615 20.4341 64.2874 20.3471 64.4523C20.2601 64.6171 20.2128 64.7942 20.1471 64.9682C20.0815 65.1422 19.8801 65.275 19.8358 65.4581C19.7915 65.6413 19.9045 65.8504 19.8831 66.0366C19.8617 66.2228 19.7305 66.3984 19.7305 66.5876C19.7305 66.3984 19.7442 66.2167 19.7213 66.0336C19.6984 65.8504 19.6679 65.6672 19.6236 65.4871C19.5794 65.307 19.5473 65.1208 19.4817 64.9483C19.4161 64.7759 19.3276 64.6095 19.2421 64.4446C19.1566 64.2798 19.1169 64.0829 19.0101 63.9287C18.9033 63.7746 18.653 63.741 18.5293 63.6021C18.4057 63.4632 18.4439 63.1625 18.3035 63.0389C18.163 62.9152 17.8776 62.9778 17.725 62.8725C17.5724 62.7672 17.4808 62.5703 17.316 62.4833C17.1512 62.3963 16.9344 62.4406 16.7604 62.3749C16.5865 62.3093 16.4811 62.0254 16.298 61.9796C16.1149 61.9338 15.892 62.1353 15.7058 62.1124C15.5196 62.0895 15.3517 61.8911 15.1625 61.8911C14.9732 61.8911 14.7748 61.8712 14.5932 61.8941C14.4116 61.917 14.2101 61.9475 14.03 61.9918C13.8499 62.0361 13.6958 62.1963 13.5218 62.262C13.3478 62.3276 13.2364 62.5199 13.0731 62.6069C12.9098 62.6939 12.7434 62.7565 12.5908 62.8633C12.4382 62.9702 12.1513 62.9091 12.0108 63.0328C11.8704 63.1564 11.8613 63.4174 11.7376 63.5563C11.614 63.6952 11.379 63.7517 11.2737 63.9058C11.1684 64.06 11.2004 64.2996 11.1134 64.4645C11.0264 64.6293 10.8066 64.7377 10.741 64.9132C10.6754 65.0888 10.6342 65.2811 10.5884 65.4627C10.5426 65.6443 10.6876 65.8565 10.6647 66.0442C10.6418 66.232 10.535 66.4014 10.535 66.5907C10.535 66.4014 10.5197 66.2167 10.4983 66.0336C10.477 65.8504 10.4877 65.652 10.4434 65.4734C10.3991 65.2948 10.2374 65.1468 10.1717 64.9743C10.1061 64.8018 10.2084 64.5438 10.1229 64.379C10.0374 64.2142 9.83139 64.1088 9.72608 63.9562C9.62077 63.8036 9.39794 63.7486 9.27432 63.6097C9.15069 63.4708 9.06065 63.3136 8.92176 63.19C8.78287 63.0664 8.75235 62.7992 8.5982 62.6939C8.44405 62.5886 8.19528 62.6344 8.03044 62.5474C7.86561 62.4604 7.72215 62.3368 7.54663 62.2696C7.37112 62.2024 7.1666 62.2696 6.98345 62.2253C6.80031 62.1811 6.64921 62.0468 6.46149 62.0239C6.27376 62.001 6.09519 61.9537 5.90747 61.9537C5.71974 61.9537 5.53965 62.03 5.3565 62.0513C5.17335 62.0727 5.00547 62.1582 4.82537 62.2024C4.64528 62.2467 4.47129 62.2849 4.29883 62.3505C4.12636 62.4161 3.86843 62.3062 3.7036 62.3932C3.53877 62.4802 3.4594 62.7183 3.30678 62.8237C3.15416 62.929 3.03053 63.0633 2.89012 63.1854C2.74971 63.3075 2.65813 63.4632 2.53451 63.6021C2.41089 63.741 2.19874 63.8036 2.09343 63.9577C1.98812 64.1119 1.91181 64.2828 1.82482 64.4477C1.73782 64.6125 1.70272 64.7957 1.63709 64.9712C1.57146 65.1468 1.52262 65.3162 1.47684 65.4993C1.43105 65.6825 1.44021 65.8596 1.41731 66.0458C1.39442 66.232 1.41121 66.4029 1.41121 66.5907" stroke="#7260F8" stroke-width="1.2207" stroke-linecap="round" stroke-linejoin="round"/>
</g>
<defs>
<clipPath id="clip0_920_6784">
<rect width="139.907" height="67.1869" fill="white" transform="translate(0.799805)"/>
</clipPath>
</defs>
</svg>
