<svg width="141" height="125" viewBox="0 0 141 125" fill="none" xmlns="http://www.w3.org/2000/svg">
<g clip-path="url(#clip0_920_6858)">
<path d="M138.769 39.258C138.866 40.0232 139.012 39.9798 139.012 40.7502C139.012 41.5205 139.613 41.5205 139.613 42.2908C139.613 43.0612 139.711 43.0625 139.711 43.8328C139.711 44.6044 139.422 44.6082 139.409 45.3798C139.373 45.8874 138.598 46.3364 138.543 46.8401C138.488 47.3439 138.454 47.8349 138.381 48.3362C138.308 48.8374 138.59 49.3896 138.5 49.887C138.409 50.3844 138.704 50.9673 138.595 51.4621C138.487 51.957 138.118 52.3983 137.992 52.8893C137.866 53.3803 137.06 53.6749 136.917 54.1621C136.774 54.6481 136.927 55.2105 136.769 55.6926C136.611 56.1747 136.588 56.6951 136.414 57.172C136.241 57.649 135.885 58.0457 135.696 58.5176C135.507 58.9882 135.224 59.4053 135.02 59.8708C134.816 60.3363 134.445 60.7049 134.228 61.1653C134.011 61.6257 134.742 62.5389 134.514 62.9929C134.286 63.4469 133.946 63.85 133.705 64.2976C133.464 64.7453 133.327 65.2554 133.075 65.698C132.824 66.1406 132.282 66.4148 132.021 66.851C131.759 67.2871 131.817 67.9223 131.545 68.3521C131.273 68.7819 130.917 69.1632 130.637 69.5879C130.356 70.0126 129.342 69.9336 129.053 70.3519C128.763 70.7702 129.206 71.6987 128.907 72.1106C128.609 72.5226 127.633 72.4308 127.328 72.8376C127.025 73.2419 127.206 74.0161 126.895 74.4178C126.584 74.8196 126.22 75.1792 125.903 75.5759C125.585 75.9725 124.741 75.9304 124.415 76.322C124.093 76.711 123.935 77.2326 123.604 77.619C123.275 78.0042 123.233 78.6355 122.898 79.0181C122.562 79.4008 122.176 79.7324 121.835 80.1099C121.495 80.4874 121.244 80.9427 120.898 81.3151C120.552 81.6875 120.379 82.2206 120.029 82.5905C119.68 82.9604 119.279 83.2805 118.926 83.6452C118.573 84.01 118.498 84.6502 118.141 85.0112C117.783 85.3721 117.354 85.6667 116.993 86.0238C116.632 86.3809 116.059 86.5263 115.696 86.8809C115.332 87.2342 114.622 87.2291 114.256 87.5798C113.89 87.9305 113.807 88.5797 113.437 88.9279C113.067 89.2761 112.225 89.1154 111.853 89.461C111.48 89.8066 111.784 90.8831 111.409 91.2261C111.034 91.5692 110.243 91.4544 109.867 91.7937C109.491 92.1329 109.184 92.55 108.805 92.888C108.426 93.2259 108.499 94.0754 108.117 94.4108C107.736 94.7462 106.943 94.6123 106.56 94.9464C106.177 95.2806 105.464 95.2309 105.081 95.5625C104.697 95.8941 104.312 96.2218 103.926 96.5522C103.541 96.8825 103.322 97.4067 102.937 97.7344C102.551 98.0622 102.287 98.5379 101.9 98.8657C101.512 99.1935 101.499 99.9676 101.112 100.294C100.724 100.621 100.244 100.843 99.8566 101.168C99.4689 101.493 98.6552 101.313 98.2649 101.637C97.8746 101.961 97.3505 102.126 96.9615 102.45C96.5725 102.773 96.1771 103.095 95.7868 103.418C95.3966 103.74 95.1581 104.25 94.7678 104.573C94.3775 104.896 94.0408 105.289 93.6518 105.611C93.2629 105.934 93.2386 106.706 92.8496 107.028C92.4606 107.351 91.888 107.461 91.499 107.783C91.11 108.106 90.9047 108.657 90.5157 108.981C90.1267 109.305 89.3117 109.125 88.924 109.449C88.5363 109.773 88.3934 110.4 88.007 110.726C87.6205 111.051 87.5045 111.706 87.1193 112.033C86.7341 112.359 85.9511 112.228 85.5672 112.556C85.1795 112.887 84.5558 112.941 84.1744 113.271C83.7931 113.602 83.7804 114.371 83.4003 114.702C83.0202 115.034 82.0981 114.765 81.7206 115.099C81.3431 115.433 81.0906 115.927 80.7156 116.263C80.3406 116.6 80.0384 117.036 79.6672 117.377C79.2961 117.717 79.1992 118.373 78.8319 118.716C78.4645 119.059 78.3128 119.646 77.9493 119.992C77.5858 120.339 77.2172 120.712 76.8576 121.064C76.466 121.403 76.1166 121.876 75.7288 122.145C75.3041 122.44 74.331 121.793 73.9089 122.005C73.4497 122.236 73.2686 123.084 72.812 123.22C72.3274 123.365 71.7611 123.203 71.2777 123.245C70.7944 123.287 70.2447 123.613 69.7524 123.552C69.2601 123.491 68.9757 122.582 68.4923 122.428C68.037 122.283 67.4924 122.431 67.0333 122.207C66.606 121.996 65.7591 122.426 65.3281 122.149C64.9276 121.892 64.8574 121.079 64.4531 120.765C64.0488 120.452 63.5094 120.288 63.1 119.964C62.6906 119.64 62.8002 118.681 62.3934 118.354C61.9904 118.03 61.5274 117.784 61.1231 117.453C60.7188 117.123 60.0543 117.125 59.6526 116.793C59.2508 116.46 59.0723 115.87 58.6718 115.536C58.2714 115.202 57.9831 114.748 57.5852 114.413C57.1873 114.077 56.7549 113.792 56.3583 113.454C55.9616 113.116 55.213 113.197 54.8189 112.858C54.4248 112.519 53.9797 112.242 53.5869 111.901C53.1953 111.562 52.5563 111.504 52.1635 111.162C51.7707 110.82 51.4812 110.363 51.0909 110.02C50.7007 109.677 51.0093 108.538 50.6203 108.196C50.2313 107.855 49.4418 107.962 49.0529 107.619C48.6639 107.276 47.868 107.389 47.4803 107.045C47.0926 106.7 46.7291 106.324 46.3414 105.98C45.9524 105.634 46.3057 104.452 45.9192 104.109C45.5328 103.766 44.7982 103.804 44.4117 103.46C44.0215 103.114 43.783 102.6 43.3965 102.257C43.0101 101.914 42.5586 101.632 42.1709 101.289C41.7832 100.946 40.9618 101.085 40.5741 100.743C40.1864 100.401 39.7285 100.128 39.3421 99.7878C38.9556 99.4473 39.2375 98.3658 38.8536 98.0278C38.4697 97.6898 37.8728 97.6005 37.4902 97.2638C37.1076 96.9271 36.5783 96.7575 36.1957 96.4208C35.8131 96.0841 35.0134 96.2193 34.6321 95.8813C34.2507 95.5433 34.5632 94.4248 34.1819 94.0856C33.8005 93.7463 32.8963 93.995 32.5175 93.6545C32.1387 93.314 32.3338 92.3345 31.9563 91.9926C31.5788 91.6508 31.2153 91.2963 30.8391 90.9519C30.4628 90.6076 29.6721 90.7173 29.2984 90.3716C28.9247 90.026 28.4503 89.785 28.0766 89.4381C27.7029 89.0911 27.8496 88.192 27.4797 87.8413C27.1098 87.4905 26.2285 87.6767 25.8612 87.3235C25.4939 86.9702 25.5411 86.1884 25.1763 85.8325C24.8116 85.4767 24.1165 85.4563 23.7556 85.0966C23.3946 84.737 23.0414 84.3658 22.6842 84.0036C22.3271 83.6414 22.0568 83.1887 21.7035 82.8226C21.3502 82.4566 20.9535 82.1275 20.6028 81.7577C20.2521 81.3865 20.1539 80.782 19.8095 80.4083C19.4652 80.0346 18.4716 80.2425 18.1311 79.865C17.7906 79.4875 18.339 78.3167 18.0036 77.9328C17.6681 77.5489 16.4859 77.8933 16.1568 77.5043C15.8278 77.1153 15.9566 76.336 15.6339 75.9432C15.3112 75.5504 14.4886 75.5516 14.1723 75.1524C13.856 74.7533 14.4759 73.6207 14.1672 73.2164C13.8586 72.8121 12.61 73.1093 12.309 72.6999C12.008 72.2905 12.4658 71.325 12.1725 70.9092C11.8792 70.4935 11.721 69.991 11.4366 69.5701C11.1522 69.1492 10.8984 68.7156 10.6229 68.2883C10.3474 67.8611 9.62939 67.7144 9.36411 67.2795C9.09883 66.8446 8.28003 66.7285 8.02495 66.2872C7.76988 65.846 7.64489 65.3141 7.40129 64.8665C7.15769 64.4188 7.90124 63.4508 7.66912 62.9967C7.437 62.5427 6.42689 62.4777 6.20753 62.0185C5.98816 61.5594 6.44985 60.789 6.24324 60.3235C6.03663 59.858 5.14258 59.6858 4.95127 59.2139C4.75996 58.7421 5.29435 57.9908 5.11707 57.5126C4.93979 57.0343 4.69237 56.5969 4.53039 56.1135C4.36842 55.6301 3.36979 55.4107 3.2244 54.9223C3.07901 54.4338 3.4004 53.8063 3.27159 53.3127C3.14277 52.8192 3.00631 52.3294 2.89407 51.8307C2.78184 51.3321 2.90555 50.7926 2.8099 50.2901C2.71424 49.7876 2.09058 49.3782 2.01278 48.8731C1.93498 48.3681 2.84944 47.7393 2.79077 47.2317C2.7321 46.7241 2.08931 46.2917 2.04849 45.7816C2.00768 45.2714 1.27561 44.8008 1.25265 44.2894C1.2297 43.7779 1.45034 43.2487 1.44524 42.736C1.44013 42.2296 2.39157 41.7284 2.40433 41.2157C2.41708 40.703 1.59828 40.1699 1.62889 39.6572C1.6595 39.1445 1.96304 38.6585 2.01023 38.1471C2.05742 37.6357 1.49625 37.0579 1.56002 36.5491C1.62379 36.0402 2.20664 35.6027 2.28699 35.0951C2.36606 34.5964 2.6339 34.1233 2.72955 33.6195C2.8252 33.1157 2.61349 32.5558 2.72445 32.0533C2.83541 31.5508 2.69511 30.9909 2.82138 30.4922C2.94764 29.9936 3.1568 29.5204 3.29837 29.037C3.43994 28.5537 4.56228 28.3789 4.7217 27.9019C4.88113 27.4249 4.28807 26.6852 4.46535 26.2146C4.64263 25.744 4.70257 25.2121 4.89771 24.7479C5.09284 24.2837 5.10687 23.7187 5.31731 23.2621C5.52775 22.8055 6.32486 22.6193 6.55188 22.1703C6.7789 21.7214 6.91027 21.2189 7.15514 20.7789C7.40001 20.3389 7.47271 19.7892 7.73289 19.3594C7.99307 18.9296 8.25325 18.4819 8.53001 18.0623C8.80677 17.6427 8.94068 17.1032 9.23274 16.6938C9.52481 16.2844 9.73142 15.7819 10.0388 15.3827C10.3462 14.9835 11.1803 14.9912 11.5017 14.6048C11.8231 14.2183 12.0845 13.7745 12.4212 13.4008C12.7579 13.0271 13.5295 13.0692 13.8803 12.7083C14.231 12.3473 14.3407 11.7594 14.7054 11.4125C15.0702 11.0656 15.7398 11.0745 16.1186 10.7429C16.4973 10.4113 16.2372 9.32721 16.6287 9.01091C17.0203 8.69461 17.8021 8.87572 18.2064 8.57473C18.6107 8.27374 19.0979 8.11304 19.5136 7.82863C19.9294 7.54422 19.8682 6.52773 20.2954 6.26118C20.7227 5.99462 21.655 6.57492 22.0925 6.32622C22.5299 6.07752 22.7506 5.44876 23.1982 5.21919C23.6459 4.98962 24.2695 5.14394 24.7274 4.9335C25.1853 4.72306 25.6215 4.51262 26.0883 4.32131C26.555 4.13001 27.0614 4.1096 27.5358 3.9387C28.0103 3.7678 28.2462 2.92859 28.7283 2.7781C29.2104 2.6276 29.565 1.99246 30.0534 1.86237C30.5419 1.73228 31.1477 2.03455 31.6413 1.92614C32.1349 1.81773 32.6259 1.59454 33.1233 1.50526C33.6207 1.41598 34.1729 1.54607 34.6729 1.47465C35.1728 1.40323 35.6575 1.04485 36.16 0.992555C36.6689 0.938989 37.1816 0.743855 37.6866 0.710695C38.1917 0.677535 38.7528 1.69019 39.2592 1.67744C39.7655 1.66468 40.2603 1.57031 40.7667 1.57923C41.273 1.58816 41.815 0.839509 42.3201 0.868843C42.8251 0.898177 43.3812 0.666057 43.885 0.717072C44.3888 0.768087 44.7663 1.93507 45.2675 2.00776C45.7687 2.08046 46.4421 1.17366 46.9408 1.26931C47.4395 1.36497 47.9152 1.67616 48.4088 1.79222C48.9024 1.90828 49.1498 2.9643 49.6383 3.10204C50.1267 3.23979 50.7632 2.8559 51.2452 3.01659C51.7273 3.17729 52.0959 3.63261 52.5704 3.81371C53.0448 3.99482 53.6608 3.81371 54.1276 4.01522C54.5944 4.21673 54.8469 4.86335 55.3048 5.08527C55.7627 5.30719 56.445 5.07124 56.8927 5.31229C57.3403 5.55334 57.5227 6.2446 57.9614 6.50605C58.4002 6.7675 58.7522 7.11951 59.1782 7.39882C59.6041 7.67813 60.5262 7.21772 60.942 7.51361C61.3578 7.8095 61.8743 7.98933 62.2786 8.30179C62.6829 8.61426 63.1242 8.90378 63.5157 9.23155C63.9073 9.55933 64.281 9.93046 64.6585 10.2735C65.036 10.6166 64.8523 11.5553 65.2171 11.9124C65.5819 12.2695 66.5397 12.04 66.8917 12.4098C67.2437 12.7797 67.6875 13.087 68.0268 13.4697C68.366 13.8523 68.1556 14.7093 68.4821 15.1034C68.8086 15.4975 68.8596 16.0919 69.1721 16.4974C69.4846 16.903 70.0049 17.1504 70.3046 17.5649C70.422 17.5955 71.3262 17.4412 71.8517 16.8354C72.1463 16.4962 71.6119 15.3764 71.9371 14.9759C72.2623 14.5754 73.2724 14.7425 73.5581 14.3867C73.9905 13.8485 73.6959 12.8371 73.8502 12.6725C74.2035 12.295 74.5517 11.8907 74.9113 11.5311C75.271 11.1714 76.2964 11.4788 76.6688 11.1332C77.0412 10.7875 77.4034 10.4291 77.7886 10.0975C78.1738 9.76594 78.7107 9.62309 79.1086 9.3068C79.5065 8.9905 79.7425 8.46759 80.1532 8.1666C80.5702 7.86179 80.5447 6.92565 80.9681 6.64252C81.3916 6.35938 81.94 6.22164 82.3749 5.95508C82.8098 5.68853 83.2319 5.35183 83.677 5.1044C84.1222 4.85698 84.83 5.07252 85.2853 4.84422C85.7406 4.61593 85.9523 3.83157 86.4166 3.62368C86.8808 3.41579 87.6537 3.89916 88.1281 3.71168C88.6026 3.5242 88.8602 2.71815 89.3423 2.55235C89.8244 2.38655 90.5973 3.10715 91.087 2.96175C91.5768 2.81636 91.8115 1.71187 92.3063 1.58816C92.8012 1.46445 93.4809 2.11234 93.9822 2.01159C94.4834 1.91083 94.9744 1.7935 95.4795 1.7157C95.9845 1.6379 96.5189 1.8917 97.0278 1.83559C97.5367 1.77947 98.0175 1.64173 98.5276 1.60857C99.0378 1.57541 99.5314 1.54735 100.043 1.53715C100.554 1.52694 101.055 1.21065 101.567 1.22212C102.078 1.2336 102.614 0.829306 103.124 0.862466C103.634 0.895626 104.058 1.86364 104.567 1.91849C105.075 1.97333 105.689 1.17494 106.195 1.25146C106.702 1.32798 107.284 1.06908 107.787 1.16856C108.289 1.26804 108.802 1.43384 109.3 1.55373C109.797 1.67361 110.339 1.72463 110.831 1.86364C111.324 2.00266 111.539 3.06888 112.026 3.22958C112.514 3.39028 113.281 2.75897 113.762 2.9388C114.243 3.11862 114.485 3.91447 114.957 4.11343C115.429 4.31239 115.952 4.39146 116.416 4.60955C116.88 4.82764 117.176 5.36841 117.632 5.60435C118.087 5.8403 119.017 5.21408 119.462 5.46789C119.907 5.72169 120.186 6.29051 120.621 6.56089C121.056 6.83127 121.485 7.13227 121.909 7.4205C122.333 7.70874 122.761 8.00973 123.173 8.31327C123.585 8.61681 124.03 8.8974 124.432 9.2188C124.834 9.5402 124.932 10.2238 125.321 10.5605C125.71 10.8972 126.353 10.9482 126.728 11.299C127.103 11.6497 127.212 12.2733 127.573 12.6381C127.934 13.0029 127.979 13.6482 128.324 14.027C128.67 14.4058 129.66 14.2132 129.99 14.606C130.32 14.9988 130.157 15.7896 130.472 16.1952C130.787 16.6007 131.695 16.565 131.994 16.9821C132.292 17.3991 132.089 18.1669 132.373 18.5954C132.656 19.024 133.392 19.1694 133.657 19.6094C133.922 20.0494 133.957 20.631 134.204 21.0812C134.451 21.5314 134.501 22.0836 134.731 22.5428C134.96 23.0019 135.686 23.2315 135.898 23.6995C136.109 24.1676 135.692 24.9073 135.885 25.3843C136.078 25.8613 137.005 26.0616 137.178 26.5449C137.352 27.0283 136.847 27.7476 137.001 28.2386C137.155 28.7297 137.738 29.0931 137.873 29.5905C138.009 30.0879 137.553 30.7282 137.671 31.2294C137.788 31.7306 137.954 32.2064 138.051 32.7127C138.148 33.219 137.739 33.7878 137.817 34.2967C137.894 34.8005 138.103 35.2673 138.162 35.7787C138.219 36.285 139.043 36.7161 139.082 37.2301C139.121 37.7377 138.54 38.1969 138.561 38.7121C138.51 38.9608 138.739 39.0156 138.771 39.2592L138.769 39.258Z" stroke="#7260F8" stroke-width="1.30681" stroke-miterlimit="10"/>
<path d="M72.0431 112.715C71.9206 112.859 71.7956 113.001 71.6591 113.131C71.2955 113.477 71.1973 114.099 70.8426 114.445C70.7967 114.482 70.5148 114.638 70.4752 114.669C70.2864 114.558 70.4063 113.758 70.0836 113.508C69.78 113.273 69.2518 113.322 68.8296 113.233" stroke="#7260F8" stroke-width="1.30681" stroke-linecap="round" stroke-linejoin="round"/>
<path d="M64.8764 109.931C65.0103 110.042 65.185 110.104 65.3738 110.15L64.8764 109.931ZM64.8764 109.931C64.4733 109.597 64.2489 109.046 63.8446 108.706C63.4428 108.37 63.036 108.041 62.6329 107.699C62.2338 107.36 61.8167 107.039 61.4162 106.696C61.0183 106.356 60.1077 106.607 59.7085 106.263C59.3106 105.92 59.0657 105.397 58.6678 105.051C58.2711 104.707 58.4739 103.675 58.0773 103.328C57.6819 102.982 56.8465 103.138 56.4511 102.791C56.0558 102.444 55.751 101.994 55.3569 101.647C54.9628 101.299 54.8722 100.608 54.4781 100.26C54.084 99.9113 53.4744 99.8055 53.0803 99.4573C52.6862 99.1078 52.3533 98.6921 51.9605 98.3426C51.5664 97.9932 51.3726 97.4192 50.981 97.0711C50.6316 96.7611 49.8663 96.9257 49.5233 96.6208C49.1738 96.3109 49.1649 95.6248 48.8205 95.3199C48.4723 95.0113 48.0566 94.7817 47.7109 94.4756C47.3627 94.1683 46.8105 94.0943 46.4649 93.7882C46.118 93.4808 46.0414 92.8674 45.6945 92.5613C45.2494 92.1697 44.9854 92.4695 44.5403 92.0779C44.1551 91.7399 43.784 91.3841 43.3988 91.0449C43.0137 90.7056 42.2076 90.8446 41.8225 90.5054C41.4373 90.1661 41.7625 89.0234 41.3774 88.6828C40.9935 88.3423 40.2754 88.3793 39.8915 88.0375C39.5076 87.697 38.7819 87.7378 38.3993 87.396C38.0167 87.0529 38.3368 85.9306 37.9555 85.5862C37.5742 85.2418 37.0551 85.0531 36.6763 84.7075C36.2962 84.3618 36.0692 83.8542 35.6917 83.506C35.3142 83.1579 34.8984 82.8569 34.5234 82.5061C34.1472 82.1554 33.8258 81.7537 33.4534 81.4017C33.0797 81.0484 32.6563 80.7538 32.2877 80.3992C31.9165 80.0434 31.3707 79.8737 31.0034 79.5154C30.6361 79.1557 29.7675 79.3011 29.4053 78.9402C29.0418 78.5767 29.0788 77.8127 28.7204 77.4467C28.3595 77.0794 27.63 77.0692 27.2754 76.7006C26.9196 76.3294 26.7602 75.767 26.4107 75.3933C26.0587 75.0171 25.6863 74.66 25.3419 74.2812C24.995 73.9011 24.8879 73.3068 24.5486 72.9229C24.2081 72.5377 23.7719 72.2354 23.4403 71.8477C23.1049 71.4562 22.9251 70.9397 22.5986 70.5443C22.2708 70.1476 22.1598 69.5839 21.841 69.1835C21.5196 68.7804 20.7289 68.7498 20.4189 68.3442C20.1065 67.9349 20.3169 67.1403 20.0146 66.7271C19.7111 66.3113 18.8795 66.2781 18.5862 65.8598C18.2916 65.4376 18.4982 64.6801 18.2151 64.2541C17.9332 63.8281 16.9218 63.8766 16.6565 63.4519C16.3862 63.0182 16.4563 62.3767 16.2025 61.9444C15.9436 61.5044 15.4972 61.1702 15.2562 60.7302C15.01 60.2825 15.0202 59.701 14.7932 59.2533C14.5624 58.798 14.2665 58.3784 14.0535 57.9243C13.8379 57.4627 13.2232 57.1719 13.0255 56.7102C12.8253 56.2408 13.6058 55.3799 13.426 54.9119C13.2436 54.4362 13.1288 53.963 12.9669 53.4873C12.8036 53.0052 12.0639 52.7208 11.921 52.2387C11.7769 51.7515 11.6762 51.2528 11.5537 50.7656C11.43 50.2733 10.9607 49.8524 10.8599 49.3601C10.7579 48.864 10.7961 48.3283 10.7158 47.8309C10.6354 47.331 10.9211 46.7775 10.8625 46.2762C10.8038 45.7737 10.6163 45.2853 10.5806 44.7815C10.5436 44.2777 10.5066 43.7714 10.4926 43.2663C10.4786 42.7625 9.98755 42.2473 9.99521 41.741C10.0029 41.2372 10.3753 40.7296 10.4046 40.2233C10.4339 39.7208 11.013 39.2629 11.064 38.7578C11.1137 38.2579 11.1953 37.7732 11.2655 37.2695C11.3344 36.7721 10.9326 36.202 11.0219 35.7007C11.1099 35.2059 10.8204 34.623 10.9275 34.1256C11.0334 33.6346 11.3446 33.1742 11.4683 32.6806C11.5958 32.1756 12.2463 31.8172 12.3968 31.3223C12.5485 30.8237 12.0333 30.1005 12.208 29.6133C12.384 29.1236 12.9503 28.7703 13.148 28.2933C13.3469 27.8125 13.2168 27.1722 13.4375 26.7054C13.6594 26.2348 14.042 25.8254 14.2856 25.3688C14.5305 24.9097 15.3544 24.7809 15.6197 24.337C15.8875 23.8907 16.3313 23.5846 16.6183 23.1548C16.9078 22.7224 16.6017 21.8845 16.9104 21.4687C17.2203 21.0504 17.6743 20.743 18.0034 20.3425C18.3337 19.9408 18.9739 19.8222 19.3221 19.4396C19.6728 19.0557 19.3846 18.0558 19.7519 17.691C20.1218 17.325 21.2314 17.7522 21.6178 17.4079C22.0068 17.0622 22.3154 16.6681 22.721 16.3442C23.1266 16.0202 23.1967 15.269 23.6189 14.9681C24.0423 14.6658 24.504 14.4171 24.9415 14.1403C25.3802 13.8623 25.9541 13.8228 26.4069 13.5702C26.8596 13.3164 27.2601 12.9823 27.7256 12.7553C28.1924 12.5282 28.5215 11.9862 28.9997 11.7872C29.478 11.5883 29.9601 11.3523 30.4498 11.1802C30.9396 11.0093 31.5403 11.1661 32.0403 11.0246C32.5389 10.883 32.9547 10.3754 33.4623 10.2632C34.0095 10.1433 34.5591 9.95196 35.105 9.86141C35.6585 9.7683 36.2427 9.79254 36.7923 9.73004C37.3497 9.66627 37.9389 9.92007 38.4899 9.88819C39.0498 9.85503 39.6071 9.38951 40.1594 9.38951C40.6529 9.38951 41.1325 10.0718 41.6197 10.0974C42.112 10.1229 42.6617 9.48899 43.1476 9.54129C43.6373 9.59358 44.0467 10.2836 44.5301 10.3626C45.0148 10.4417 45.6116 9.97619 46.0899 10.082C46.5695 10.1892 46.9189 10.8409 47.3895 10.9748C47.8614 11.1087 48.4239 10.9582 48.8881 11.1177C49.3511 11.2771 49.9314 11.1789 50.3867 11.3651C50.8394 11.55 50.8637 12.7004 51.3075 12.9121C51.7488 13.1226 52.4069 12.8751 52.8393 13.1111C53.3009 13.3636 53.7856 13.5792 54.2358 13.8597C54.6822 14.1378 55.288 14.1952 55.7229 14.5C56.1527 14.8023 56.3785 15.3966 56.7955 15.7244C57.2087 16.0483 57.3898 16.6401 57.7903 16.9908C58.1857 17.3364 58.9241 17.3033 59.3067 17.6731C59.6843 18.0379 60.211 18.2764 60.5757 18.6641C60.9354 19.0455 61.2517 19.4906 61.5986 19.8949C61.9404 20.2928 61.994 20.9381 62.323 21.3565C62.647 21.7684 63.0985 22.0885 63.4109 22.5209C63.7055 22.929 64.0167 23.3065 64.3726 23.6534C64.7322 24.0029 65.1952 24.1891 65.6084 24.471C66.0216 24.7528 66.1237 25.643 66.5803 25.8497C67.033 26.055 67.811 25.3956 68.2982 25.5219C69.0124 25.7068 69.6539 25.9632 70.3924 25.9632C70.9255 25.9632 71.4051 26.0014 71.8782 25.9262C72.396 25.8445 72.8998 25.842 73.3589 25.6775C73.8398 25.5053 74.1994 25.1342 74.6318 24.8791C75.0603 24.6266 75.5488 24.4773 75.9454 24.1521C76.3255 23.8422 76.8548 23.6636 77.2195 23.2951C77.5626 22.9481 77.6557 22.3449 77.9975 21.9533C78.3176 21.586 78.8291 21.359 79.1581 20.956C79.468 20.5772 79.9106 20.2864 80.2358 19.8808C80.4628 19.599 80.2282 18.7611 80.3672 18.5927C80.7154 18.2216 81.3939 18.1552 81.7523 17.8058C82.117 17.4512 82.2611 16.8544 82.6361 16.5215C83.0162 16.1835 83.6411 16.1299 84.0326 15.8162C84.4293 15.4973 84.4816 14.713 84.8884 14.4196C85.3004 14.1212 86.1243 14.4107 86.5452 14.1378C86.9711 13.861 87.0579 13.0154 87.494 12.7655C87.9341 12.5129 88.7745 12.9963 89.2235 12.7706C89.6762 12.5435 90.0499 12.1788 90.5116 11.9785C90.9759 11.777 91.6008 12.0359 92.074 11.8638C92.5484 11.6903 92.8672 11.1202 93.3506 10.9748C93.834 10.8294 94.2931 10.619 94.7842 10.5029C95.2752 10.3869 95.8414 10.7185 96.3388 10.6305C96.835 10.5437 97.2979 10.4111 97.8004 10.3524C98.3004 10.295 98.7213 9.27983 99.2276 9.2505C99.7288 9.22116 100.264 9.63949 100.771 9.63949C101.277 9.63949 101.785 10.3384 102.309 10.3703C102.832 10.4022 103.359 10.1318 103.88 10.193C104.401 10.2542 104.926 10.2134 105.443 10.3052C105.959 10.3971 106.425 10.6687 106.937 10.7899C107.447 10.9098 107.949 11.0016 108.454 11.1508C108.956 11.2988 109.5 11.2924 109.994 11.4671C110.488 11.6418 111.017 11.7209 111.503 11.9224C111.987 12.1227 112.424 12.4275 112.898 12.6545C113.372 12.8802 113.976 12.856 114.438 13.1073C114.898 13.3572 115.366 13.6187 115.814 13.8929C116.26 14.1671 116.552 14.6875 116.986 14.9846C117.418 15.2805 118.042 15.3239 118.459 15.644C118.875 15.9629 119.254 16.3493 119.654 16.6898C120.053 17.0291 120.626 17.2025 121.009 17.5635C121.371 17.9065 121.092 18.895 121.435 19.2534C121.78 19.613 122.685 19.4561 123.01 19.8311C123.336 20.2073 123.863 20.4471 124.169 20.8374C124.476 21.2289 124.638 21.7595 124.927 22.1638C125.215 22.5694 124.997 23.3218 125.265 23.7402C125.532 24.1598 126.236 24.3192 126.483 24.7503C126.729 25.1826 126.642 25.8012 126.868 26.245C127.092 26.6889 127.072 27.2398 127.275 27.6939C127.477 28.1479 128.076 28.4323 128.257 28.8965C128.436 29.3595 128.662 29.8148 128.82 30.288C128.977 30.7586 129.26 31.205 129.396 31.6858C129.53 32.1641 129.148 32.7776 129.26 33.2635C129.371 33.7468 129.449 34.2289 129.538 34.72C129.626 35.2084 130.146 35.6306 130.212 36.1254C130.277 36.6165 130.041 37.147 130.084 37.6444C130.126 38.138 130.561 38.6163 130.582 39.1149C130.605 39.6965 129.841 40.3202 129.977 40.8814C130.026 41.5815 131.019 41.5484 131.019 42.2498C131.019 42.9513 130.773 42.9526 130.773 43.654C130.773 44.3555 130.087 44.3479 130.072 45.0493C130.031 45.5633 130.819 46.1398 130.754 46.6512C130.689 47.1626 130.151 47.6116 130.061 48.1192C129.972 48.6268 130.35 49.2377 130.236 49.7402C130.124 50.2414 129.625 50.6623 129.49 51.1597C129.356 51.6558 128.748 52.0065 128.592 52.5001C128.438 52.9899 129.037 53.736 128.861 54.2232C128.686 54.7065 127.92 54.968 127.726 55.4475C127.534 55.9233 127.629 56.5214 127.419 56.9946C127.21 57.4627 126.655 57.77 126.428 58.2355C126.203 58.696 126.194 59.2648 125.952 59.7226C125.714 60.1767 125.266 60.5147 125.011 60.9649C124.758 61.4112 124.41 61.7951 124.144 62.239C123.878 62.6777 123.673 63.147 123.395 63.5832C123.119 64.0156 123.473 64.8663 123.183 65.2961C122.896 65.7208 122.267 65.921 121.969 66.3432C121.673 66.7615 121.654 67.3903 121.345 67.806C121.041 68.218 120.469 68.4386 120.153 68.8493C119.839 69.2562 119.784 69.8747 119.462 70.2777C119.14 70.6782 118.453 70.7866 118.122 71.1845C117.795 71.5799 117.297 71.8312 116.961 72.224C116.626 72.6142 116.894 73.5338 116.551 73.9215C116.211 74.3067 115.726 74.572 115.378 74.9546C115.032 75.3346 114.193 75.2619 113.84 75.6407C113.489 76.0157 113.252 76.4978 112.895 76.8715C112.539 77.2426 112.289 77.7171 111.928 78.0857C111.568 78.453 111.28 78.8942 110.915 79.259C110.552 79.6225 110.26 80.0625 109.891 80.4247C109.524 80.7844 108.996 80.9821 108.623 81.3392C108.252 81.695 107.959 82.1363 107.584 82.4896C107.21 82.8428 106.917 83.2854 106.538 83.6374C106.161 83.9881 105.304 83.816 104.922 84.1641C104.542 84.511 104.617 85.3605 104.235 85.7061C103.852 86.0504 103.394 86.3132 103.009 86.6562C102.624 86.9993 101.878 86.9317 101.491 87.2723C101.105 87.6128 101.291 88.6089 100.903 88.9468C100.514 89.2848 99.6064 89.0246 99.2161 89.3613C98.8259 89.698 98.9598 90.6457 98.5682 90.9798C98.1767 91.3152 97.1666 90.925 96.775 91.2578C96.3822 91.592 95.9703 91.9006 95.5762 92.2322C95.1821 92.5651 95.3211 93.5319 94.927 93.8622C94.5316 94.1938 93.8149 94.1415 93.4208 94.4705C93.0241 94.8009 92.8494 95.3965 92.454 95.7255C92.0574 96.0558 91.9184 96.6961 91.5217 97.0239C91.1238 97.3529 90.5856 97.5123 90.1902 97.8401C89.7923 98.1692 89.3038 98.3885 88.9085 98.7163C88.522 99.0351 87.957 99.1359 87.5744 99.4535C87.188 99.7736 86.9967 100.325 86.6128 100.642C86.2263 100.962 85.53 100.905 85.1473 101.222C84.7622 101.543 84.6589 102.199 84.2763 102.518C83.8911 102.84 83.673 103.357 83.2917 103.676C82.9078 103.999 82.2688 104.014 81.8887 104.336C81.5048 104.66 81.1503 105.013 80.7715 105.336C80.3889 105.661 80.2817 106.302 79.9029 106.625C79.5216 106.951 78.736 106.804 78.361 107.129C77.9809 107.457 77.9248 108.152 77.5511 108.479C77.1736 108.81 76.4084 108.696 76.036 109.027C75.661 109.359 75.2121 109.611 74.8435 109.944C74.4762 110.275 74.5297 111.067 74.1803 111.41" stroke="#7260F8" stroke-width="1.30681" stroke-linecap="round" stroke-linejoin="round" stroke-dasharray="4.81 4.81"/>
<path d="M70.2611 108.163C69.8593 107.839 69.3339 107.733 68.9296 107.403C68.5253 107.072 68.4526 106.353 68.0496 106.019C67.6465 105.685 66.7104 106.003 66.3112 105.668C65.9146 105.335 65.8253 104.634 65.4274 104.296C65.0294 103.958 64.5129 103.768 64.1163 103.43C63.7196 103.092 63.4633 102.596 63.0692 102.255C62.6751 101.915 62.1126 101.772 61.7198 101.43C61.327 101.088 61.3551 100.268 60.9622 99.9249C60.5694 99.5819 59.7761 99.7017 59.3859 99.3587C58.9956 99.0156 58.6283 98.6444 58.2393 98.3001C57.8503 97.9557 57.8261 97.1969 57.4371 96.8525C57.0481 96.5082 56.4614 96.3845 56.0724 96.0401C55.6834 95.6958 55.2753 95.3705 54.8876 95.0262C54.4999 94.6818 53.755 94.7341 53.3673 94.3898C53.0166 94.0786 53.1913 93.182 52.8482 92.8772C52.5052 92.5723 51.6353 92.8402 51.2897 92.5341C50.9441 92.228 50.7643 91.7229 50.4174 91.4168C50.0704 91.1107 50.0526 90.4259 49.7057 90.1185C49.3588 89.8111 48.7045 89.8507 48.3563 89.5433C47.9112 89.1517 48.2964 88.713 47.8513 88.3215C47.4636 87.9809 46.655 88.1174 46.266 87.7743C45.877 87.4313 45.8145 86.7221 45.4268 86.3803C45.039 86.0385 44.3095 86.0832 43.9218 85.7401C43.5341 85.397 43.3989 84.7695 43.0125 84.4252C42.626 84.0808 42.4041 83.5541 42.0189 83.2085C41.6338 82.8628 40.7053 83.1204 40.3214 82.7735C39.9375 82.4266 40.0995 81.4778 39.7169 81.1296C39.3342 80.7814 38.8177 80.5799 38.4376 80.2291C38.0576 79.8784 37.4135 79.8095 37.036 79.4563C36.6572 79.1017 36.4761 78.538 36.1024 78.1821C35.7287 77.8263 34.9648 77.8684 34.5936 77.51C34.2225 77.1516 34.2314 76.3928 33.8641 76.0306C33.4968 75.6684 33.4152 75.0154 33.0517 74.6493C32.6882 74.2833 32.2087 74.0308 31.849 73.6609C31.4893 73.291 31.2304 72.823 30.8759 72.4493C30.5213 72.0756 29.8989 71.9481 29.5482 71.5693C29.1962 71.1879 28.8569 70.7964 28.5126 70.4125C28.1682 70.0286 28.1108 69.3884 27.7729 68.9994C27.4349 68.6104 27.0038 68.3005 26.6735 67.9051C26.3432 67.5097 25.7412 67.3312 25.4185 66.9307C25.0958 66.5302 24.93 65.9958 24.615 65.589C24.3 65.1821 24.05 64.7205 23.7452 64.306C23.4404 63.8914 22.8486 63.6746 22.5527 63.2525C22.2568 62.8303 22.4137 62.097 22.1293 61.6672C21.8436 61.2361 21.3156 60.9772 21.049 60.5499C20.7761 60.1112 20.5822 59.638 20.3297 59.2019C20.0772 58.7657 19.9139 58.267 19.6754 57.8232C19.4306 57.3678 18.6921 57.174 18.4702 56.7225C18.2483 56.271 17.9562 55.817 17.7509 55.3566C17.5455 54.8961 17.7458 54.2393 17.5608 53.7713C17.3759 53.3032 17.6068 52.6744 17.4422 52.1974C17.2739 51.7115 16.9142 51.311 16.7701 50.8264C16.626 50.3417 15.737 50.0408 15.6159 49.5485C15.4947 49.0562 15.5751 48.4912 15.4794 47.9925C15.3799 47.476 15.4845 46.9161 15.4131 46.3983C15.3404 45.8779 15.4679 45.3359 15.4233 44.8129C15.3787 44.2913 15.7511 43.7595 15.7332 43.2327C15.7154 42.706 15.2333 42.2022 15.2435 41.6755C15.2537 41.1488 15.4667 40.6437 15.5036 40.117C15.5406 39.5979 15.0228 39.0176 15.0853 38.4921C15.1478 37.9667 15.7511 37.5267 15.8378 37.005C15.9245 36.4834 15.6733 35.912 15.783 35.3929C15.8901 34.8853 15.9704 34.3573 16.1005 33.8421C16.2255 33.3459 16.5622 32.9047 16.7127 32.4213C16.8632 31.9379 16.8964 31.3997 17.0736 30.9253C17.2522 30.447 17.1553 29.8374 17.3581 29.3731C17.5608 28.9089 17.9384 28.4944 18.1667 28.0416C18.3949 27.5889 19.1933 27.4384 19.4471 26.9996C19.7035 26.5583 19.7418 25.9946 20.0211 25.5712C20.3004 25.1478 20.8093 24.8914 21.1128 24.4846C21.4163 24.0777 21.3908 23.412 21.7186 23.023C22.0464 22.634 22.5476 22.3955 22.8971 22.0269C23.2465 21.6583 23.7758 21.4836 24.1457 21.1367C24.5194 20.7885 24.8879 20.4696 25.2795 20.1457C25.671 19.8218 25.745 19.0897 26.1569 18.7925C26.5689 18.4954 27.2831 18.6484 27.7129 18.3767C28.1427 18.1051 28.1708 17.132 28.6184 16.8909C29.0661 16.6499 29.5877 16.4866 30.0507 16.2762C30.5137 16.0657 31.2738 16.5619 31.7495 16.3833C32.2252 16.2048 32.5543 15.6117 33.0428 15.4663C33.5312 15.3209 33.9763 14.9472 34.475 14.8375C34.9393 14.7355 35.5667 15.5122 36.0284 15.4344C36.4901 15.3566 36.9212 15.1462 37.3854 15.0926C37.8497 15.0391 38.2961 14.7878 38.7629 14.761C39.2297 14.7342 39.7003 14.9357 40.1683 14.9357C40.6912 14.9357 41.2333 14.2254 41.7473 14.2611C42.2612 14.2968 42.6962 15.1589 43.2063 15.2291C43.7165 15.2992 44.3197 14.821 44.8261 14.9281C45.3324 15.0352 45.8043 15.3056 46.3017 15.4497C46.7991 15.5938 47.1868 16.0326 47.674 16.2137C48.1612 16.3948 48.6178 16.5797 49.091 16.7965C49.5641 17.0134 50.2197 16.8361 50.6775 17.086C51.1201 17.3271 51.6277 17.4891 52.0575 17.762C52.4873 18.0349 52.9082 18.3334 53.3214 18.6344C53.7346 18.9354 53.8532 19.596 54.2486 19.9212C54.644 20.2465 54.82 20.7706 55.1949 21.1175C55.5699 21.4644 56.3798 21.3356 56.7356 21.7029C57.0914 22.0703 56.9805 22.8393 57.3172 23.2245C57.6475 23.602 58.6002 23.4668 58.9191 23.8686C59.2379 24.2703 59.4968 24.7154 59.7978 25.1312C60.1001 25.5495 60.2672 26.0444 60.6128 26.4219C60.9584 26.7994 61.1127 27.3873 61.5005 27.724C61.8882 28.0607 62.3346 28.3579 62.758 28.6487C63.1814 28.9395 63.8676 28.775 64.3229 29.0147C64.7782 29.2545 65.2616 29.3157 65.7411 29.5019C66.2207 29.6881 66.5523 30.2238 67.0509 30.3539C67.6006 30.4967 68.0955 31.012 68.6579 31.0834C69.2204 31.1548 69.8287 31.0783 70.3963 31.0783C70.9077 31.0783 71.4548 31.3908 71.9293 31.3436C72.4369 31.2938 72.8642 30.6396 73.3322 30.5401C73.8283 30.4342 74.4495 30.7403 74.9048 30.5847C75.3601 30.4291 75.7963 30.0299 76.2337 29.8195C76.6712 29.6091 77.2515 29.53 77.6647 29.2698C78.0779 29.0096 77.9938 28.0174 78.3815 27.7138C78.7692 27.4103 79.6926 27.7304 80.0548 27.3937C80.4157 27.0583 80.8149 26.719 81.1554 26.3594C81.496 25.9997 81.4475 25.2791 81.7702 24.9054C82.0928 24.5318 82.7433 24.4272 83.0558 24.0458C83.3682 23.6645 83.7317 23.3163 84.0404 22.9337C84.0455 22.9286 83.4192 22.4248 83.4231 22.4197C83.5927 22.2093 83.9256 22.0294 84.0671 21.8547C84.4294 21.4734 84.7839 21.0678 85.1576 20.7145C85.5313 20.3612 86.2123 20.323 86.6064 19.9914C87.0082 19.6534 87.3436 19.2517 87.7568 18.9443C88.1701 18.6369 88.5616 18.2773 88.994 17.9967C89.4263 17.7161 90.0053 17.6702 90.4568 17.4176C90.9083 17.1651 91.1621 16.5134 91.6302 16.2928C92.0982 16.0721 92.7857 16.354 93.2678 16.1678C93.7499 15.9816 94.1363 15.5352 94.6337 15.3834C95.1311 15.2316 95.6285 15.0862 96.1361 14.9715C96.6437 14.8567 97.1603 14.8108 97.6755 14.7342C98.1908 14.6577 98.715 14.798 99.2353 14.7597C99.7557 14.7215 100.252 14.6399 100.775 14.6399C101.298 14.6399 101.787 14.6462 102.3 14.6832C102.813 14.7202 103.366 14.3605 103.876 14.432C104.387 14.5034 104.833 14.937 105.337 15.0429C105.841 15.1487 106.319 15.3031 106.815 15.4408C107.311 15.5785 107.848 15.5581 108.334 15.7265C108.82 15.8948 109.195 16.3246 109.671 16.5236C110.146 16.7226 110.561 17.0006 111.022 17.2289C111.484 17.4572 112.323 16.9738 112.771 17.2289C113.219 17.484 113.492 18.0528 113.923 18.3347C114.354 18.6165 114.865 18.7989 115.278 19.105C115.692 19.4111 115.739 20.1776 116.133 20.5092C116.527 20.8408 117.447 20.5857 117.82 20.939C118.199 21.2961 118.286 21.9682 118.64 22.3457C118.995 22.7233 118.927 23.463 119.258 23.8622C119.588 24.2614 119.805 24.7141 120.111 25.1325C120.417 25.5508 121.314 25.5533 121.593 25.9895C121.872 26.4257 122.227 26.8364 122.48 27.2891C122.733 27.7419 122.362 28.5161 122.586 28.9841C122.811 29.4509 123.34 29.7685 123.537 30.2493C123.733 30.7301 124.335 31.0681 124.503 31.5604C124.672 32.0527 124.408 32.6853 124.547 33.1865C124.684 33.6852 124.66 34.2183 124.769 34.7272C124.877 35.2322 124.628 35.7845 124.707 36.2997C124.786 36.815 125.622 37.2206 125.672 37.7384C125.721 38.2562 125.23 38.8046 125.251 39.325C125.277 40.0073 125.507 40.6858 125.637 41.3566C125.684 42.2341 125.883 42.2277 125.883 43.1065C125.883 43.9852 125.631 43.9827 125.614 44.8614C125.571 45.3677 125.735 45.8843 125.664 46.388C125.592 46.8918 125.819 47.4568 125.72 47.9568C125.622 48.4542 125.388 48.9401 125.265 49.4349C125.141 49.9298 124.548 50.2895 124.399 50.7792C124.249 51.269 124.084 51.7332 123.914 52.2153C123.746 52.6923 123.707 53.2139 123.516 53.6884C123.325 54.1628 122.949 54.5416 122.739 55.0084C122.53 55.4752 123.051 56.2812 122.824 56.7404C122.597 57.1995 122.169 57.5604 121.928 58.0119C121.69 58.457 120.733 58.5029 120.477 58.9468C120.221 59.3906 120.47 60.1176 120.203 60.5538C119.935 60.9899 119.565 61.3509 119.283 61.7781C119.001 62.2054 118.931 62.7678 118.64 63.1874C118.35 63.607 117.843 63.8685 117.542 64.2817C117.245 64.6911 116.795 64.9857 116.485 65.3939C116.175 65.802 116.114 66.3874 115.796 66.7891C115.479 67.1909 115.105 67.5365 114.78 67.9306C114.454 68.3247 114.083 68.6703 113.752 69.0593C113.423 69.4445 113.319 70.0299 112.983 70.4138C112.646 70.7977 112.103 70.9915 111.76 71.369C111.419 71.744 111.376 72.3996 111.028 72.7732C110.679 73.1469 109.913 73.1201 109.561 73.4887C109.21 73.8548 108.898 74.2578 108.541 74.6225C108.183 74.9873 107.529 75.0447 107.168 75.4056C106.807 75.7666 106.909 76.5854 106.545 76.9425C106.182 77.297 106.06 77.9067 105.693 78.2599C105.325 78.6132 104.322 78.2931 103.95 78.6426C103.579 78.992 103.75 79.9154 103.376 80.2623C103.003 80.6092 102.644 80.9714 102.268 81.3145C101.892 81.6576 101.319 81.7838 100.94 82.1244C100.562 82.4649 100.055 82.66 99.6753 82.998C99.2952 83.336 98.9522 83.7148 98.5696 84.0515C98.1869 84.3882 97.9064 84.8384 97.5225 85.1725C97.1386 85.5067 96.6871 85.7618 96.3019 86.0947C95.9168 86.4275 95.4257 86.6354 95.0393 86.9657C94.6528 87.2961 94.5546 87.9669 94.1669 88.296C93.7792 88.625 93.3022 88.8508 92.9132 89.1785C92.5242 89.5063 91.7067 89.3239 91.3164 89.6504C90.9262 89.9769 90.5716 90.3455 90.1813 90.6707C89.7911 90.996 89.5934 91.5558 89.2031 91.8798C88.8129 92.2037 88.8753 93.0799 88.4838 93.4039C88.0923 93.7278 87.6344 93.9753 87.2429 94.2992C86.8513 94.6232 85.9968 94.391 85.6053 94.715C85.1997 95.0504 85.1691 95.836 84.7673 96.1689C84.3656 96.5018 83.8478 96.7059 83.446 97.04C83.0443 97.3742 82.4053 97.4316 82.0036 97.7657C81.5993 98.1024 81.6528 98.9863 81.2524 99.3204C80.8481 99.6571 79.8456 99.2758 79.4451 99.6125C79.0447 99.9492 79.1748 100.922 78.7756 101.259C78.3764 101.596 77.8917 101.839 77.4951 102.177C77.0984 102.515 76.8574 103.046 76.462 103.386C76.0666 103.727 75.2606 103.602 74.8665 103.945C74.4724 104.288 73.8092 104.334 73.4177 104.678C73.0261 105.023 73.0108 105.806 72.6218 106.153C72.2328 106.5 71.4995 106.479 71.1143 106.829C70.7292 107.178 70.6475 107.809 70.2636 108.164L70.2611 108.163Z" fill="#7260F8"/>
<path d="M56.6894 59.4827H45.8359C44.6855 59.4827 43.8603 59.1728 43.3616 58.5529C42.863 57.9331 42.6143 57.2227 42.6143 56.4218C42.6143 55.6208 42.8566 54.95 43.3425 54.3301C43.8284 53.7103 44.6587 53.4004 45.8359 53.4004H67.5442C67.9281 52.5739 68.2278 51.6837 68.4459 50.7272C68.6628 49.7719 68.7724 48.7899 68.7724 47.7836V47.3576C68.7724 46.7901 68.4523 46.5056 67.8133 46.5056H47.6775C46.4238 46.5056 45.5234 46.2149 44.9737 45.6346C44.424 45.053 44.1486 44.3107 44.1486 43.4065C44.1486 42.58 44.4164 41.8696 44.9546 41.2753C45.4915 40.681 46.3983 40.3838 47.6775 40.3838H71.2645C72.1854 40.3838 72.971 40.4425 73.6227 40.5585C74.2745 40.6746 74.805 40.8876 75.2144 41.1975C75.6238 41.5074 75.9235 41.927 76.1161 42.4563C76.3074 42.9856 76.4043 43.6513 76.4043 44.451V46.5822C76.4043 48.1318 76.2755 49.462 76.0205 50.5729C75.7641 51.6837 75.458 52.6262 75.0996 53.4004H75.2909C76.4668 53.4004 77.2984 53.7103 77.7843 54.3301C78.2702 54.95 78.5126 55.6476 78.5126 56.4218C78.5126 57.1959 78.2626 57.9331 77.7652 58.5529C77.2665 59.1728 76.4413 59.4827 75.2909 59.4827H64.4374V63.0474H56.6907V59.4827H56.6894ZM70.0363 76.2196C69.3974 74.67 68.3107 73.5719 66.7765 72.9265C65.2422 72.2812 63.5038 72.1269 61.5601 72.461C60.6393 73.2875 59.559 73.9915 58.3194 74.5718C57.0784 75.1534 55.7814 75.6049 54.4269 75.9275C53.0712 76.2502 51.7167 76.4504 50.361 76.5282C49.0052 76.606 47.7528 76.5665 46.6024 76.4122C45.554 76.2566 44.7289 75.8752 44.1281 75.2694C43.5274 74.6623 43.2775 73.855 43.3808 72.8487C43.4573 71.9713 43.8348 71.2992 44.512 70.8336C45.1893 70.3694 45.9749 70.1883 46.8702 70.2916C47.9696 70.4217 49.0435 70.4217 50.0918 70.2916C51.1402 70.1628 52.0993 69.937 52.9678 69.6131C53.8364 69.2904 54.5723 68.8772 55.173 68.3734C55.7737 67.8696 56.1767 67.3212 56.3808 66.7269C56.7647 65.565 57.3258 64.7704 58.0681 64.3445C58.8091 63.9185 59.7299 63.731 60.8293 63.7833C61.8522 63.8356 62.6952 64.106 63.361 64.597C64.0254 65.088 64.3456 65.8367 64.3201 66.8442C65.8288 66.7664 67.3172 66.8634 68.7877 67.135C70.2583 67.4067 71.6 67.9041 72.8141 68.6259C74.0283 69.3491 75.083 70.3311 75.9784 71.5695C76.8737 72.8092 77.4999 74.3588 77.8583 76.2183H70.0338L70.0363 76.2196Z" fill="white"/>
<path d="M84.3797 59.9089C84.5072 58.7725 84.8019 57.765 85.2623 56.8875C85.7227 56.0101 86.2788 55.2742 86.9305 54.6798C87.5822 54.0855 88.3168 53.634 89.1356 53.3241C89.9531 53.0142 90.7847 52.8599 91.629 52.8599C92.1659 52.8599 92.6391 52.879 93.0485 52.9185C93.4579 52.9568 93.8597 53.0282 94.2563 53.1315C94.6529 53.2348 95.0611 53.3968 95.4832 53.6162C95.9054 53.8355 96.4092 54.1136 96.9984 54.449C97.4588 54.7334 97.8478 54.9859 98.1679 55.204C98.4868 55.4234 98.7814 55.6172 99.0505 55.7856C99.3183 55.9539 99.5874 56.1019 99.8552 56.2307C100.124 56.3608 100.424 56.4628 100.757 56.5406C101.472 56.6949 102.105 56.5865 102.656 56.2116C103.206 55.8379 103.57 55.3277 103.749 54.6811C103.953 53.9325 104.318 53.4095 104.842 53.1124C105.366 52.8152 105.922 52.6928 106.51 52.7438C107.175 52.7961 107.718 53.0537 108.14 53.5192C108.562 53.9847 108.722 54.6556 108.62 55.5331C108.492 56.6694 108.198 57.677 107.737 58.5545C107.277 59.4332 106.721 60.1691 106.069 60.7621C105.417 61.3565 104.681 61.808 103.864 62.1179C103.045 62.4278 102.215 62.5821 101.37 62.5821C100.833 62.5821 100.36 62.563 99.9509 62.5235C99.5415 62.4852 99.1385 62.4138 98.7431 62.3105C98.3465 62.2072 97.9307 62.0528 97.4971 61.8449C97.0621 61.6383 96.5635 61.3552 96.001 60.993C95.5406 60.7354 95.1503 60.4892 94.8315 60.2571C94.5114 60.025 94.218 59.8247 93.9489 59.6564C93.6811 59.4893 93.412 59.3401 93.1442 59.2113C92.8751 59.0825 92.5753 58.9792 92.2425 58.9014C91.5257 58.747 90.8931 58.8567 90.3434 59.2304C89.7937 59.6054 89.429 60.1155 89.2504 60.7609C89.0451 61.5108 88.6816 62.0337 88.1574 62.3296C87.6332 62.6268 87.0771 62.7492 86.4892 62.6982C85.8234 62.6472 85.2814 62.3883 84.8593 61.9227C84.4371 61.4572 84.2777 60.7864 84.3797 59.9089Z" fill="white"/>
<path d="M65.5879 110.322L68.3937 112.937M72.475 112.49L74.0692 111.406" stroke="#7260F8" stroke-width="1.30681" stroke-linecap="round" stroke-linejoin="round" stroke-dasharray="2.61 0.48"/>
</g>
<defs>
<clipPath id="clip0_920_6858">
<rect width="139.868" height="124.255" fill="white" transform="translate(0.543701)"/>
</clipPath>
</defs>
</svg>
