<svg width="140" height="47" viewBox="0 0 140 47" fill="none" xmlns="http://www.w3.org/2000/svg">
<path d="M139.977 0H-0.0234375V46.431H139.977V0Z" fill="black"/>
<path d="M16.3872 26.946C16.2159 27.0229 15.9954 27.1275 15.7282 27.261C15.3276 27.4525 14.9924 27.5571 14.7253 27.576C14.3233 27.6151 13.7412 27.5281 12.9764 27.3177C12.2494 27.1073 11.6105 26.8301 11.0561 26.4861C10.5584 26.1812 10.1968 25.8561 9.96751 25.5121C9.73819 25.1871 9.67141 24.9199 9.76717 24.7095C9.88183 24.4613 10.159 24.3366 10.5988 24.3366C12.2229 24.4323 14.4493 24.4222 17.2768 24.3076C20.9068 24.174 24.271 23.9069 27.3669 23.505C27.7675 23.4483 28.1405 23.3714 28.4845 23.2756C28.6747 23.2177 28.933 23.1232 29.2581 22.9896C29.6601 22.8372 29.9751 22.7515 30.2044 22.7313C30.5673 22.7124 31.0259 22.7981 31.5803 22.9896C32.708 23.4294 33.3002 23.9636 33.3569 24.5949C33.4149 25.0724 33.1944 25.4743 32.6979 25.7982C32.3918 25.9695 32.0956 26.0565 31.8096 26.0565C31.6181 26.0565 31.3119 26.0187 30.8923 25.9418C30.377 25.8271 29.9373 25.7604 29.5744 25.7415C28.9242 25.6659 28.2174 25.6558 27.4538 25.7125C27.8167 25.9418 28.0359 26.19 28.1128 26.4571C28.1707 26.6487 28.1796 26.9826 28.1418 27.4601C28.1607 28.7592 27.9704 29.9536 27.5685 31.0435C27.3013 31.7882 26.9851 32.3716 26.6222 32.7924C25.9922 33.6908 25.6192 34.0726 25.5046 33.939C25.4277 33.8433 25.4857 33.3279 25.6772 32.3918C25.715 32.0868 25.7062 31.7038 25.6482 31.2451C25.6092 30.9591 25.5336 30.4715 25.4189 29.7835C25.2853 29.0389 25.1896 28.4555 25.1329 28.0347C25.0371 27.29 24.9792 26.592 24.9603 25.9418C24.1765 25.9809 23.2404 26.0476 22.1517 26.1421C20.6044 26.2757 19.037 26.4571 17.4507 26.6865H17.365C17.0021 26.7432 16.677 26.8301 16.3897 26.9448L16.3872 26.946ZM25.7591 13.0432C25.5877 12.6803 25.3483 12.2884 25.0422 11.8676C24.6982 11.4858 24.6314 11.1607 24.8418 10.8936C25.0522 10.6265 25.4718 10.5307 26.1031 10.6076C26.6373 10.7034 27.1728 10.9327 27.7083 11.2956C28.2816 11.6786 28.7302 12.1272 29.0553 12.6425C29.2846 13.1011 29.3992 13.4451 29.3992 13.6744C29.4181 13.8458 29.3602 14.0953 29.2266 14.4191L28.9973 15.1927C29.0351 16.0521 29.0351 16.6833 28.9973 17.084C28.9582 17.3713 28.8436 17.7909 28.6533 18.3453L28.3673 19.2336C29.0364 19.9026 29.1309 20.4759 28.6533 20.9535C28.2526 21.3365 27.6793 21.5268 26.9334 21.5268C26.4559 21.5457 25.9972 21.5746 25.5575 21.6124C25.3093 21.6313 24.9842 21.6704 24.5835 21.7271C23.9334 21.804 23.4457 21.8317 23.1219 21.8128C22.6633 21.775 22.0711 21.6414 21.3441 21.4121C20.961 22.0421 20.5893 22.3483 20.2264 22.3294C19.8434 22.2916 19.5385 21.9098 19.3092 21.1828C19.1554 20.6674 19.003 20.0463 18.8505 19.3192C18.7548 18.8997 18.6401 18.3453 18.5065 17.6573L18.3062 16.6833C18.2293 16.4729 18.0958 16.2436 17.9055 15.9954C17.772 15.8618 17.5704 15.6703 17.3032 15.4221C16.8824 15.0201 16.6153 14.7152 16.5006 14.5048C16.3091 14.1419 16.3192 13.7979 16.5296 13.4728C16.701 13.1679 17.0449 13.0142 17.5615 13.0142C18.0202 13.0142 18.5267 13.1289 19.0811 13.3582C19.6153 13.6064 20.0652 13.9025 20.428 14.2465C20.83 14.6484 21.0303 15.039 21.0303 15.4221C21.3743 15.3465 21.6792 15.2494 21.9476 15.136C22.1001 15.0403 22.2727 14.9168 22.4642 14.7631C22.6545 14.6106 22.817 14.5048 22.9518 14.4481C23.1622 14.3725 23.4394 14.3523 23.7834 14.3901C24.1841 14.467 24.5293 14.6194 24.8154 14.8488C25.0636 15.0592 25.2349 15.2973 25.3307 15.5657C25.4063 15.8341 25.3975 16.0722 25.3017 16.2826C25.1682 16.512 24.9477 16.6657 24.6427 16.7413C24.0694 16.895 23.4571 17.0185 22.8082 17.1142C22.158 17.2289 21.6049 17.2957 21.1462 17.3146L21.4612 19.8938C22.5499 19.798 23.4961 19.6645 24.2988 19.4931C25.1014 19.3407 25.7982 19.1302 26.3916 18.8631L26.0766 14.3347C26.0766 13.9327 25.972 13.5031 25.7616 13.0444L25.7591 13.0432ZM20.6863 30.6429C21.2596 31.0058 21.6124 31.4455 21.7473 31.9608C21.8052 32.1334 21.8329 32.3439 21.8329 32.5908C21.8518 32.7446 21.8619 32.9739 21.8619 33.2788C21.843 33.8332 21.8707 34.215 21.9476 34.4254C22.0434 34.7694 22.2727 34.9697 22.6356 35.0277C23.3613 35.0277 24.135 34.942 24.9577 34.7694C25.492 34.6736 26.3148 34.4733 27.4223 34.1671H27.4803C28.0725 34.0524 28.5311 34.1003 28.8562 34.3107C29.2002 34.5212 29.3715 34.845 29.3715 35.2847C29.3715 35.9147 28.836 36.4603 27.7663 36.9189C26.8679 37.3209 25.7881 37.588 24.5268 37.7216C23.7809 37.7972 23.1509 37.7405 22.6356 37.5502C22.0434 37.3209 21.5268 36.8912 21.0883 36.26L20.3146 35.1423C19.9518 34.569 19.6645 34.1293 19.4553 33.8244C19.0723 33.309 18.7006 32.8315 18.3377 32.3918C17.554 31.5702 17.1911 30.9402 17.2491 30.5005C17.2869 30.1187 17.6888 29.9272 18.4524 29.9272L18.6237 29.9562C19.4263 30.0141 20.1143 30.2422 20.6876 30.6441L20.6863 30.6429Z" fill="#FF2424"/>
<path d="M43.8586 17.8292C43.7629 17.6956 43.5915 17.4953 43.3433 17.2269C42.9602 16.8073 42.7032 16.4911 42.5697 16.2807C42.397 15.9367 42.397 15.6318 42.5697 15.3634C42.8368 15.0774 43.2286 14.9337 43.7452 14.9337C44.2618 14.9337 44.7482 15.0484 45.2648 15.2777C45.799 15.507 46.2489 15.8132 46.6117 16.195C47.0124 16.6158 47.2417 17.0745 47.2997 17.5709C47.5668 17.5331 47.8062 17.4751 48.0166 17.3995C48.1313 17.3416 48.2649 17.2559 48.4173 17.1412C48.6277 17.0077 48.7991 16.922 48.9339 16.8829C49.1632 16.864 49.4883 16.922 49.9079 17.0556C50.4623 17.266 50.8731 17.5533 51.1402 17.9149C51.4451 18.3546 51.3695 18.7364 50.9109 19.0615C50.548 19.253 50.1271 19.4055 49.6496 19.5201C49.3434 19.597 48.818 19.6915 48.0733 19.8061L47.5 19.8918L47.7004 22.6147C48.1401 22.6336 48.818 22.529 49.7353 22.2997C50.5379 22.0893 51.3216 21.8511 52.0852 21.5827C52.0272 21.1821 51.9793 20.6655 51.9415 20.0355C51.9025 19.6537 51.8647 19.0892 51.8269 18.3445L51.7122 16.6536C51.6165 16.2529 51.4829 15.851 51.3103 15.4503C51.2145 15.221 51.0709 14.9249 50.8806 14.562C50.6324 14.1223 50.4976 13.8073 50.4799 13.6158C50.422 13.3486 50.5278 13.1193 50.7949 12.9278C51.2347 12.6027 51.9025 12.6695 52.8009 13.1281C53.6224 13.5679 54.2335 14.0933 54.6354 14.7044C54.8458 15.0106 54.9504 15.2966 54.9504 15.5637C54.9693 15.7363 54.9126 16.0324 54.7791 16.452L54.6644 16.8817C54.6833 17.9905 54.6253 18.9355 54.493 19.7192C54.4162 20.1589 54.2826 20.6466 54.0911 21.1808L53.9185 21.8688C54.6064 22.6525 54.7312 23.2548 54.2914 23.6744C53.9084 24.0372 53.2116 24.2187 52.1986 24.2187L50.9663 24.448C50.1259 24.6194 49.5513 24.6874 49.2464 24.6483C48.8256 24.5904 48.2812 24.3623 47.6122 23.9604C47.2493 24.9155 46.8852 25.461 46.5235 25.5946C46.0838 25.766 45.7108 25.2985 45.4059 24.1897L44.8036 21.1518L44.316 18.6873L44.2013 18.4012C44.1434 18.2286 44.0287 18.0384 43.8574 17.8279L43.8586 17.8292ZM58.0752 12.5838C57.5397 11.9916 56.9286 11.4284 56.2407 10.8929C56.0302 10.7404 55.9924 10.5779 56.126 10.4053C56.2785 10.1949 56.5657 10.0714 56.9853 10.0323C57.4818 9.99452 58.0929 10.0903 58.8199 10.3183C59.6805 10.5867 60.6355 11.0454 61.6864 11.6943C62.0493 11.8858 62.2685 12.1239 62.3454 12.4112C62.3832 12.6027 62.3832 12.9177 62.3454 13.3575L62.2887 14.1311L62.203 20.4084C62.5079 20.4084 62.8053 20.3605 63.0913 20.2648C63.2437 20.2068 63.4542 20.0934 63.7213 19.9208C64.0464 19.7305 64.3135 19.6058 64.5239 19.5478C64.8679 19.4521 65.2787 19.4521 65.7562 19.5478C66.5009 19.6247 67.0464 19.9208 67.3904 20.4361C67.7533 20.9515 67.7722 21.487 67.4484 22.0414C67.2758 22.3665 67.0086 22.5479 66.6458 22.5857C66.4164 22.6046 65.9389 22.5479 65.2119 22.4144C64.6575 22.3186 64.2089 22.2518 63.8649 22.214C63.2526 22.1384 62.6515 22.0905 62.0593 22.0704C61.9636 22.4723 61.8111 22.873 61.6007 23.2737C61.4671 23.503 61.2567 23.818 60.9707 24.2199C60.7792 24.4883 60.6456 24.6786 60.5688 24.7932C60.4541 25.0037 60.3873 25.204 60.3684 25.3955C61.4004 26.0457 62.0026 26.5421 62.174 26.8861C62.2887 27.1154 62.203 27.4304 61.9157 27.8324L61.6007 28.3767L60.856 29.8962C61.7544 30.5464 62.0782 31.1386 61.83 31.6728C61.5818 32.1705 60.9127 32.4377 59.8241 32.4755C59.155 32.5145 58.2567 32.6002 57.1302 32.7338C55.8879 32.8673 54.9139 33.0021 54.207 33.1344L54.58 35.1983C55.1344 35.3319 55.7745 35.3709 56.5002 35.313C56.9589 35.255 57.6178 35.1416 58.4784 34.969C59.0706 34.8354 59.4915 34.7485 59.7397 34.7107C60.2172 34.6149 60.6381 34.5671 61.0009 34.5671C61.5742 34.5482 61.956 34.8153 62.1476 35.3697C62.3378 35.9619 62.0896 36.5453 61.4029 37.1186C60.6192 37.4235 59.7687 37.6818 58.8514 37.8922C57.953 38.1026 57.2272 38.2173 56.6728 38.2362C56.0605 38.1971 55.4695 38.0358 54.8962 37.7486C54.3607 37.4625 53.8353 37.0606 53.32 36.5453C53.0907 36.2769 52.9092 35.972 52.7757 35.628C52.719 35.4176 52.6509 35.1026 52.5753 34.6817C52.5174 34.3957 52.4695 34.1853 52.4317 34.0517C52.3737 33.8224 52.3069 33.6221 52.2313 33.4494C52.1356 33.3537 52.002 33.2592 51.8307 33.1634C51.716 33.1055 51.5434 33.0198 51.3141 32.9051C50.8164 32.6569 50.4736 32.4465 50.2821 32.2751C49.957 32.008 49.8134 31.7018 49.8525 31.3578C49.8525 31.0328 50.1108 30.8135 50.6261 30.6989C50.9121 30.6409 51.3619 30.6132 51.973 30.6132L52.2024 30.6422C53.1763 30.6044 54.4187 30.4796 55.9282 30.2692C57.3608 30.0588 58.3738 29.8685 58.966 29.6959C58.966 29.3141 58.9471 28.9701 58.9081 28.664C58.8501 28.3011 58.7833 27.9861 58.7077 27.7177C57.5422 27.8324 56.5582 27.9861 55.7556 28.1763C55.2969 28.291 54.8093 28.4535 54.294 28.664C53.8542 28.8177 53.5291 28.8933 53.3187 28.8933C53.0125 28.8933 52.5451 28.7698 51.9138 28.5203C50.461 27.8513 49.6874 27.2691 49.5916 26.7714C49.4959 26.3317 49.8777 26.1414 50.7382 26.1981C53.3754 26.2372 55.3435 26.1792 56.6426 26.0268C57.7892 25.8932 58.7632 25.6261 59.5671 25.2242C59.6238 24.9759 59.6427 24.6609 59.6238 24.2779C59.6238 24.0297 59.5759 23.5421 59.4801 22.8163C59.3466 21.613 59.2407 20.5621 59.1651 19.6638C59.0505 18.0774 58.9925 16.3676 58.9925 14.533V14.247C58.9925 13.8451 58.6863 13.2919 58.0752 12.5851V12.5838Z" fill="#FF2424"/>
<path d="M78.6682 21.2395C78.4578 21.2962 78.1995 21.3731 77.8946 21.4689C77.417 21.6226 77.063 21.6793 76.8336 21.6415C76.5665 21.6037 76.0789 21.3832 75.372 20.9825C74.5694 20.3714 74.1776 19.8649 74.1965 19.4629C74.2154 19.0623 74.5493 18.8997 75.1994 18.9753C76.1545 19.0144 76.9861 19.0232 77.693 19.0043C78.6682 18.9665 79.6712 18.8518 80.7031 18.6603C80.9513 18.5646 81.2096 18.4701 81.4767 18.3743C81.6292 18.3163 81.8396 18.2307 82.1067 18.116C82.7367 17.8678 83.1677 17.7531 83.397 17.772C83.741 17.7909 84.1416 18.0404 84.6003 18.5179C85.0199 19.0723 85.1257 19.5688 84.9153 20.0085C84.686 20.4672 84.1505 20.6864 83.31 20.6675C82.8703 20.6864 82.4217 20.7154 81.9631 20.7532C81.6771 20.7721 81.2084 20.82 80.5582 20.8968L80.0429 20.9535L79.8992 20.9825C79.4595 21.0594 79.0487 21.145 78.6669 21.2408L78.6682 21.2395ZM77.378 22.8725C76.5942 23.5995 76.2024 24.4878 76.2024 25.5387C76.2024 26.7621 76.7467 27.8319 77.8366 28.7491C78.8874 29.6286 80.063 30.0671 81.3621 30.0671C82.4696 30.0671 83.4159 29.6085 84.1996 28.6912C84.9632 27.8319 85.3462 26.8566 85.3462 25.768C85.3462 24.5067 84.8687 23.4748 83.9123 22.6722C83.053 21.9653 82.0967 21.6112 81.0458 21.6112C79.4985 21.6112 78.2751 22.0321 77.3767 22.8725H77.378ZM78.1529 17.1118C77.8668 16.9014 77.417 16.4049 76.8059 15.6212L76.4909 15.2205C76.2225 14.8186 76.1759 14.5036 76.3473 14.2743C76.5199 14.0449 76.8639 13.9971 77.3792 14.1306C78.3343 14.3599 79.1848 14.5036 79.9307 14.5603C80.5418 14.6182 81.2487 14.6371 82.0513 14.6182C82.6057 14.6573 82.9119 14.9622 82.9686 15.5355C83.0253 16.1088 82.7682 16.5864 82.1949 16.9681C81.8119 17.1597 81.4301 17.2932 81.0483 17.3701C80.7611 17.4469 80.4083 17.5036 79.9874 17.5414H79.8148C79.1268 17.5603 78.5724 17.418 78.1529 17.1118ZM82.2516 24.5634C82.6712 24.9263 82.8816 25.3081 82.8816 25.71C82.8816 26.2254 82.7002 26.6374 82.3373 26.9423C81.9744 27.2674 81.4679 27.4299 80.8178 27.4299C80.2634 27.4299 79.7669 27.2296 79.3272 26.8276C78.9063 26.4648 78.6972 26.083 78.6972 25.681C78.6972 25.1468 78.8975 24.7348 79.2995 24.4488C79.7014 24.1816 80.2545 24.0468 80.9614 24.0468C81.4011 24.0468 81.8308 24.2182 82.2516 24.5622V24.5634ZM90.5059 23.5605C90.3345 23.5227 90.0473 23.408 89.6466 23.2165L89.3606 23.1018C89.3795 24.9931 89.2068 26.6941 88.8452 28.2036C88.6348 29.083 88.3097 30.0381 87.8712 31.0701C87.2979 32.1789 86.9628 32.6942 86.8683 32.6174C86.7914 32.5594 86.8103 32.1398 86.9262 31.3561C86.9842 30.9365 87.0019 30.4968 86.9842 30.0381C86.9653 29.7521 86.9073 29.2834 86.8116 28.6332C86.7158 27.8117 86.6402 27.1426 86.5823 26.6273C86.5054 25.6911 86.4676 24.7071 86.4676 23.6751L86.3819 16.1945C86.4008 15.8127 86.1904 15.3352 85.7519 14.7619C85.5037 14.457 85.0451 13.9782 84.376 13.3293L84.2903 13.2436C84.0988 13.0722 84.061 12.8807 84.1757 12.6703C84.2903 12.48 84.5285 12.3553 84.8926 12.2973C85.3122 12.2217 85.8099 12.2784 86.3832 12.4699C87.09 12.6993 87.8549 13.0999 88.6764 13.6732C89.0204 13.9215 89.2396 14.2176 89.3354 14.5615C89.3732 14.772 89.3732 15.097 89.3354 15.5355L89.3064 16.0798L89.3643 21.0669L89.3933 21.0379C89.8898 21.019 90.2526 21.0001 90.482 20.98C90.9015 20.922 91.2178 20.8363 91.4282 20.7217V13.8421C91.3703 13.3645 91.122 12.8492 90.6823 12.2948C90.2993 11.7983 89.8318 11.3485 89.2774 10.9478C89.067 10.7374 89.0292 10.5283 89.1627 10.3178C89.2774 10.0885 89.5357 9.93607 89.9364 9.85921C90.395 9.78361 90.9293 9.85039 91.5416 10.0595C92.3052 10.3078 93.128 10.7475 94.0062 11.3775C94.3691 11.6837 94.5984 11.9899 94.6941 12.2948C94.7319 12.4863 94.7231 12.7824 94.6652 13.1831L94.6362 13.8711L94.5215 26.97C94.5215 29.9134 94.3212 32.2066 93.9193 33.8496C93.632 34.9962 93.1834 36.0471 92.5723 37.0022C92.0368 38.0341 91.7508 38.4537 91.7117 38.2634C91.6928 38.1488 91.7697 37.7279 91.941 37.0022L91.999 36.8585C92.057 36.4578 92.0746 36.008 92.057 35.5116C92.057 35.2054 92.0179 34.6334 91.9423 33.7917C91.7899 32.3969 91.684 31.1545 91.6273 30.0659C91.5127 28.1355 91.4547 25.9671 91.4547 23.5592C91.1107 23.6361 90.7957 23.6361 90.5084 23.5592L90.5059 23.5605Z" fill="#FF2424"/>
<path d="M120.012 33.2793C117.814 33.3751 115.97 33.5477 114.479 33.7947C113.639 33.9282 112.778 34.1097 111.9 34.339C111.25 34.5305 110.772 34.6074 110.467 34.5683C110.084 34.5103 109.387 34.2634 108.374 33.8236C107.495 33.3839 106.846 32.9832 106.425 32.6203C106.042 32.2953 105.842 32.0092 105.823 31.761C105.784 31.5317 105.881 31.3503 106.11 31.2167C106.3 31.102 106.54 31.0542 106.827 31.0731C107.84 31.2268 109.254 31.3503 111.07 31.446C113.019 31.5229 114.556 31.5128 115.684 31.417C115.588 30.5955 115.34 29.8509 114.939 29.1818C114.691 28.7811 114.289 28.2746 113.736 27.6622L113.277 27.1746C113.01 26.7727 112.952 26.4577 113.106 26.2283C113.258 26.0381 113.554 25.9322 113.994 25.9133C114.434 25.9133 114.911 25.999 115.428 26.1716C115.982 26.3632 116.489 26.6303 116.947 26.9743C117.521 27.3762 117.846 27.758 117.921 28.1209C117.979 28.3892 117.93 28.8277 117.778 29.4388C117.682 29.8017 117.605 30.089 117.548 30.2982C117.472 30.661 117.424 31.034 117.405 31.4158C118.207 31.3969 119.115 31.349 120.128 31.2721C121.255 31.1965 122.315 31.1008 123.309 30.9861C123.271 30.6043 123.223 30.0789 123.166 29.4099C123.126 29.047 123.07 28.5694 122.993 27.9772L122.964 27.6043C122.964 27.2225 122.82 26.7727 122.534 26.2573C122.305 25.8377 122.028 25.4257 121.703 25.025C121.569 24.8348 121.521 24.6521 121.559 24.4807C121.597 24.3081 121.722 24.1846 121.932 24.1078C122.161 23.9931 122.457 23.9553 122.82 23.9931C123.24 24.0498 123.727 24.1934 124.282 24.4228C125.314 25.015 125.935 25.5026 126.145 25.8844C126.279 26.1527 126.26 26.5345 126.087 27.031C126.03 27.2036 125.992 27.3371 125.973 27.4329C125.935 27.5866 125.906 27.7391 125.887 27.8915C125.868 28.2166 125.82 28.5039 125.743 28.7509C125.704 28.9046 125.629 29.1339 125.514 29.4388C125.437 29.687 125.371 29.8786 125.314 30.0121C125.237 30.2805 125.17 30.5564 125.113 30.8437C125.553 30.748 125.945 30.6434 126.289 30.5287C126.479 30.4531 126.709 30.3561 126.977 30.2415C127.321 30.089 127.598 30.0121 127.809 30.0121C128.134 30.0121 128.687 30.1457 129.471 30.4128C130.254 30.7568 130.751 31.0819 130.961 31.3868C131.172 31.7497 131.124 32.2285 130.818 32.8194C130.55 33.2025 130.263 33.4318 129.958 33.5074C129.729 33.5464 129.214 33.5175 128.411 33.4217C127.322 33.2881 126.337 33.2025 125.459 33.1634C123.929 33.1054 122.219 33.1344 120.328 33.2491L120.013 33.2781L120.012 33.2793ZM119.152 13.4444C117.299 13.4444 115.798 14.0567 114.652 15.2789C113.678 16.3499 113.19 17.5532 113.19 18.8901C113.19 20.4185 113.887 21.7377 115.283 22.8452C116.64 23.9162 118.178 24.4505 119.898 24.4505C121.293 24.4505 122.507 23.983 123.538 23.0456C124.646 22.0527 125.2 20.8003 125.2 19.2908C125.2 17.7813 124.617 16.4155 123.452 15.2487C122.248 14.0454 120.814 13.4431 119.152 13.4431V13.4444ZM119.094 15.9946C120.26 15.9946 121.234 16.3777 122.018 17.1412C122.667 17.7914 122.992 18.4315 122.992 19.0615C122.992 19.6537 122.685 20.237 122.074 20.8103C121.347 21.4983 120.45 21.8423 119.38 21.8423C118.215 21.8423 117.26 21.4605 116.514 20.6957C115.884 20.0657 115.587 19.4634 115.626 18.8901C115.626 18.2601 115.913 17.6477 116.485 17.0555C117.173 16.3487 118.042 15.9946 119.093 15.9946H119.094Z" fill="#FF2424"/>
</svg>
