<svg width="141" height="81" viewBox="0 0 141 81" fill="none" xmlns="http://www.w3.org/2000/svg">
<g clip-path="url(#clip0_920_6792)">
<path d="M35.1674 80.489C34.6723 80.489 34.1642 80.9639 33.6648 80.9436C33.1653 80.9233 32.7238 80.1141 32.2258 80.075C31.7278 80.0359 31.1415 80.9914 30.6449 80.9349C30.1484 80.8784 29.6576 80.7091 29.164 80.6352C28.6703 80.5614 28.2374 80.1155 27.7467 80.0243C27.2559 79.9331 26.7985 79.7145 26.3106 79.6059C25.8227 79.4974 25.3942 79.2006 24.9093 79.0761C24.4518 78.9574 24.1044 78.5216 23.6541 78.3856C23.2039 78.2495 22.4757 78.982 22.0327 78.8271C21.5898 78.6722 21.1743 78.4 20.7371 78.2278C20.2999 78.0555 19.7614 78.0844 19.3314 77.8934C18.9014 77.7023 18.5497 77.3099 18.1269 77.1015C17.7042 76.893 17.0904 77.0161 16.6778 76.7902C16.2652 76.5644 16.3897 75.3932 15.9858 75.15C15.5819 74.9068 15.1143 74.7982 14.7206 74.5391C14.3268 74.28 13.5161 74.6231 13.1339 74.348C12.7489 74.0701 12.8705 73.1189 12.4999 72.8251C12.1293 72.5312 11.8803 72.1186 11.5241 71.8074C11.168 71.4961 10.2705 71.7828 9.92735 71.4541C9.58426 71.1255 9.28459 70.7404 8.95597 70.3959C8.62735 70.0513 8.35519 69.6503 8.04394 69.2913C7.73269 68.9323 7.80942 68.262 7.51409 67.8885C7.21877 67.515 7.13625 67.0127 6.8583 66.6262C6.58035 66.2396 5.31509 66.5379 5.05306 66.1397C4.79103 65.7416 5.25573 64.8861 5.01108 64.4764C4.76642 64.0667 4.87355 63.4847 4.64626 63.0663C4.41174 62.6349 4.14537 62.2513 3.93401 61.8054C3.72265 61.3596 2.68323 61.2915 2.49503 60.8355C2.30683 60.3795 2.18089 59.8858 2.01296 59.4197C1.84503 58.9535 1.35716 58.5771 1.2124 58.1037C1.06763 57.6304 1.66696 56.9442 1.54536 56.465C1.42376 55.9858 1.18489 55.5428 1.085 55.0578C0.985113 54.5729 1.53812 53.9909 1.45995 53.5016C1.38177 53.0123 0.184553 52.6895 0.126646 52.1973C0.0687396 51.7051 0.362616 51.1752 0.326424 50.6801C0.290233 50.185 0.197582 49.6971 0.178762 49.2006C0.159943 48.704 -0.0543121 48.2118 -0.0543121 47.7153C-0.0543121 47.0059 0.597138 47.0059 0.597138 46.298C0.597138 45.5901 0.879433 45.5887 0.879433 44.8808C0.879433 44.1728 0.0238619 44.1714 0.0238619 43.4635C0.0238619 42.7556 0.284442 42.7541 0.284442 42.0462C0.284442 41.3383 0.530545 41.3369 0.530545 40.6275C0.530545 39.9181 -0.0340448 39.9181 -0.0340448 39.2102C-0.0340448 38.5023 -0.10498 38.498 -0.10498 37.7886C-0.10498 37.0793 0.236669 37.0793 0.236669 36.3699C0.236669 35.8777 0.91852 35.4072 0.935892 34.9237C0.953264 34.4402 0.766515 33.948 0.802707 33.4645C0.838899 32.9809 1.15015 32.5293 1.20516 32.0472C1.26017 31.5651 0.272861 30.9325 0.348139 30.4533C0.423418 29.9741 1.21529 29.6064 1.31229 29.1316C1.40928 28.6567 1.45416 28.1674 1.57287 27.6969C1.69157 27.2265 1.65538 26.7067 1.79436 26.2406C1.93333 25.7744 2.58479 25.4806 2.74548 25.0217C2.90617 24.5627 2.74258 23.9909 2.92643 23.5407C3.11029 23.0905 3.42009 22.701 3.62711 22.2595C3.83412 21.818 3.44904 21.0724 3.67777 20.6425C3.90361 20.2183 4.78813 20.1647 5.0299 19.755C5.27166 19.3454 5.58869 18.9936 5.84783 18.594C6.10696 18.1945 5.87823 17.4634 6.15618 17.0754C6.43413 16.6874 7.38091 16.8105 7.67478 16.4355C7.96866 16.0606 7.26509 14.859 7.57634 14.4971C7.88759 14.1352 8.33347 13.8558 8.66209 13.5098C8.99071 13.1638 9.67546 13.1508 10.02 12.8207C10.3645 12.4906 10.9118 12.3864 11.2708 12.0723C11.6298 11.7581 11.9628 11.4281 12.3377 11.1313C12.7127 10.8345 12.6924 10.0079 13.0804 9.72705C13.4626 9.45199 13.9504 9.30289 14.3427 9.0452C14.7351 8.78752 15.5805 9.25366 15.9844 9.0119C16.3883 8.77014 16.4592 7.96669 16.8718 7.74085C17.2844 7.51502 17.5667 7.01268 17.9894 6.80421C18.4121 6.59575 18.9666 6.64497 19.398 6.45532C19.8294 6.26568 20.462 6.57548 20.9007 6.40321C21.3393 6.23094 21.5029 5.3189 21.9473 5.164C22.3918 5.0091 22.897 5.00187 23.3487 4.86434C23.8003 4.72681 24.3751 5.03516 24.8311 4.91645C25.3175 4.79051 25.759 4.50532 26.2455 4.39674C26.7319 4.28817 27.143 3.75108 27.6338 3.65843C28.1245 3.56578 28.6949 3.87558 29.1871 3.8003C29.6793 3.72502 30.2338 4.13182 30.7289 4.07536C31.224 4.0189 31.6496 3.19518 32.1461 3.15754C32.6427 3.1199 33.174 3.49484 33.672 3.47602C34.17 3.4572 34.6709 3.13293 35.1689 3.13293C35.6669 3.13293 36.162 3.37034 36.6614 3.38916C37.1609 3.40798 37.6357 3.66856 38.1337 3.7062C38.6317 3.74384 39.1311 3.64251 39.6277 3.69897C40.1242 3.75542 40.6237 3.73516 41.1173 3.81044C41.611 3.88571 42.122 3.84084 42.6128 3.93349C43.1035 4.02614 43.6812 3.72792 44.169 3.83649C44.6569 3.94507 44.9913 4.69351 45.4748 4.81946C45.9815 4.9512 46.5171 4.97002 47.0137 5.12202C47.5102 5.27403 47.8056 6.01378 48.2963 6.18895C48.7871 6.36412 49.3242 6.36267 49.8062 6.561C50.2883 6.75933 51.2018 5.99207 51.6737 6.21212C52.1457 6.43216 52.1616 7.60188 52.6234 7.84364C53.0852 8.0854 53.9451 7.61201 54.3968 7.87404C54.8485 8.13607 55.0584 8.99598 55.497 9.27827C55.8503 8.96413 56.2194 8.50667 56.59 8.21713C56.9606 7.9276 56.965 7.09809 57.3544 6.83316C57.7438 6.56824 58.8484 7.42237 59.2537 7.18205C59.6591 6.94174 59.591 5.86612 60.0123 5.65187C60.4336 5.43761 61.0242 5.57225 61.4585 5.38405C61.8928 5.19585 62.2822 4.90777 62.7267 4.74708C62.7267 4.74708 62.7875 4.85999 62.7889 4.85999C63.2927 4.67904 63.6315 3.93494 64.1439 3.79017C64.6564 3.6454 65.373 4.28093 65.8956 4.17235C66.4182 4.06378 66.922 3.94217 67.4504 3.86979C67.9788 3.79741 68.5058 3.91177 69.0385 3.87558C69.5712 3.83939 70.0765 3.26901 70.6121 3.26901C71.1478 3.26901 71.6646 3.70041 72.1944 3.7366C72.7243 3.7728 73.2903 3.47023 73.8187 3.54117C74.3471 3.61211 74.9218 3.51511 75.443 3.62369C75.9641 3.73226 76.3246 4.49953 76.8385 4.64429C77.3525 4.78906 77.8172 4.99897 78.3195 5.17848C78.3253 5.17993 78.2543 5.39997 78.2601 5.40142C78.816 5.6012 79.7918 4.74852 80.3274 4.99028C80.863 5.23204 81.1989 5.43906 81.7143 5.7228C82.1848 5.47091 82.509 5.46078 82.9911 5.24218C83.4732 5.02358 84.0609 5.00621 84.5575 4.82091C85.054 4.63561 85.4261 3.9856 85.9342 3.83505C86.4424 3.68449 87.2661 4.73115 87.7843 4.61389C88.3026 4.49663 88.6718 3.66856 89.1973 3.58894C89.7749 3.50063 90.393 3.75687 90.9779 3.71199C91.5628 3.66712 92.136 3.25308 92.7194 3.25308C93.2363 3.25308 93.7096 4.14195 94.2265 4.1767C94.7433 4.21144 95.3281 3.41667 95.8406 3.48471C96.3531 3.55275 96.7208 4.40977 97.2275 4.51255C97.2304 4.51255 97.4417 3.54262 97.4446 3.54406C97.9006 3.63672 98.1077 4.75142 98.5535 4.87013C98.9994 4.98884 99.8188 3.88716 100.257 4.03338C100.696 4.17959 100.77 5.35075 101.198 5.52303C101.627 5.6953 102.26 5.82848 102.678 6.02826C103.076 5.70688 103.576 5.26679 103.994 4.97436C104.412 4.68193 104.964 4.6385 105.402 4.37503C105.841 4.11155 105.879 3.14161 106.336 2.90854C106.794 2.67546 107.253 2.40041 107.725 2.19918C108.196 1.99796 108.654 1.69105 109.137 1.52167C109.635 1.34795 110.254 1.48259 110.76 1.34216C111.267 1.20174 111.937 1.78225 112.453 1.67802C112.968 1.57379 113.305 0.399732 113.826 0.328796C114.348 0.25786 114.95 0.805078 115.475 0.770334C116.001 0.73559 116.523 -0.00561523 117.05 -0.00561523C117.577 -0.00561523 118.138 0.0653205 118.657 0.100064C119.177 0.134808 119.734 0.228907 120.251 0.299843C120.768 0.370778 121.275 0.690713 121.787 0.796392C122.3 0.902072 122.867 0.889043 123.371 1.02802C123.875 1.167 124.141 2.08047 124.636 2.25275C124.639 2.25275 124.546 2.57268 124.552 2.57413C124.995 2.72903 125.364 2.9621 125.794 3.14161C126.224 3.32112 126.741 3.24005 127.159 3.44707C127.578 3.65409 128.514 2.91288 128.92 3.14596C129.325 3.37903 129.415 4.16946 129.806 4.42714C130.197 4.68483 130.747 4.73839 131.12 5.01924C131.494 5.30009 131.22 6.36991 131.576 6.67537C131.578 6.67537 132.433 5.71701 132.436 5.71846C132.833 6.05866 132.553 7.14297 132.923 7.50778C133.292 7.87259 133.629 8.23885 133.971 8.62972C134.312 9.02059 135.2 8.97137 135.514 9.3883C135.828 9.80523 136.093 10.2815 136.377 10.7201C136.66 11.1588 136.113 12.0737 136.367 12.5312C136.62 12.9886 137.174 13.2507 137.394 13.727C137.397 13.7327 138.052 13.436 138.053 13.4418C138.279 13.9311 137.898 14.681 138.086 15.1819C138.275 15.6828 139.211 15.9549 139.362 16.4717C139.512 16.9886 139.621 17.5575 139.732 18.0844C139.844 18.6114 139.221 19.2773 139.295 19.8115C139.369 20.3457 140.243 20.8075 140.281 21.3475C140.319 21.8875 140.309 22.4607 140.309 23.0022C140.309 23.7636 140.275 23.7636 140.275 24.5237C140.275 25.2837 140.06 25.2851 140.06 26.0452C140.06 26.8052 139.941 26.8066 139.941 27.5667C139.941 28.3267 140.01 28.3281 140.01 29.0882C140.01 29.8482 139.602 29.8496 139.602 30.6111C139.602 31.3726 139.947 31.3726 139.947 32.1326C139.947 32.8926 139.976 32.8941 139.976 33.6541C139.976 34.4141 139.165 34.4156 139.165 35.177C139.165 35.9385 139.132 35.9385 139.132 36.7C139.132 37.4615 139.986 37.4615 139.986 38.2229C139.986 38.9844 139.289 38.9844 139.289 39.7459C139.289 40.5074 139.641 40.5073 139.641 41.2674C139.641 42.0274 140.048 42.0288 140.048 42.7889C140.048 43.5489 139.142 43.5503 139.142 44.3118C139.142 45.0733 139.693 45.0733 139.693 45.8348C139.693 46.5962 140.255 46.5962 140.255 47.3577C140.255 48.1192 138.996 48.1192 138.996 48.8807C138.996 49.6421 139.628 49.6421 139.628 50.4036C139.628 50.8799 139.45 51.3388 139.41 51.8122C139.369 52.2856 139.566 52.7734 139.488 53.241C139.598 53.768 140.06 54.2443 140.132 54.7799C140.204 55.3155 139.437 55.9366 139.475 56.4766C139.512 57.0165 140.5 57.5276 140.5 58.069C140.5 58.5684 139.977 59.0679 139.947 59.5615C139.916 60.0552 140.225 60.6024 140.164 61.0917C140.103 61.581 139.718 62.0457 139.625 62.5307C139.533 63.0157 138.861 63.366 138.736 63.8452C138.612 64.3244 138.693 64.8441 138.537 65.3146C138.38 65.7851 138.576 66.3858 138.389 66.8448C138.202 67.3037 138.453 67.9928 138.236 68.4372C138.018 68.8816 136.909 68.8686 136.662 69.2986C136.414 69.7285 136.616 70.4364 136.338 70.8476C136.06 71.2587 135.628 71.5699 135.323 71.9623C135.017 72.3546 134.454 72.5196 134.123 72.8902C133.791 73.2608 133.793 73.9427 133.435 74.2901C133.098 74.6202 132.888 75.1631 132.49 75.5004C132.126 75.8102 131.103 75.318 130.689 75.6249C130.302 75.9115 130.111 76.4645 129.68 76.741C129.273 77.0016 128.856 77.2462 128.409 77.4909C127.985 77.724 127.911 78.7127 127.449 78.927C126.987 79.1412 126.423 79.1094 125.948 79.2918C125.473 79.4742 124.93 79.4091 124.444 79.5596C123.957 79.7102 123.461 79.7102 122.967 79.8289C122.473 79.9476 121.957 79.7551 121.456 79.8434C120.955 79.9317 120.518 80.1459 120.014 80.2024C119.51 80.2589 119.07 80.8104 118.563 80.8379C118.057 80.8654 117.559 80.311 117.05 80.311C116.58 80.311 116.086 81.0102 115.623 80.987C115.16 80.9639 114.691 80.6338 114.229 80.586C113.767 80.5382 113.37 79.9476 112.913 79.8738C112.455 79.7999 111.897 80.2111 111.444 80.1097C110.99 80.0084 110.747 79.1022 110.301 78.9733C109.855 78.8445 109.059 79.7913 108.621 79.6364C108.182 79.4814 107.926 79.4482 107.497 79.2657C107.012 79.4467 106.655 79.4453 106.154 79.5828C105.653 79.7203 105.032 79.4438 104.522 79.5365C104.013 79.6291 103.523 80.0793 103.008 80.1257C102.493 80.172 101.929 79.5017 101.411 79.5017C100.656 79.5017 100.656 79.3772 99.8999 79.3772C99.1442 79.3772 99.1442 79.7174 98.3885 79.7174C97.6328 79.7174 97.6328 80.0142 96.8771 80.0142C96.1215 80.0142 96.1215 80.0113 95.3658 80.0113C94.6101 80.0113 94.6101 79.0428 93.8544 79.0428C93.0987 79.0428 93.0987 80.1792 92.343 80.1792C91.5874 80.1792 91.5874 80.1068 90.8302 80.1068C90.0731 80.1068 90.0746 79.4583 89.3174 79.4583C88.8571 79.4583 88.4011 79.6436 87.9436 79.6059C87.4861 79.5683 87.1213 78.9531 86.6682 78.8807C86.2151 78.8083 85.7895 78.8184 85.3421 78.7098C84.8948 78.6013 84.1637 79.4872 83.728 79.3439C83.2922 79.2006 83.023 78.8315 82.5988 78.6534C82.1746 78.8315 81.6361 78.3798 81.1989 78.5231C80.7617 78.6664 80.5475 79.6204 80.0987 79.729C79.6499 79.8376 79.1519 79.8926 78.6973 79.965C78.2428 80.0374 77.7361 79.9346 77.2757 79.9708C76.8154 80.007 76.3318 79.6682 75.8715 79.6682C75.1201 79.6682 75.1201 79.3975 74.3674 79.3975C73.6146 79.3975 73.616 79.6899 72.8632 79.6899C72.1105 79.6899 72.1119 79.2165 71.3591 79.2165C70.6063 79.2165 70.6063 79.7058 69.855 79.7058C69.1036 79.7058 69.1036 79.1702 68.3509 79.1702C67.5981 79.1702 67.5981 79.467 66.8453 79.467C66.0925 79.467 66.0925 80.0837 65.3397 80.0837C64.8359 80.0837 64.3857 79.1094 63.8891 79.0674C63.3926 79.0254 62.7817 79.8853 62.2909 79.7999C61.8002 79.7145 61.2066 79.868 60.7231 79.7406C60.2396 79.6132 60.0876 78.3899 59.6171 78.2205C59.1466 78.0512 58.4372 78.4941 57.9827 78.2857C57.5281 78.0772 57.24 77.5387 56.8057 77.2897C56.3714 77.0407 55.6954 77.1637 55.2828 76.8771C54.8702 76.5905 54.6733 75.5655 54.2868 75.2441C53.8308 75.5119 53.1967 75.9781 52.7291 76.2242C52.2615 76.4703 52.0212 77.1724 51.542 77.3968C51.0628 77.6212 50.4418 77.5257 49.9525 77.7269C49.4631 77.9281 48.7856 77.585 48.2876 77.7645C47.7896 77.944 47.5899 78.9806 47.0832 79.1355C46.5765 79.2904 45.9583 79.0443 45.4444 79.1774C44.9609 79.3019 44.4919 79.4583 44.0083 79.5669C43.5248 79.6754 43.0645 79.9201 42.578 80.0113C42.0916 80.1025 41.4995 79.5567 41.0102 79.632C40.5209 79.7073 40.0938 80.1966 39.6031 80.2531C39.1123 80.3095 38.6042 80.1836 38.1105 80.2227C37.6169 80.2617 37.1203 80.0677 36.6267 80.0866C36.133 80.1054 35.6524 80.4803 35.1587 80.4803L35.1674 80.489Z" fill="#7260F8"/>
<path d="M135.389 53.3462C135.493 52.8728 135.877 52.4197 135.929 51.9289C135.981 51.4382 135.997 50.9286 135.997 50.4349C135.997 49.672 135.969 49.672 135.969 48.9091C135.969 48.1462 135.109 48.1462 135.109 47.3833C135.109 46.6203 135.367 46.6203 135.367 45.8574C135.367 45.0945 136.366 45.0945 136.366 44.3316C136.366 43.5686 135.633 43.5687 135.633 42.8057C135.633 42.0428 135.783 42.0428 135.783 41.2799C135.783 40.517 136.285 40.517 136.285 39.754C136.285 38.9911 135.927 38.9911 135.927 38.2282C135.927 37.4653 136.026 37.4653 136.026 36.7024C136.026 35.9394 136.354 35.9394 136.354 35.1765C136.354 34.4136 135.662 34.4136 135.662 33.6507C135.662 32.8878 136.218 32.8878 136.218 32.1248C136.218 31.3619 136.104 31.3619 136.104 30.599C136.104 29.8361 135.764 29.8361 135.764 29.0732C135.764 28.3102 136.215 28.3102 136.215 27.5459C136.215 26.7815 135.777 26.7829 135.777 26.02C135.777 25.2571 135.8 25.2557 135.8 24.4927C135.8 23.7298 135.101 23.7284 135.101 22.9654C135.101 22.4211 136.253 21.8377 136.211 21.305C136.169 20.7722 135.551 20.2728 135.463 19.7444C135.374 19.216 134.716 18.8222 134.582 18.3025C134.449 17.7828 135.39 16.9272 135.211 16.4205C135.031 15.9139 134.6 15.4593 134.375 14.9685C134.373 14.9627 134.59 14.8542 134.587 14.8484C134.368 14.3721 134.05 13.8987 133.795 13.4485C133.54 12.9983 133.304 12.4684 133.013 12.0414C132.722 11.6143 132.308 11.2075 131.98 10.805C131.651 10.4026 131.07 10.1797 130.707 9.80615C130.344 9.43265 129.44 9.65704 129.045 9.31539C129.039 9.31105 129.439 8.83621 129.433 8.83042C129.077 8.52352 128.369 8.68421 127.993 8.40626C127.616 8.12831 127.418 7.63176 127.021 7.38276C126.625 7.13376 126.216 6.93688 125.801 6.71828C125.385 6.49968 125.119 5.98576 124.689 5.79756C124.259 5.60936 123.77 5.57172 123.325 5.41538C123.318 5.41248 123.383 5.20836 123.376 5.20691C122.858 5.02595 122.396 4.57573 121.869 4.4382C121.342 4.30067 120.653 4.83052 120.116 4.73932C119.579 4.64811 119.111 3.87361 118.567 3.82729C118.023 3.78096 117.433 4.47729 116.886 4.47729C116.339 4.47729 115.743 3.84755 115.195 3.89388C114.648 3.9402 114.22 4.96226 113.677 5.05491C113.134 5.14756 112.527 4.83631 111.993 4.97529C111.459 5.11426 111.02 5.50224 110.498 5.68609C110.039 5.84823 109.487 5.73531 109.047 5.9293C108.607 6.12329 108.21 6.41427 107.786 6.643C107.362 6.87173 107.211 7.52173 106.805 7.78376C106.398 8.04579 105.344 7.38276 104.959 7.67519C104.574 7.96761 104.129 8.26004 103.767 8.58287C103.372 8.9361 103.449 9.80905 103.088 10.1927C103.081 10.1883 103.025 10.1594 103.018 10.155C102.624 9.89591 102.029 10.0016 101.616 9.77286C101.204 9.54412 100.874 9.21261 100.444 9.01717C100.014 8.82174 99.7342 8.28031 99.2898 8.11817C98.8454 7.95603 98.3503 7.95748 97.8942 7.82864C97.4382 7.6998 96.9851 7.6028 96.5204 7.50726C96.5161 7.50726 96.4031 8.02986 96.3988 8.02842C95.9746 7.94156 95.6373 7.48988 95.2088 7.43198C94.7803 7.37407 94.401 6.7371 93.9696 6.70814C93.5382 6.67919 93.0764 6.63721 92.6435 6.63721C92.1557 6.63721 91.6736 7.18877 91.1843 7.22641C90.695 7.26405 90.2824 7.74902 89.7989 7.8243C89.3545 7.89234 88.9013 7.7577 88.4641 7.85759C88.0269 7.95748 87.445 7.50726 87.015 7.63755C86.5851 7.76784 86.42 8.65236 85.9988 8.8116C85.5775 8.97085 85.0143 8.72764 84.6047 8.91584C84.195 9.10403 83.9981 9.66573 83.6 9.87998C83.0021 10.2028 82.2059 10.4431 81.6471 10.8282C81.1925 10.5039 80.9044 9.53833 80.4223 9.25604C79.9403 8.97374 79.5147 8.48877 79.008 8.25136C78.5013 8.01394 77.6645 8.53655 77.1361 8.34546C77.1303 8.34401 77.1883 8.16884 77.1839 8.16739C76.6584 7.97775 76.2371 7.38131 75.6986 7.23799C75.1601 7.09467 74.4058 7.94156 73.8557 7.84746C73.3056 7.75336 72.8988 6.5156 72.34 6.46928C71.7812 6.42295 71.1732 6.50692 70.6129 6.50692C70.0527 6.50692 69.5011 7.141 68.9467 7.18877C68.3922 7.23654 67.832 7.24957 67.2833 7.34512C66.7346 7.44066 66.1165 7.28287 65.5765 7.42474C65.0365 7.56661 64.5241 7.8547 63.9971 8.04434C63.9913 8.04579 64.1202 8.41784 64.1158 8.41929C63.6511 8.58722 63.2342 8.81305 62.7883 9.01717C62.3424 9.22129 61.7445 9.11417 61.3146 9.35303C60.8846 9.5919 60.6979 10.2086 60.2882 10.4822C59.8785 10.7558 59.5615 11.0989 59.1735 11.4044C58.7855 11.7098 58.3642 11.9212 58.0023 12.2571C57.6824 12.5538 57.1496 12.6161 56.8529 12.9331C56.5561 13.2502 56.281 14.0768 56.0074 14.4155C55.6281 14.1072 55.3487 13.117 54.9521 12.8289C54.5699 12.5524 53.7664 12.8998 53.3741 12.6421C52.9818 12.3844 52.9514 11.5535 52.5461 11.3146C52.1407 11.0758 51.4299 11.3957 51.013 11.1756C50.5961 10.9556 50.4498 10.2115 50.0242 10.0103C49.5986 9.80905 49.0311 9.93355 48.5954 9.75259C48.1596 9.57163 47.6196 9.71205 47.1767 9.55281C46.7337 9.39357 46.6497 8.15871 46.198 8.01973C45.7464 7.88075 45.1253 8.29479 44.6693 8.17608C44.1568 8.04289 43.6299 7.98064 43.1203 7.86917C42.6107 7.7577 42.0331 7.96327 41.5177 7.87207C41.0024 7.78087 40.5406 7.32775 40.0223 7.25681C39.504 7.18587 39.0075 6.75447 38.4863 6.7067C37.9652 6.65892 37.389 7.19601 36.8664 7.1714C36.3438 7.14679 35.8197 7.36249 35.2957 7.36249C34.7716 7.36249 34.2548 7.30603 33.7235 7.33064C33.1922 7.35525 32.6464 6.98754 32.118 7.03532C31.5896 7.08309 31.0887 7.32485 30.5618 7.39579C30.0348 7.46672 29.5195 7.53476 28.9954 7.62741C28.4713 7.72006 27.9965 7.98209 27.4768 8.09501C26.9571 8.20793 26.2564 7.55648 25.741 7.69111C25.2836 7.80982 25.0939 8.87385 24.6452 9.01283C24.1964 9.15181 23.7013 9.11561 23.2597 9.27631C22.8182 9.437 22.355 9.52675 21.9207 9.70626C21.4864 9.88577 21.0014 9.94947 20.5758 10.1507C20.1502 10.3519 19.8215 10.737 19.4046 10.957C18.9877 11.1771 18.4955 11.2495 18.0901 11.4898C17.6848 11.7301 17.1491 11.7677 16.7554 12.0254C16.3616 12.2831 16.185 12.8578 15.8028 13.1343C15.3758 13.4441 14.7938 13.5513 14.3855 13.8842C13.9773 14.2172 13.4533 14.4387 13.0667 14.7963C12.6802 15.1538 12.851 16.0746 12.4848 16.4538C12.1185 16.8331 11.4207 16.891 11.0776 17.292C10.7345 17.693 10.7012 18.3271 10.3813 18.7484C10.0614 19.1697 9.43887 19.355 9.1421 19.7936C8.84532 20.2323 9.12038 21.0068 8.84822 21.4613C8.57606 21.9159 7.65245 21.9796 7.40345 22.4486C7.18051 22.8699 7.63942 23.6169 7.43964 24.0526C7.23986 24.4884 6.2236 24.5651 6.04843 25.0124C5.87326 25.4598 5.88485 25.9809 5.73284 26.437C5.58084 26.893 4.94241 27.2158 4.81502 27.6805C4.68762 28.1452 5.03796 28.7387 4.93518 29.2092C4.83239 29.6797 4.8295 30.1647 4.74843 30.641C4.66736 31.1173 4.11869 31.5255 4.05934 32.0047C3.99998 32.4839 4.02025 32.9804 3.98116 33.4625C3.94208 33.9446 4.98295 34.4744 4.96413 34.9565C4.94531 35.4386 4.46179 35.8859 4.46179 36.3694C4.46179 37.0802 3.71045 37.0802 3.71045 37.791C3.71045 38.5018 4.05789 38.5018 4.05789 39.2126C4.05789 39.9234 4.18673 39.9234 4.18673 40.6342C4.18673 41.345 3.99709 41.345 3.99709 42.0558C3.99709 42.7666 4.04052 42.7666 4.04052 43.4774C4.04052 44.1882 4.23161 44.1883 4.23161 44.8991C4.23161 45.6099 4.359 45.6099 4.359 46.3221C4.359 47.0344 4.24898 47.0329 4.24898 47.7452C4.24898 48.2316 4.58339 48.7035 4.60221 49.1813C4.62103 49.659 4.65867 50.1382 4.69776 50.613C4.73685 51.0878 4.4835 51.6046 4.54286 52.078C4.60221 52.5514 5.03362 52.977 5.11469 53.4475C5.19576 53.918 5.22037 54.4001 5.32605 54.8662C5.43173 55.3324 5.81391 55.7218 5.94275 56.1822C6.07159 56.6425 5.27103 57.3997 5.42449 57.8528C5.57794 58.3059 6.54209 58.4738 6.72015 58.9197C6.89821 59.3656 7.33396 59.6754 7.53663 60.1097C7.73931 60.544 7.75813 61.0434 7.98686 61.4662C8.2373 61.9309 7.92316 62.7083 8.19387 63.1527C8.46459 63.5971 9.23041 63.7318 9.52428 64.1617C9.81816 64.5917 9.795 65.2518 10.112 65.6658C10.4291 66.0799 10.5521 66.6763 10.8923 67.0715C11.2325 67.4667 11.9506 67.5348 12.3139 67.9097C12.6773 68.2847 13.0899 68.6017 13.475 68.9564C13.86 69.3111 14.3436 69.5297 14.7489 69.8612C15.1543 70.1927 15.2165 70.9629 15.6407 71.2712C16.0229 71.5477 16.4065 71.8416 16.7988 72.0993C17.1911 72.357 17.8527 72.1905 18.2581 72.4308C18.6634 72.6711 18.9153 73.1792 19.3308 73.3993C19.7463 73.6193 20.3601 73.4297 20.7871 73.6309C21.2142 73.8321 21.2721 74.873 21.7078 75.054C22.1436 75.2349 22.9948 74.3374 23.4378 74.4966C23.8808 74.6559 24.221 75.0554 24.6727 75.1944C25.1243 75.3334 25.3676 76.2034 25.8236 76.3221C26.336 76.4553 27.0628 75.6779 27.5738 75.7894C28.0848 75.9008 28.4989 76.5031 29.0142 76.5943C29.5296 76.6855 30.1289 76.2353 30.6457 76.3047C31.1626 76.3742 31.6331 76.8505 32.1542 76.8983C32.6754 76.9461 33.1777 77.5136 33.7003 77.5382C34.2229 77.5628 34.7759 76.6884 35.2985 76.6884C35.8212 76.6884 36.3582 77.3587 36.8866 77.334C37.415 77.3094 37.9116 76.92 38.4385 76.8722C38.9655 76.8245 39.5315 77.1719 40.057 77.101C40.5825 77.03 41.0588 76.6782 41.58 76.587C42.1011 76.4958 42.6657 76.6406 43.1825 76.5262C43.6994 76.4119 44.2451 76.4017 44.7576 76.2686C45.2151 76.1498 45.661 75.9385 46.1097 75.7995C46.5585 75.6605 46.7366 74.7181 47.1781 74.5589C47.6196 74.3996 48.2088 74.6472 48.6431 74.4677C49.0774 74.2881 49.3409 73.7482 49.7665 73.5469C50.1921 73.3457 50.7596 73.4586 51.1766 73.2386C51.5935 73.0185 51.8092 72.4699 52.216 72.231C52.6228 71.9921 53.2815 72.1803 53.6752 71.9227C54.069 71.665 54.5974 71.5897 54.9796 71.3132L55.3082 70.7066C55.6252 71.0989 55.7758 71.5665 56.1334 71.9198C56.491 72.273 56.3795 73.1503 56.7747 73.463C57.1699 73.7757 57.7012 73.9378 58.1297 74.2056C58.5582 74.4734 59.0823 74.5733 59.5383 74.7919C59.9943 75.0105 60.4923 75.0887 60.97 75.2552C61.4478 75.4217 61.9371 75.4376 62.4322 75.5491C62.9273 75.6605 63.3601 75.9848 63.8654 76.0398C64.3706 76.0948 64.8614 75.9935 65.3709 75.9935C66.1194 75.9935 66.1194 75.8574 66.8693 75.8574C67.6192 75.8574 67.6177 76.6334 68.3676 76.6334C69.1175 76.6334 69.1175 75.8878 69.8659 75.8878C70.6144 75.8878 70.6158 76.0094 71.3643 76.0094C72.1127 76.0094 72.1142 76.6073 72.8626 76.6073C73.6111 76.6073 73.6125 75.649 74.3624 75.649C75.1123 75.649 75.1123 76.5176 75.8622 76.5176C76.3341 76.5176 76.7496 75.6113 77.21 75.565C77.6703 75.5187 78.303 76.4741 78.7561 76.38C79.2092 76.2859 79.7333 76.1803 80.1748 76.0384C80.6163 75.8965 80.7481 74.8745 81.1737 74.6863C81.5993 74.4981 82.1581 74.8064 82.5634 74.5748C82.9688 74.8064 83.4567 74.6515 83.8837 74.8397C84.3108 75.0279 84.8667 74.7644 85.3126 74.9078C85.7585 75.0511 86.0972 75.3913 86.5547 75.4868C87.0121 75.5824 87.4175 75.8039 87.8836 75.8531C88.3498 75.9023 88.7899 76.2338 89.2604 76.2338C90.0131 76.2338 90.0131 75.9023 90.7659 75.9023C91.5187 75.9023 91.5187 76.4394 92.2715 76.4394C93.0243 76.4394 93.0243 75.9588 93.7771 75.9588C94.5299 75.9588 94.5299 75.6765 95.2827 75.6765C96.0354 75.6765 96.0354 76.1137 96.7897 76.1137C97.5439 76.1137 97.5425 76.0688 98.2952 76.0688C99.048 76.0688 99.0495 75.6099 99.8023 75.6099C100.555 75.6099 100.557 76.2961 101.309 76.2961C101.843 76.2961 102.33 75.7329 102.853 75.6707C103.375 75.6084 104.012 76.1527 104.526 76.0297C105.04 75.9066 105.625 75.856 106.121 75.6736C106.618 75.4912 106.962 74.598 107.436 74.3576C107.835 74.5704 108.136 75.3826 108.577 75.5751C108.992 75.7575 109.493 75.8169 109.945 75.9747C110.373 76.1252 110.942 75.8661 111.404 75.9906C111.866 76.1151 112.27 76.2758 112.74 76.367C113.211 76.4582 113.558 77.1574 114.033 77.2168C114.508 77.2761 115.02 76.6536 115.499 76.6826C115.979 76.7115 116.41 77.3311 116.889 77.3311C117.402 77.3311 117.901 76.9026 118.386 76.8708C118.898 76.8375 119.334 76.3424 119.816 76.2772C120.324 76.2078 120.828 76.3366 121.303 76.2367C121.805 76.131 122.406 76.4727 122.874 76.3352C123.366 76.1904 123.87 76.0572 124.324 75.8835C124.805 75.6996 125.319 75.565 125.756 75.3551C126.221 75.1321 126.247 74.1304 126.665 73.8871C127.111 73.6266 127.498 73.3805 127.891 73.104C128.318 72.8043 129.084 73.0113 129.452 72.7058C129.857 72.3685 129.909 71.6939 130.245 71.3639C130.603 71.0135 131.191 70.8992 131.515 70.5228C131.839 70.1464 131.894 69.5659 132.187 69.1634C132.479 68.761 133.497 68.8247 133.756 68.399C134.015 67.9734 134.096 67.4045 134.319 66.9572C134.542 66.5098 133.883 65.6774 134.07 65.2142C134.257 64.7509 134.826 64.457 134.975 63.9808C135.124 63.5045 135.794 63.1599 135.906 62.6721C136.017 62.1842 135.924 61.6384 135.998 61.1433C136.071 60.654 135.687 60.1082 135.725 59.6074C135.762 59.1065 135.586 58.6316 135.586 58.1293C135.586 57.5893 135.451 57.0942 135.409 56.5644C135.367 56.0345 136.421 55.357 136.336 54.8315C136.25 54.306 135.521 53.8717 135.392 53.3534L135.389 53.3462Z" stroke="white" stroke-width="1.00161" stroke-miterlimit="10"/>
<path d="M18.1104 36.3597C18.1104 35.9181 18.1553 35.5026 18.1785 35.0814C18.2017 34.6601 18.1018 34.2113 18.1524 33.7944C18.206 33.3557 18.4434 32.9736 18.5245 32.5595C18.6056 32.1455 18.4202 31.6504 18.5375 31.2465C18.6548 30.8426 19.0109 30.4995 19.1658 30.1072C19.3207 29.7149 19.3207 29.2371 19.519 28.8622C19.7246 28.4742 19.8274 28.0312 20.0561 27.6737C20.2848 27.3161 20.392 26.8268 20.6511 26.4895C20.9102 26.1522 21.1838 25.7656 21.4748 25.4529C21.7658 25.1402 22.3767 25.12 22.6981 24.8348C23.0195 24.5496 23.4683 24.4439 23.8172 24.1906C24.1574 23.9445 24.3238 23.458 24.6785 23.2394C25.0332 23.0208 25.3662 22.7443 25.7368 22.5533C26.1074 22.3622 26.6806 22.6242 27.0672 22.4606C27.4537 22.297 27.7027 21.828 28.1008 21.6933C28.4989 21.5587 28.8131 21.1345 29.2198 21.0289C29.6151 20.9261 30.1348 21.3531 30.5256 21.2692C30.9165 21.1852 31.3262 21.1924 31.7214 21.1287C32.1166 21.0651 32.4279 20.279 32.8274 20.2355C33.227 20.1921 33.7018 20.9102 34.1028 20.8884C34.5038 20.8667 34.8947 20.2992 35.2972 20.2992C35.6996 20.2992 36.0746 20.8913 36.4785 20.9159C36.8824 20.9406 37.3326 20.2848 37.735 20.3311C38.1375 20.3774 38.5414 20.4382 38.9424 20.5048C39.3434 20.5714 39.7502 20.6163 40.1468 20.7002C40.5435 20.7842 40.8287 21.3083 41.221 21.411C41.6278 21.5167 42.1417 21.2822 42.534 21.4154C42.9264 21.5486 43.1884 22.0668 43.572 22.229C43.9557 22.3911 44.3074 22.6054 44.678 22.7965C45.0486 22.9876 45.4294 23.1439 45.7855 23.3639C46.1416 23.584 46.5296 23.7418 46.8698 23.9879C47.2201 24.2412 47.3287 24.7667 47.653 25.0548C47.9773 25.3429 48.8227 25.0939 49.118 25.4124C49.4134 25.7309 49.5046 26.2463 49.7709 26.5922C50.0373 26.9382 49.8954 27.5463 50.1329 27.914C50.3703 28.2817 50.9942 28.3931 51.2027 28.7811C51.4039 29.1546 51.3909 29.6439 51.5559 30.0493C51.7209 30.4546 52.2812 30.7181 52.4057 31.1394C52.5302 31.5606 52.1784 32.0876 52.2653 32.519C52.3521 32.9504 52.2595 33.3717 52.3145 33.8089C52.3695 34.2461 52.2233 34.6514 52.2479 35.0915C52.2725 35.5316 53.1136 35.9196 53.1136 36.3611C53.1136 36.9923 52.6938 36.9923 52.6938 37.6249C52.6938 38.2575 52.8646 38.2561 52.8646 38.8887C52.8646 39.5214 52.7748 39.5199 52.7748 40.1525C52.7748 40.7852 52.5678 40.7837 52.5678 41.4164C52.5678 42.049 52.7951 42.0475 52.7951 42.6802C52.7951 43.3128 52.9978 43.3128 52.9978 43.944C52.9978 44.5752 52.3232 44.5752 52.3232 45.2078C52.3232 45.8404 52.3029 45.8404 52.3029 46.4731C52.3029 47.1057 52.5939 47.1057 52.5939 47.7383C52.5939 48.1799 52.7618 48.6156 52.7372 49.0354C52.7126 49.4553 52.5041 49.8896 52.4535 50.3079C52.3999 50.7466 52.342 51.1664 52.2595 51.5804C52.177 51.9945 52.3956 52.52 52.2769 52.9239C52.1581 53.3278 51.8339 53.7085 51.6761 54.1008C51.5183 54.4931 50.9247 54.6886 50.7221 55.0621C50.5136 55.4486 50.5802 55.9698 50.35 56.3273C50.1198 56.6849 49.7999 56.9933 49.5393 57.332C49.2787 57.6708 49.1108 58.0993 48.8198 58.412C48.5288 58.7247 48.4029 59.2458 48.0815 59.531C47.7601 59.8162 47.4735 60.21 47.1232 60.4633C46.783 60.7094 45.9708 60.2462 45.6161 60.4633C45.2615 60.6805 45.163 61.3348 44.7924 61.5259C44.4218 61.717 44.1496 62.1643 43.7646 62.3279C43.3795 62.4915 42.9669 62.658 42.5702 62.7926C42.1736 62.9272 41.7349 62.9953 41.3281 63.1024C40.9344 63.2052 40.3698 62.548 39.9818 62.6319C39.5938 62.7159 39.2421 62.9823 38.8512 63.0474C38.4603 63.1125 38.1317 63.7524 37.7365 63.7973C37.3413 63.8422 36.9113 63.8349 36.5161 63.8581C36.1209 63.8813 35.6924 63.3456 35.2957 63.3456C34.899 63.3456 34.498 63.557 34.0941 63.5338C33.6902 63.5107 33.3298 63.2052 32.9259 63.1603C32.522 63.1154 32.1543 63.0286 31.7547 62.9634C31.3552 62.8983 30.8818 63.308 30.4837 63.224C30.0856 63.1401 29.686 63.0908 29.2937 62.9895C28.8869 62.8838 28.6784 62.1498 28.2847 62.0167C27.8909 61.8835 27.4117 62.0138 27.0295 61.8516C26.6473 61.6895 26.2101 61.6417 25.8395 61.4492C25.4689 61.2566 25.0998 61.0598 24.7437 60.8397C24.3875 60.6197 23.8606 60.637 23.5218 60.3909C23.1715 60.1376 22.8762 59.7728 22.5519 59.4847C22.2276 59.1966 22.355 58.4641 22.0597 58.1456C21.7644 57.8271 21.1115 57.8387 20.8451 57.4927C20.5787 57.1467 20.6236 56.6038 20.3862 56.2361C20.1488 55.8684 19.894 55.5485 19.687 55.162C19.4857 54.7885 19.4119 54.3744 19.2483 53.9676C19.0847 53.5608 19.0688 53.1627 18.9458 52.74C18.8227 52.3173 17.9599 52.1059 17.873 51.6731C17.7862 51.2402 17.7152 50.8059 17.6617 50.3673C17.6081 49.9286 18.2292 49.4567 18.2031 49.0166C18.177 48.5765 17.5111 48.1799 17.5111 47.7383C17.5111 47.1071 17.4807 47.1071 17.4807 46.4745C17.4807 45.8419 17.9165 45.8433 17.9165 45.2107C17.9165 44.5781 17.9251 44.5795 17.9251 43.9469C17.9251 43.3142 17.6921 43.3157 17.6921 42.6831C17.6921 42.0504 18.2263 42.0519 18.2263 41.4193C18.2263 40.7866 17.7442 40.7866 17.7442 40.1554C17.7442 39.5243 17.5111 39.5243 17.5111 38.8916C17.5111 38.259 18.2248 38.2995 18.2957 37.6712C18.3667 37.043 18.1148 36.9952 18.1148 36.3626L18.1104 36.3597ZM42.314 36.0484C42.314 35.5084 42.2995 34.9583 42.2098 34.4878C42.1099 33.9623 41.8117 33.4802 41.6017 33.0416C41.4063 32.6334 41.3079 32.1339 41.0487 31.7937C40.7896 31.4535 40.2453 31.303 39.9109 31.0207C39.5837 30.7456 39.3535 30.3099 38.9931 30.1072C38.6326 29.9045 38.1433 29.9074 37.7423 29.7757C37.3442 29.6468 36.92 29.6801 36.5132 29.615C36.1064 29.5498 35.7126 29.7091 35.2957 29.7091C34.8788 29.7091 34.5227 29.7757 34.1144 29.8408C33.7062 29.906 33.2299 29.5947 32.8332 29.725C32.4322 29.8553 31.9386 29.8553 31.5738 30.0609C31.2089 30.2664 31.028 30.7702 30.7023 31.0438C30.3678 31.3261 30.1348 31.6822 29.867 32.0369C29.5991 32.3916 28.9607 32.5248 28.7653 32.933C28.5554 33.3717 28.7146 34.0072 28.6162 34.5327C28.5279 35.0032 28.8 35.5099 28.8 36.0499C28.8 36.7158 28.2644 36.7158 28.2644 37.3832C28.2644 38.0505 28.1819 38.0491 28.1819 38.715C28.1819 39.3809 28.9173 39.3809 28.9173 40.0469C28.9173 40.7128 28.1602 40.7128 28.1602 41.3802C28.1602 42.0475 28.7161 42.0461 28.7161 42.7135C28.7161 43.3808 28.1341 43.3808 28.1341 44.0468C28.1341 44.7127 28.8246 44.7127 28.8246 45.3801C28.8246 46.0474 28.8188 46.0474 28.8188 46.7134C28.8188 47.3793 28.8507 47.3807 28.8507 48.0467C28.8507 48.5519 28.4598 49.0528 28.5626 49.5088C28.6712 49.9909 29.1735 50.2935 29.3965 50.7205C29.6093 51.1288 29.5108 51.702 29.7786 52.0466C30.0465 52.3911 30.3476 52.7776 30.682 53.0686C31.0106 53.3538 31.4058 53.5768 31.7735 53.7939C32.1412 54.0111 32.5755 54.1225 32.9823 54.2687C33.3703 54.4092 33.6859 54.8522 34.0551 54.926C34.459 55.0056 34.9193 54.2847 35.2986 54.2847C35.6779 54.2847 36.0413 54.512 36.4437 54.4323C36.8129 54.3585 37.3282 54.6958 37.7177 54.5554C38.1245 54.4077 38.3213 53.7852 38.6905 53.5681C39.0596 53.3509 39.5243 53.2843 39.853 52.9991C40.1874 52.7082 40.1483 52.103 40.4248 51.744C40.7013 51.385 41.3064 51.2952 41.5192 50.8884C41.7407 50.4614 42.0665 50.0242 42.175 49.5421C42.2778 49.0861 42.5138 48.5548 42.5138 48.0481C42.5138 47.3822 41.6828 47.3822 41.6828 46.7148C41.6828 46.0474 42.1026 46.0489 42.1026 45.383C42.1026 44.717 41.9318 44.717 41.9318 44.0511C41.9318 43.3852 42.0216 43.3852 42.0216 42.7178C42.0216 42.0504 42.2286 42.0519 42.2286 41.3845C42.2286 40.7171 42.0013 40.7171 42.0013 40.0512C42.0013 39.3853 41.7986 39.3853 41.7986 38.7179C41.7986 38.0505 42.3994 38.0867 42.4703 37.4237C42.5413 36.7607 42.3155 36.7172 42.3155 36.0499L42.314 36.0484Z" fill="white"/>
<path d="M65.2865 25.8149C65.2865 25.4052 65.0288 24.9521 65.0954 24.5931C65.1692 24.1935 65.8539 23.9865 66.0088 23.6492C66.1536 23.3336 66.3201 23.0919 66.5112 22.824C66.7023 22.5562 66.4518 21.8526 66.6994 21.6239C66.9411 21.3995 67.429 21.4183 67.7055 21.249C67.982 21.0796 68.4568 21.3822 68.7681 21.2692C69.0837 21.1549 69.2313 20.4383 69.5643 20.3818C69.8973 20.3254 70.2693 20.599 70.6124 20.599C70.9555 20.599 71.2595 20.7741 71.5853 20.8291C71.911 20.8842 72.4003 20.4397 72.7159 20.5541C73.0271 20.667 73.1285 21.2692 73.405 21.4386C73.6815 21.608 73.9782 21.7282 74.2215 21.9525C74.4676 22.1813 74.9656 22.229 75.1624 22.507C75.3593 22.7849 74.938 23.3973 75.0828 23.7129C75.2377 24.0502 75.646 24.2717 75.7198 24.6713C75.7864 25.0303 75.8226 25.4081 75.8226 25.8178C75.8226 26.4808 75.8776 26.4808 75.8776 27.1453C75.8776 27.8098 75.6735 27.8084 75.6735 28.4728C75.6735 29.1373 75.5287 29.1359 75.5287 29.8003C75.5287 30.4648 75.4578 30.4634 75.4578 31.1279C75.4578 31.7923 75.5866 31.7909 75.5866 32.4554C75.5866 33.1198 75.8356 33.1198 75.8356 33.7829C75.8356 34.4459 75.4433 34.4459 75.4433 35.1104C75.4433 35.7749 76.1063 35.7749 76.1063 36.4379C76.1063 37.1009 75.3463 37.2674 75.9615 37.5179C76.5768 37.7683 76.0021 37.0517 76.4089 36.5523C76.8157 36.0528 77.1472 36.325 77.554 35.8255C77.9608 35.3261 78.1938 35.5172 78.6006 35.0192C79.0074 34.5212 78.7165 34.2838 79.1233 33.7843C79.5301 33.2849 79.5489 33.3008 79.9557 32.8028C80.3625 32.3048 80.4406 32.3685 80.8474 31.8691C81.2542 31.3696 81.1905 31.3189 81.5959 30.8195C82.0012 30.3201 81.648 30.032 82.0548 29.534C82.4616 29.036 82.6918 29.2242 83.0985 28.7247C83.5053 28.2253 83.472 28.1992 83.8788 27.6998C84.2856 27.2003 84.5057 27.3798 84.9125 26.8818C85.3193 26.3838 85.535 26.559 85.9418 26.061C86.3486 25.563 85.7637 25.0838 86.1705 24.5858C86.5773 24.0878 86.6757 24.1675 87.0825 23.668C87.4893 23.1686 87.734 23.3684 88.1422 22.8704C88.3941 22.5678 88.3666 21.9771 88.6489 21.7397C88.9457 21.4893 89.4567 21.4951 89.7868 21.317C90.1024 21.1476 90.5265 21.291 90.8508 21.1795C91.1751 21.068 91.4212 20.625 91.7643 20.5729C92.103 20.5208 92.4577 20.5715 92.7965 20.5801C93.1352 20.5888 93.4175 20.916 93.7534 20.9855C94.428 21.1245 95.1272 21.0376 95.6455 21.3836C95.9394 21.5747 95.9249 22.0988 96.1666 22.342C96.4084 22.5852 96.9976 22.5287 97.1872 22.824C97.3769 23.1165 97.3668 23.5189 97.4869 23.8331C97.6071 24.1472 98.0196 24.4237 98.0718 24.7639C98.1239 25.1041 98.2469 25.5152 98.2281 25.8612C98.2093 26.2072 97.6606 26.4939 97.5752 26.8355C97.4869 27.1873 97.1322 27.3668 96.9542 27.6824C96.7761 27.998 96.8644 28.4352 96.6082 28.7074C96.1594 29.2025 95.9538 29.0186 95.508 29.5166C95.0621 30.0146 95.2488 30.1825 94.8029 30.6805C94.3571 31.1785 94.2789 31.1076 93.833 31.6056C93.3871 32.1036 93.7071 32.3902 93.2612 32.8882C92.8153 33.3862 92.5981 33.1922 92.1523 33.6902C91.7064 34.1882 91.9699 34.4242 91.524 34.9222C91.0781 35.4202 90.9695 35.3232 90.5236 35.8212C90.0778 36.3192 90.2428 36.4669 89.7969 36.9649C89.351 37.4628 89.1802 37.3108 88.7343 37.8088C88.2884 38.3068 88.1451 38.1794 87.6978 38.6774C87.2505 39.1754 87.0767 39.0408 87.0116 39.7067C86.9464 40.3727 87.1897 40.2163 87.5357 40.7621C87.8816 41.3079 88.1552 41.1341 88.4998 41.6785C88.8443 42.2228 88.6532 42.3444 88.9978 42.8902C89.3423 43.4359 89.5334 43.3143 89.878 43.8601C90.2225 44.4059 89.8143 44.6635 90.1588 45.2093C90.5034 45.7551 90.7234 45.6161 91.068 46.1604C91.4125 46.7048 91.33 46.7583 91.676 47.3026C92.022 47.847 92.2739 47.6877 92.6184 48.2335C92.963 48.7793 92.7791 48.8951 93.1236 49.4409C93.4682 49.9866 93.6014 49.9027 93.9459 50.4484C94.2905 50.9942 93.9256 51.2244 94.2702 51.7701C94.6147 52.3159 94.635 52.3029 94.9796 52.8487C95.3241 53.3944 95.3444 53.3814 95.6889 53.9257C96.0335 54.47 95.9755 54.5077 96.3201 55.0535C96.6646 55.5992 96.6198 55.6282 96.9643 56.1725C97.3088 56.7168 97.3262 56.7067 97.6722 57.2525C98.0182 57.7982 97.9979 57.8098 98.3425 58.3556C98.687 58.9014 98.7189 58.8811 99.0634 59.4269C99.408 59.9726 99.8857 59.6701 100.23 60.2158C100.575 60.7616 100.543 60.7819 100.889 61.3276C101.235 61.8734 101.383 61.8836 101.053 62.438C100.722 62.9925 100.64 62.548 99.9697 62.548C99.2994 62.548 99.3008 62.3975 98.632 62.3975C97.9632 62.3975 97.9632 62.5929 97.2944 62.5929C96.6255 62.5929 96.6255 62.9418 95.9567 62.9418C95.2879 62.9418 95.2879 62.2556 94.6176 62.2556C93.9474 62.2556 93.9474 62.2672 93.2785 62.2672C92.6097 62.2672 92.6097 62.438 91.9394 62.438C91.2692 62.438 91.2692 62.5654 90.6004 62.5654C89.9315 62.5654 89.7318 63.1271 89.144 62.8057C88.5563 62.4843 88.937 62.0413 88.6069 61.4941C88.2768 60.9469 88.051 61.083 87.7209 60.5358C87.3909 59.9886 87.5559 59.8901 87.2258 59.3429C86.8958 58.7957 87.1318 58.6538 86.8017 58.1066C86.4716 57.5594 86.1835 57.7331 85.8535 57.1859C85.5234 56.6387 85.3641 56.7356 85.0341 56.1884C84.704 55.6412 84.8198 55.5717 84.4898 55.0245C84.1597 54.4773 83.9599 54.5989 83.6298 54.0517C83.2998 53.5045 83.8919 53.1483 83.5604 52.6011C83.2288 52.0539 82.725 52.3593 82.395 51.8121C82.0649 51.2649 82.3617 51.0854 82.0316 50.5382C81.7015 49.991 81.3194 50.2211 80.9893 49.6739C80.6592 49.1267 80.7939 49.0442 80.4638 48.497C80.1337 47.9498 80.6983 46.9581 80.0628 46.8843C79.4273 46.8104 79.5677 47.7008 79.1522 48.1626C78.7367 48.6244 78.618 48.5172 78.2025 48.979C77.7871 49.4408 77.7624 49.4191 77.347 49.8809C76.9315 50.3427 77.0314 50.4339 76.6159 50.8958C76.2004 51.3576 75.8182 51.2128 75.6025 51.7962C75.3724 52.423 75.8747 52.5606 75.8747 53.2294C75.8747 53.8982 75.6517 53.8982 75.6517 54.5656C75.6517 55.233 75.8472 55.2344 75.8472 55.9018C75.8472 56.5706 75.9775 56.5706 75.9775 57.2394C75.9775 57.9083 76.1642 57.9083 76.1642 58.5771C76.1642 59.2459 76.2019 59.2459 76.2019 59.9147C76.2019 60.5835 75.7965 60.5835 75.7965 61.2524C75.7965 61.9212 76.1454 61.9299 75.6764 62.4076C75.2073 62.8853 75.2073 62.6334 74.553 62.6334C73.8986 62.6334 73.8972 62.7087 73.2414 62.7087C72.5856 62.7087 72.5856 62.2397 71.9298 62.2397C71.274 62.2397 71.274 62.5813 70.6182 62.5813C69.9624 62.5813 69.9624 62.8897 69.3066 62.8897C68.6508 62.8897 68.6508 62.3671 67.995 62.3671C67.3392 62.3671 67.3392 62.2874 66.6835 62.2874C66.0277 62.2874 65.5427 63.3486 65.0794 62.8839C64.6162 62.4192 65.6976 61.9357 65.6976 61.2784C65.6976 60.6212 65.1547 60.6226 65.1547 59.9654C65.1547 59.3081 65.7222 59.3082 65.7222 58.6524C65.7222 57.9966 65.049 57.9951 65.049 57.3393C65.049 56.6835 65.0548 56.6835 65.0548 56.0263C65.0548 55.369 65.0244 55.3705 65.0244 54.7133C65.0244 54.056 65.4573 54.0575 65.4573 53.4002C65.4573 52.743 65.0939 52.7444 65.0939 52.0872C65.0939 51.4299 65.4761 51.4314 65.4761 50.7742C65.4761 50.1169 65.5181 50.1184 65.5181 49.4611C65.5181 48.8039 65.4689 48.8053 65.4689 48.1481C65.4689 47.4908 65.3863 47.4908 65.3863 46.835C65.3863 46.1793 65.7208 46.1793 65.7208 45.522C65.7208 44.8648 64.9709 44.8648 64.9709 44.209C64.9709 43.5532 65.2285 43.5517 65.2285 42.8959C65.2285 42.2401 65.6831 42.2387 65.6831 41.5829C65.6831 40.9271 65.2126 40.9257 65.2126 40.2699C65.2126 39.6141 65.4269 39.6126 65.4269 38.9568C65.4269 38.301 64.9911 38.2996 64.9911 37.6438C64.9911 36.988 65.4457 36.9866 65.4457 36.3308C65.4457 35.675 65.5991 35.6735 65.5991 35.0177C65.5991 34.3619 65.7743 34.3605 65.7743 33.7047C65.7743 33.0489 64.9636 33.0475 64.9636 32.3917C64.9636 31.7359 65.3733 31.7344 65.3733 31.0786C65.3733 30.4228 65.2068 30.4214 65.2068 29.7642C65.2068 29.1069 65.2937 29.1069 65.2937 28.4511C65.2937 27.7953 65.521 27.7881 65.4949 27.1323C65.4689 26.4765 65.2922 26.4794 65.2922 25.8222L65.2865 25.8149Z" fill="white"/>
<path d="M111.228 58.123C111.228 57.6235 111.571 57.1979 111.662 56.7636C111.764 56.283 111.379 55.6156 111.591 55.2146C111.804 54.8136 112.707 54.886 113.051 54.5559C113.404 54.2157 113.412 53.3862 113.871 53.169C114.296 52.9678 114.86 52.9012 115.376 52.8071C115.832 52.7232 116.36 52.4742 116.887 52.4742C117.414 52.4742 117.889 53.0301 118.346 53.1155C118.862 53.2125 119.16 53.654 119.585 53.8581C120.041 54.0782 120.662 53.9363 121.014 54.2823C121.353 54.6153 121.269 55.1929 121.489 55.604C121.709 56.0152 121.851 56.3351 121.954 56.8085C122.048 57.2413 122.106 57.6293 122.106 58.123C122.106 58.6166 122.006 58.9959 121.913 59.4288C121.81 59.9036 122.004 60.403 121.789 60.8041C121.573 61.2051 121.402 61.6828 121.063 62.0143C120.712 62.3603 120.237 62.5731 119.781 62.7931C119.355 62.9987 118.815 62.7801 118.3 62.8771C117.842 62.9625 117.417 63.1536 116.888 63.1536C116.36 63.1536 115.823 63.5778 115.367 63.4953C114.851 63.4012 114.39 63.0812 113.966 62.88C113.507 62.6643 112.854 62.6021 112.5 62.2618C112.157 61.9318 112.375 61.1486 112.153 60.7331C111.932 60.3176 111.833 59.9499 111.732 59.4679C111.641 59.0336 111.228 58.6224 111.228 58.123ZM111.518 50.5097C111.051 50.0508 111.787 49.783 111.787 49.1301C111.787 48.4772 111.199 48.4757 111.199 47.8228C111.199 47.1699 111.971 47.1685 111.971 46.5156C111.971 45.8627 111.287 45.8612 111.287 45.2083C111.287 44.5554 111.393 44.554 111.393 43.8996C111.393 43.2453 111.189 43.2453 111.189 42.5924C111.189 41.9395 111.7 41.9381 111.7 41.2837C111.7 40.6294 112.03 40.6294 112.03 39.975C112.03 39.3207 111.555 39.3207 111.555 38.6663C111.555 38.012 111.972 38.012 111.972 37.3576C111.972 36.7033 111.946 36.7033 111.946 36.0489C111.946 35.3946 111.927 35.3946 111.927 34.7402C111.927 34.0859 111.988 34.0859 111.988 33.4316C111.988 32.7772 111.635 32.7772 111.635 32.1229C111.635 31.4685 111.486 31.4685 111.486 30.8142C111.486 30.1598 111.584 30.1598 111.584 29.5055C111.584 28.8511 111.956 28.8511 111.956 28.1968C111.956 27.5424 111.803 27.5424 111.803 26.8881C111.803 26.2338 111.335 26.2338 111.335 25.5794C111.335 24.9251 111.503 24.9251 111.503 24.2693C111.503 23.6135 111.182 23.6149 111.182 22.9591C111.182 22.561 111.859 22.2295 111.927 21.8763C112.001 21.4912 112.121 21.1988 112.275 20.8644C112.418 20.5502 111.985 19.893 112.175 19.6295C112.364 19.366 112.884 19.2864 113.132 19.0664C113.376 18.8478 113.919 19.091 114.204 18.9259C114.49 18.7609 114.472 17.9849 114.789 17.8735C115.111 17.7606 115.543 17.9864 115.879 17.9299C116.215 17.8735 116.544 18.0081 116.888 18.0081C117.233 18.0081 117.619 17.4406 117.947 17.4985C118.274 17.5564 118.474 18.1703 118.791 18.2817C119.109 18.3932 119.432 18.4424 119.717 18.606C120.002 18.7696 120.512 18.674 120.765 18.8912C121.02 19.1112 120.712 19.8452 120.913 20.1188C121.114 20.3924 121.559 20.4547 121.705 20.7703C121.858 21.1047 121.971 21.4536 122.045 21.8386C122.113 22.1933 122.204 22.561 122.204 22.9591C122.204 23.6135 121.984 23.6135 121.984 24.2664C121.984 24.9193 121.828 24.9207 121.828 25.5736C121.828 26.2265 121.751 26.228 121.751 26.8809C121.751 27.5352 121.891 27.5352 121.891 28.1881C121.891 28.841 122.161 28.8425 122.161 29.4968C122.161 30.1511 121.735 30.1511 121.735 30.804C121.735 31.4569 122.453 31.4584 122.453 32.1127C122.453 32.7671 122.478 32.7671 122.478 33.4214C122.478 34.0758 122.557 34.0758 122.557 34.7301C122.557 35.3845 122.093 35.3845 122.093 36.0388C122.093 36.6932 121.767 36.6932 121.767 37.3475C121.767 38.0018 122.174 38.0018 122.174 38.6562C122.174 39.3105 122.148 39.3105 122.148 39.9649C122.148 40.6192 122.038 40.6192 122.038 41.2736C122.038 41.9279 122.127 41.9279 122.127 42.5823C122.127 43.2366 122.623 43.2366 122.623 43.891C122.623 44.5453 122.3 44.5453 122.3 45.1996C122.3 45.854 122.346 45.854 122.346 46.5083C122.346 47.1627 122.039 47.1627 122.039 47.817C122.039 48.4714 121.738 48.4714 121.738 49.1272C121.738 49.783 122.912 50.2404 122.447 50.7022C121.983 51.164 121.524 50.6733 120.862 50.6733C120.201 50.6733 120.201 50.3302 119.539 50.3302C118.877 50.3302 118.877 50.8036 118.214 50.8036C117.551 50.8036 117.553 50.4836 116.89 50.4836C116.227 50.4836 116.227 50.1536 115.565 50.1536C114.904 50.1536 114.904 50.5546 114.241 50.5546C113.578 50.5546 113.569 50.32 112.925 50.4735C112.198 50.6472 111.991 50.9758 111.519 50.5097H111.518Z" fill="white"/>
</g>
<defs>
<clipPath id="clip0_920_6792">
<rect width="140.612" height="80.9955" fill="white" transform="translate(-0.104736)"/>
</clipPath>
</defs>
</svg>
