<svg width="126" height="24" viewBox="0 0 126 24" fill="none" xmlns="http://www.w3.org/2000/svg">
<path d="M0.882355 11.5217C0.882355 4.79043 5.57828 0 12.2118 0C18.8453 0 23.6712 4.79043 23.6712 11.5217C23.6712 18.2529 18.8898 23.1289 12.2118 23.1289C5.53379 23.1289 0.882355 18.3397 0.882355 11.5217ZM19.1919 11.5217C19.1919 7.16395 16.3481 4.09971 12.213 4.09971C8.07785 4.09971 5.31954 7.16277 5.31954 11.5217C5.31954 15.8805 8.20664 19.0304 12.213 19.0304C16.2193 19.0304 19.1919 15.9661 19.1919 11.5217Z" fill="#7455FF"/>
<path d="M38.3795 0.043457C39.4566 0.043457 40.3616 0.949944 40.3616 2.02882C40.3616 3.10769 39.4566 4.01418 38.3795 4.01418H37.0003C33.3815 4.01418 31.486 6.4733 31.486 10.0125V21.8355C31.486 22.1803 31.1418 22.4828 30.7964 22.4828H27.6085C27.2643 22.4828 26.9189 22.1803 26.9189 21.8355V9.92569C26.9201 4.013 30.6255 0.043457 37.0015 0.043457H38.3806H38.3795Z" fill="#7455FF"/>
<path d="M57.4266 9.4929C57.4266 6.2129 55.5311 3.96955 52.8173 3.96955C50.1035 3.96955 48.1214 6.2129 48.1214 9.44952V21.8343C48.1214 22.179 47.7772 22.4816 47.4318 22.4816H44.2438C43.8563 22.4816 43.5542 22.179 43.5542 21.8343V2.28674C43.5542 1.07887 44.588 0.0433894 45.8372 0.0433894C47.0864 0.0433894 48.0347 0.993266 48.078 2.20113C49.5427 0.777492 51.4381 0 53.7211 0C56.737 0 59.1921 1.46703 60.6146 3.92733C62.0359 1.4682 64.4921 0 67.5935 0C72.4615 0 75.8216 3.79716 75.8216 9.36391V21.8343C75.8216 22.179 75.4774 22.4816 75.132 22.4816H71.944C71.5998 22.4816 71.2544 22.179 71.2544 21.8343V9.4929C71.2544 6.2129 69.4023 3.96955 66.6452 3.96955C63.888 3.96955 61.9492 6.2129 61.9492 9.44952V21.8343C61.9492 22.179 61.6483 22.4816 61.303 22.4816H58.0717C57.7275 22.4816 57.4254 22.179 57.4254 21.8343V9.4929H57.4266Z" fill="#7455FF"/>
<path d="M83.6095 13.1611C84.2557 16.6569 86.8829 18.9436 90.373 18.9436C92.2684 18.9436 93.9051 18.5988 95.3698 17.7357C95.9294 17.391 96.4902 17.2608 96.9643 17.2608C98.1269 17.2608 98.9464 18.1673 98.9464 19.2028C98.9464 19.9369 98.5156 20.7132 97.6106 21.2737C95.4997 22.6118 93.0446 23.0433 90.373 23.0433C83.7383 23.0433 79.0435 18.2541 79.0435 11.5217C79.0435 4.78926 83.5662 0 89.9421 0C96.3181 0 100.54 4.53126 100.54 10.8743C100.54 12.6861 99.2473 13.1611 98.3423 13.1611H83.6083H83.6095ZM83.6095 9.92445H96.0593C95.6718 6.42867 93.2589 4.09972 89.9421 4.09972C86.6254 4.09972 84.2124 6.42984 83.6095 9.92445Z" fill="#7455FF"/>
<path d="M108.187 13.1611C108.834 16.6569 111.461 18.9436 114.951 18.9436C116.846 18.9436 118.483 18.5988 119.948 17.7357C120.507 17.391 121.068 17.2608 121.541 17.2608C122.705 17.2608 123.523 18.1673 123.523 19.2028C123.523 19.9369 123.092 20.7132 122.187 21.2737C120.076 22.6118 117.621 23.0433 114.95 23.0433C108.315 23.0433 103.619 18.2541 103.619 11.5217C103.619 4.78926 108.144 0 114.52 0C120.896 0 125.118 4.53126 125.118 10.8743C125.118 12.6861 123.825 13.1611 122.92 13.1611H108.187ZM108.187 9.92445H120.637C120.25 6.42867 117.837 4.09972 114.52 4.09972C111.203 4.09972 108.79 6.42984 108.187 9.92445Z" fill="#7455FF"/>
</svg>
