<svg width="20" height="21" viewBox="0 0 20 21" fill="none" xmlns="http://www.w3.org/2000/svg">
<path d="M11.1667 10.5L5.29167 4.62496C5.09722 4.43051 5 4.1944 5 3.91663C5 3.63885 5.09722 3.40274 5.29167 3.20829C5.48611 3.01385 5.72222 2.91663 6 2.91663C6.27778 2.91663 6.51389 3.01385 6.70833 3.20829L12.9375 9.43746C13.0903 9.59024 13.2014 9.7569 13.2708 9.93746C13.3403 10.118 13.375 10.3055 13.375 10.5C13.375 10.6944 13.3403 10.8819 13.2708 11.0625C13.2014 11.243 13.0903 11.4097 12.9375 11.5625L6.70833 17.7916C6.51389 17.9861 6.27778 18.0833 6 18.0833C5.72222 18.0833 5.48611 17.9861 5.29167 17.7916C5.09722 17.5972 5 17.3611 5 17.0833C5 16.8055 5.09722 16.5694 5.29167 16.375L11.1667 10.5Z" fill="#E3E3E3"/>
</svg>
