<svg width="24" height="24" viewBox="0 0 24 24" fill="none" xmlns="http://www.w3.org/2000/svg">
<rect x="0.35" y="0.35" width="23.3" height="23.3" rx="3.15" fill="white"/>
<rect x="0.35" y="0.35" width="23.3" height="23.3" rx="3.15" stroke="#B4B4C2" stroke-width="0.7"/>
<path d="M9.63644 15.0514L5.73501 11.128C5.5024 10.8943 5.21004 10.7747 4.8579 10.7691C4.50605 10.7637 4.20837 10.8834 3.96484 11.128C3.7216 11.3728 3.59998 11.6695 3.59998 12.0179C3.59998 12.3664 3.7216 12.6631 3.96484 12.9079L8.57375 17.5423C8.87746 17.8474 9.23169 18 9.63644 18C10.0412 18 10.3954 17.8474 10.6991 17.5423L20.0429 8.14685C20.2752 7.91296 20.3942 7.61897 20.3998 7.26489C20.4051 6.91109 20.2862 6.61176 20.0429 6.36689C19.7994 6.1223 19.5044 6 19.1578 6C18.8113 6 18.5163 6.1223 18.2727 6.36689L9.63644 15.0514Z" fill="#7455FF"/>
</svg>
