<svg width="10" height="19" viewBox="0 0 10 19" fill="none" xmlns="http://www.w3.org/2000/svg">
<path d="M2.09025 9.24242L9.623 16.7752C9.82167 16.9738 9.9185 17.2078 9.9135 17.4769C9.90833 17.7463 9.80642 17.9802 9.60775 18.1789C9.40892 18.3776 9.17492 18.4769 8.90575 18.4769C8.63658 18.4769 8.40259 18.3776 8.20375 18.1789L0.53275 10.5232C0.351917 10.3423 0.217917 10.1397 0.13075 9.91542C0.0435833 9.69108 0 9.46675 0 9.24242C0 9.01808 0.0435833 8.79375 0.13075 8.56942C0.217917 8.34508 0.351917 8.1425 0.53275 7.96167L8.20375 0.290416C8.40259 0.0917489 8.63917 -0.00500074 8.9135 0.000165926C9.18783 0.00533259 9.42433 0.107249 9.623 0.305915C9.82167 0.504582 9.921 0.738583 9.921 1.00792C9.921 1.27708 9.82167 1.511 9.623 1.70967L2.09025 9.24242Z" fill="#19191D"/>
</svg>
