<svg width="24" height="24" viewBox="0 0 24 24" fill="none" xmlns="http://www.w3.org/2000/svg">
<path d="M14.315 12.4623L8.84168 6.98897C8.65552 6.8028 8.56554 6.58251 8.57174 6.32808C8.57795 6.07365 8.67413 5.85335 8.8603 5.66719C9.04647 5.48102 9.26676 5.38794 9.52119 5.38794C9.77562 5.38794 9.99591 5.48102 10.1821 5.66719L15.8974 11.4011C16.0463 11.55 16.158 11.7176 16.2325 11.9038C16.3069 12.0899 16.3442 12.2761 16.3442 12.4623C16.3442 12.6484 16.3069 12.8346 16.2325 13.0208C16.158 13.2069 16.0463 13.3745 15.8974 13.5234L10.1635 19.2573C9.9773 19.4435 9.7601 19.5335 9.51188 19.5273C9.26366 19.5211 9.04647 19.4249 8.8603 19.2387C8.67413 19.0525 8.58105 18.8322 8.58105 18.5778C8.58105 18.3234 8.67413 18.1031 8.8603 17.9169L14.315 12.4623Z" fill="white"/>
</svg>
