<svg width="24" height="24" viewBox="0 0 24 24" fill="none" xmlns="http://www.w3.org/2000/svg">
<path d="M16.425 4L15 9H16.125C16.725 9 17.1709 9.26667 17.4625 9.8C17.7542 10.3333 17.725 10.85 17.375 11.35L16.75 12.25C16.5667 12.5 16.325 12.6417 16.025 12.675C15.725 12.7083 15.4584 12.6083 15.225 12.375C15.0584 12.2083 14.9625 12.0083 14.9375 11.775C14.9125 11.5417 14.9667 11.325 15.1 11.125L15.2 11H13.675C13.3417 11 13.075 10.8708 12.875 10.6125C12.675 10.3542 12.6167 10.0583 12.7 9.725L14.35 4H8.00002C7.71669 4 7.47919 3.90417 7.28752 3.7125C7.09586 3.52083 7.00002 3.28333 7.00002 3C7.00002 2.71667 7.09586 2.47917 7.28752 2.2875C7.47919 2.09583 7.71669 2 8.00002 2H14.85C15.3834 2 15.8125 2.20833 16.1375 2.625C16.4625 3.04167 16.5584 3.5 16.425 4ZM19.075 21.9L13.75 16.6L11.375 20.025C11.275 20.175 11.1459 20.275 10.9875 20.325C10.8292 20.375 10.675 20.375 10.525 20.325C10.375 20.275 10.25 20.1875 10.15 20.0625C10.05 19.9375 10 19.7833 10 19.6V14H9.00002C8.45002 14 7.97919 13.8042 7.58752 13.4125C7.19586 13.0208 7.00002 12.55 7.00002 12V9.85L2.07502 4.925C1.87502 4.725 1.77502 4.4875 1.77502 4.2125C1.77502 3.9375 1.87502 3.7 2.07502 3.5C2.27502 3.3 2.51252 3.2 2.78752 3.2C3.06252 3.2 3.30002 3.3 3.50002 3.5L20.5 20.5C20.7 20.7 20.8 20.9333 20.8 21.2C20.8 21.4667 20.7 21.7 20.5 21.9C20.3 22.1 20.0625 22.2 19.7875 22.2C19.5125 22.2 19.275 22.1 19.075 21.9Z" fill="#7E7F8E"/>
</svg>
