<svg width="20" height="20" viewBox="0 0 20 20" fill="none" xmlns="http://www.w3.org/2000/svg">
<path d="M10.8333 0.833008C11.0694 0.833008 11.2674 0.912869 11.4271 1.07259C11.5868 1.23231 11.6667 1.43023 11.6667 1.66634V9.16634C11.6667 9.40245 11.5868 9.60037 11.4271 9.76009C11.2674 9.91981 11.0694 9.99967 10.8333 9.99967C10.5972 9.99967 10.3993 9.91981 10.2396 9.76009C10.0799 9.60037 10 9.40245 10 9.16634V1.66634C10 1.43023 10.0799 1.23231 10.2396 1.07259C10.3993 0.912869 10.5972 0.833008 10.8333 0.833008ZM7.5 1.66634C7.73611 1.66634 7.93403 1.7462 8.09375 1.90592C8.25347 2.06565 8.33333 2.26356 8.33333 2.49967V9.16634C8.33333 9.40245 8.25347 9.60037 8.09375 9.76009C7.93403 9.91981 7.73611 9.99967 7.5 9.99967C7.26389 9.99967 7.06597 9.91981 6.90625 9.76009C6.74653 9.60037 6.66667 9.40245 6.66667 9.16634V2.49967C6.66667 2.26356 6.74653 2.06565 6.90625 1.90592C7.06597 1.7462 7.26389 1.66634 7.5 1.66634ZM10.4167 19.1663C8.44445 19.1663 6.77083 18.4788 5.39583 17.1038C4.02083 15.7288 3.33333 14.0552 3.33333 12.083V4.16634C3.33333 3.93023 3.4132 3.73231 3.57292 3.57259C3.73264 3.41287 3.93056 3.33301 4.16667 3.33301C4.40278 3.33301 4.6007 3.41287 4.76042 3.57259C4.92014 3.73231 5 3.93023 5 4.16634V12.083C5 13.5969 5.52431 14.8781 6.57292 15.9268C7.62153 16.9754 8.90278 17.4997 10.4167 17.4997C11.9306 17.4997 13.2118 16.9754 14.2604 15.9268C15.309 14.8781 15.8333 13.5969 15.8333 12.083V9.16634C15.5972 9.16634 15.3993 9.2462 15.2396 9.40592C15.0799 9.56565 15 9.76356 15 9.99967V12.4997C15 12.7358 14.9201 12.9337 14.7604 13.0934C14.6007 13.2531 14.4028 13.333 14.1667 13.333H12.5C12.0417 13.333 11.6493 13.4962 11.3229 13.8226C10.9965 14.149 10.8333 14.5413 10.8333 14.9997V15.833C10.8333 16.0691 10.7535 16.267 10.5938 16.4268C10.434 16.5865 10.2361 16.6663 10 16.6663C9.76389 16.6663 9.56597 16.5865 9.40625 16.4268C9.24653 16.267 9.16667 16.0691 9.16667 15.833V14.9997C9.16667 14.083 9.49306 13.2983 10.1458 12.6455C10.7986 11.9927 11.5833 11.6663 12.5 11.6663H13.3333V3.33301C13.3333 3.0969 13.4132 2.89898 13.5729 2.73926C13.7326 2.57954 13.9306 2.49967 14.1667 2.49967C14.4028 2.49967 14.6007 2.57954 14.7604 2.73926C14.9201 2.89898 15 3.0969 15 3.33301V7.64551C15.1389 7.60384 15.2743 7.56912 15.4063 7.54134C15.5382 7.51356 15.6806 7.49967 15.8333 7.49967H16.6667C16.9028 7.49967 17.1007 7.57954 17.2604 7.73926C17.4201 7.89898 17.5 8.0969 17.5 8.33301V12.083C17.5 14.0552 16.8125 15.7288 15.4375 17.1038C14.0625 18.4788 12.3889 19.1663 10.4167 19.1663Z" fill="#B4B4C2"/>
</svg>
