<svg width="20" height="20" viewBox="0 0 20 20" fill="none" xmlns="http://www.w3.org/2000/svg">
<path d="M9.95833 15.0003C10.25 15.0003 10.4965 14.8996 10.6979 14.6982C10.8993 14.4969 11 14.2503 11 13.9587C11 13.667 10.8993 13.4205 10.6979 13.2191C10.4965 13.0177 10.25 12.917 9.95833 12.917C9.66667 12.917 9.42014 13.0177 9.21875 13.2191C9.01736 13.4205 8.91667 13.667 8.91667 13.9587C8.91667 14.2503 9.01736 14.4969 9.21875 14.6982C9.42014 14.8996 9.66667 15.0003 9.95833 15.0003ZM10 18.3337C8.84722 18.3337 7.76389 18.1149 6.75 17.6774C5.73611 17.2399 4.85417 16.6462 4.10417 15.8962C3.35417 15.1462 2.76042 14.2642 2.32292 13.2503C1.88542 12.2364 1.66667 11.1531 1.66667 10.0003C1.66667 8.84755 1.88542 7.76422 2.32292 6.75033C2.76042 5.73644 3.35417 4.85449 4.10417 4.10449C4.85417 3.35449 5.73611 2.76074 6.75 2.32324C7.76389 1.88574 8.84722 1.66699 10 1.66699C11.1528 1.66699 12.2361 1.88574 13.25 2.32324C14.2639 2.76074 15.1458 3.35449 15.8958 4.10449C16.6458 4.85449 17.2396 5.73644 17.6771 6.75033C18.1146 7.76422 18.3333 8.84755 18.3333 10.0003C18.3333 11.1531 18.1146 12.2364 17.6771 13.2503C17.2396 14.2642 16.6458 15.1462 15.8958 15.8962C15.1458 16.6462 14.2639 17.2399 13.25 17.6774C12.2361 18.1149 11.1528 18.3337 10 18.3337ZM10 16.667C11.8611 16.667 13.4375 16.0212 14.7292 14.7295C16.0208 13.4378 16.6667 11.8614 16.6667 10.0003C16.6667 8.13922 16.0208 6.56283 14.7292 5.27116C13.4375 3.97949 11.8611 3.33366 10 3.33366C8.13889 3.33366 6.5625 3.97949 5.27083 5.27116C3.97917 6.56283 3.33333 8.13922 3.33333 10.0003C3.33333 11.8614 3.97917 13.4378 5.27083 14.7295C6.5625 16.0212 8.13889 16.667 10 16.667ZM10.0833 6.41699C10.4306 6.41699 10.7326 6.5281 10.9896 6.75033C11.2465 6.97255 11.375 7.25033 11.375 7.58366C11.375 7.88922 11.2813 8.16005 11.0938 8.39616C10.9063 8.63227 10.6944 8.85449 10.4583 9.06283C10.1389 9.3406 9.85764 9.64616 9.61458 9.97949C9.37153 10.3128 9.25 10.6878 9.25 11.1045C9.25 11.2989 9.32292 11.4621 9.46875 11.5941C9.61458 11.726 9.78472 11.792 9.97917 11.792C10.1875 11.792 10.3646 11.7225 10.5104 11.5837C10.6563 11.4448 10.75 11.2712 10.7917 11.0628C10.8472 10.7712 10.9722 10.5107 11.1667 10.2816C11.3611 10.0524 11.5694 9.83366 11.7917 9.62533C12.1111 9.31977 12.3854 8.98644 12.6146 8.62533C12.8438 8.26422 12.9583 7.86144 12.9583 7.41699C12.9583 6.70866 12.6701 6.1288 12.0938 5.67741C11.5174 5.22602 10.8472 5.00033 10.0833 5.00033C9.55556 5.00033 9.05208 5.11144 8.57292 5.33366C8.09375 5.55588 7.72917 5.89616 7.47917 6.35449C7.38194 6.52116 7.35069 6.69824 7.38542 6.88574C7.42014 7.07324 7.51389 7.2156 7.66667 7.31283C7.86111 7.42394 8.0625 7.45866 8.27083 7.41699C8.47917 7.37533 8.65278 7.25727 8.79167 7.06283C8.94444 6.85449 9.13542 6.69477 9.36458 6.58366C9.59375 6.47255 9.83333 6.41699 10.0833 6.41699Z" fill="#B4B4C2"/>
</svg>
