<svg width="26" height="26" viewBox="0 0 26 26" fill="none" xmlns="http://www.w3.org/2000/svg">
<path d="M4.33337 20.5833V10.8333C4.33337 10.4903 4.41011 10.1653 4.56358 9.85832C4.71705 9.55138 4.92921 9.2986 5.20004 9.09999L11.7 4.22499C12.0792 3.9361 12.5125 3.79166 13 3.79166C13.4875 3.79166 13.9209 3.9361 14.3 4.22499L20.8 9.09999C21.0709 9.2986 21.283 9.55138 21.4365 9.85832C21.59 10.1653 21.6667 10.4903 21.6667 10.8333V20.5833C21.6667 21.1792 21.4546 21.6892 21.0302 22.1135C20.6059 22.5378 20.0959 22.75 19.5 22.75H16.25C15.9431 22.75 15.6858 22.6462 15.4782 22.4385C15.2705 22.2309 15.1667 21.9736 15.1667 21.6667V16.25C15.1667 15.943 15.0629 15.6858 14.8552 15.4781C14.6476 15.2705 14.3903 15.1667 14.0834 15.1667H11.9167C11.6098 15.1667 11.3525 15.2705 11.1448 15.4781C10.9372 15.6858 10.8334 15.943 10.8334 16.25V21.6667C10.8334 21.9736 10.7296 22.2309 10.5219 22.4385C10.3143 22.6462 10.057 22.75 9.75004 22.75H6.50004C5.90421 22.75 5.39414 22.5378 4.96983 22.1135C4.54553 21.6892 4.33337 21.1792 4.33337 20.5833Z" fill="#C9C9D4"/>
</svg>
