<svg width="20" height="20" viewBox="0 0 20 20" fill="none" xmlns="http://www.w3.org/2000/svg">
<path d="M10 14.167C10.2361 14.167 10.434 14.0871 10.5938 13.9274C10.7535 13.7677 10.8333 13.5698 10.8333 13.3337V10.0003C10.8333 9.76422 10.7535 9.5663 10.5938 9.40658C10.434 9.24685 10.2361 9.16699 10 9.16699C9.76389 9.16699 9.56597 9.24685 9.40625 9.40658C9.24653 9.5663 9.16667 9.76422 9.16667 10.0003V13.3337C9.16667 13.5698 9.24653 13.7677 9.40625 13.9274C9.56597 14.0871 9.76389 14.167 10 14.167ZM10 7.50033C10.2361 7.50033 10.434 7.42047 10.5938 7.26074C10.7535 7.10102 10.8333 6.9031 10.8333 6.66699C10.8333 6.43088 10.7535 6.23296 10.5938 6.07324C10.434 5.91352 10.2361 5.83366 10 5.83366C9.76389 5.83366 9.56597 5.91352 9.40625 6.07324C9.24653 6.23296 9.16667 6.43088 9.16667 6.66699C9.16667 6.9031 9.24653 7.10102 9.40625 7.26074C9.56597 7.42047 9.76389 7.50033 10 7.50033ZM10 18.3337C8.84722 18.3337 7.76389 18.1149 6.75 17.6774C5.73611 17.2399 4.85417 16.6462 4.10417 15.8962C3.35417 15.1462 2.76042 14.2642 2.32292 13.2503C1.88542 12.2364 1.66667 11.1531 1.66667 10.0003C1.66667 8.84755 1.88542 7.76422 2.32292 6.75033C2.76042 5.73644 3.35417 4.85449 4.10417 4.10449C4.85417 3.35449 5.73611 2.76074 6.75 2.32324C7.76389 1.88574 8.84722 1.66699 10 1.66699C11.1528 1.66699 12.2361 1.88574 13.25 2.32324C14.2639 2.76074 15.1458 3.35449 15.8958 4.10449C16.6458 4.85449 17.2396 5.73644 17.6771 6.75033C18.1146 7.76422 18.3333 8.84755 18.3333 10.0003C18.3333 11.1531 18.1146 12.2364 17.6771 13.2503C17.2396 14.2642 16.6458 15.1462 15.8958 15.8962C15.1458 16.6462 14.2639 17.2399 13.25 17.6774C12.2361 18.1149 11.1528 18.3337 10 18.3337ZM10 16.667C11.8611 16.667 13.4375 16.0212 14.7292 14.7295C16.0208 13.4378 16.6667 11.8614 16.6667 10.0003C16.6667 8.13922 16.0208 6.56283 14.7292 5.27116C13.4375 3.97949 11.8611 3.33366 10 3.33366C8.13889 3.33366 6.5625 3.97949 5.27083 5.27116C3.97917 6.56283 3.33333 8.13922 3.33333 10.0003C3.33333 11.8614 3.97917 13.4378 5.27083 14.7295C6.5625 16.0212 8.13889 16.667 10 16.667Z" fill="#B4B4C2"/>
</svg>
