<svg width="26" height="26" viewBox="0 0 26 26" fill="none" xmlns="http://www.w3.org/2000/svg">
<path d="M5.41667 11.375C4.82083 11.375 4.31076 11.1628 3.88646 10.7385C3.46215 10.3142 3.25 9.80417 3.25 9.20833V5.41667C3.25 4.82083 3.46215 4.31076 3.88646 3.88646C4.31076 3.46215 4.82083 3.25 5.41667 3.25H9.20833C9.80417 3.25 10.3142 3.46215 10.7385 3.88646C11.1628 4.31076 11.375 4.82083 11.375 5.41667V9.20833C11.375 9.80417 11.1628 10.3142 10.7385 10.7385C10.3142 11.1628 9.80417 11.375 9.20833 11.375H5.41667ZM5.41667 22.75C4.82083 22.75 4.31076 22.5378 3.88646 22.1135C3.46215 21.6892 3.25 21.1792 3.25 20.5833V16.7917C3.25 16.1958 3.46215 15.6858 3.88646 15.2615C4.31076 14.8372 4.82083 14.625 5.41667 14.625H9.20833C9.80417 14.625 10.3142 14.8372 10.7385 15.2615C11.1628 15.6858 11.375 16.1958 11.375 16.7917V20.5833C11.375 21.1792 11.1628 21.6892 10.7385 22.1135C10.3142 22.5378 9.80417 22.75 9.20833 22.75H5.41667ZM16.7917 11.375C16.1958 11.375 15.6858 11.1628 15.2615 10.7385C14.8372 10.3142 14.625 9.80417 14.625 9.20833V5.41667C14.625 4.82083 14.8372 4.31076 15.2615 3.88646C15.6858 3.46215 16.1958 3.25 16.7917 3.25H20.5833C21.1792 3.25 21.6892 3.46215 22.1135 3.88646C22.5378 4.31076 22.75 4.82083 22.75 5.41667V9.20833C22.75 9.80417 22.5378 10.3142 22.1135 10.7385C21.6892 11.1628 21.1792 11.375 20.5833 11.375H16.7917ZM16.7917 22.75C16.1958 22.75 15.6858 22.5378 15.2615 22.1135C14.8372 21.6892 14.625 21.1792 14.625 20.5833V16.7917C14.625 16.1958 14.8372 15.6858 15.2615 15.2615C15.6858 14.8372 16.1958 14.625 16.7917 14.625H20.5833C21.1792 14.625 21.6892 14.8372 22.1135 15.2615C22.5378 15.6858 22.75 16.1958 22.75 16.7917V20.5833C22.75 21.1792 22.5378 21.6892 22.1135 22.1135C21.6892 22.5378 21.1792 22.75 20.5833 22.75H16.7917Z" fill="#C9C9D4"/>
</svg>
