<svg width="24" height="24" viewBox="0 0 24 24" fill="none" xmlns="http://www.w3.org/2000/svg">
<path d="M13.025 0.600012L21.05 5.40001C21.35 5.58335 21.5833 5.83335 21.75 6.15001C21.9167 6.46668 22 6.80001 22 7.15001V18C22 18.55 21.8042 19.0208 21.4125 19.4125C21.0208 19.8042 20.55 20 20 20H4C3.45 20 2.97917 19.8042 2.5875 19.4125C2.19583 19.0208 2 18.55 2 18V7.15001C2 6.80001 2.08333 6.46668 2.25 6.15001C2.41667 5.83335 2.65 5.58335 2.95 5.40001L10.975 0.600012C11.2917 0.416679 11.6333 0.325012 12 0.325012C12.3667 0.325012 12.7083 0.416679 13.025 0.600012ZM12 11.65L19.8 7.00001L12 2.35001L4.2 7.00001L12 11.65ZM10.975 13.375L4 9.20001V18H20V9.20001L13.025 13.375C12.7083 13.5583 12.3667 13.65 12 13.65C11.6333 13.65 11.2917 13.5583 10.975 13.375ZM13.025 18H20H4H13.025Z" fill="#19191D"/>
</svg>
