<svg width="26" height="26" viewBox="0 0 26 26" fill="none" xmlns="http://www.w3.org/2000/svg">
<path d="M13 13C11.7625 13 10.7031 12.5594 9.82187 11.6781C8.94062 10.7969 8.5 9.7375 8.5 8.5C8.5 7.2625 8.94062 6.20312 9.82187 5.32187C10.7031 4.44062 11.7625 4 13 4C14.2375 4 15.2969 4.44062 16.1781 5.32187C17.0594 6.20312 17.5 7.2625 17.5 8.5C17.5 9.7375 17.0594 10.7969 16.1781 11.6781C15.2969 12.5594 14.2375 13 13 13ZM4 19.75V18.85C4 18.2125 4.16406 17.6266 4.49219 17.0922C4.82031 16.5578 5.25625 16.15 5.8 15.8687C6.9625 15.2875 8.14375 14.8516 9.34375 14.5609C10.5437 14.2703 11.7625 14.125 13 14.125C14.2375 14.125 15.4562 14.2703 16.6562 14.5609C17.8562 14.8516 19.0375 15.2875 20.2 15.8687C20.7437 16.15 21.1797 16.5578 21.5078 17.0922C21.8359 17.6266 22 18.2125 22 18.85V19.75C22 20.3687 21.7797 20.8984 21.3391 21.3391C20.8984 21.7797 20.3687 22 19.75 22H6.25C5.63125 22 5.10156 21.7797 4.66094 21.3391C4.22031 20.8984 4 20.3687 4 19.75Z" fill="#C9C9D4"/>
</svg>
