<svg width="26" height="26" viewBox="0 0 26 26" fill="none" xmlns="http://www.w3.org/2000/svg">
<path d="M5.41659 20.5833C5.10964 20.5833 4.85235 20.4795 4.64471 20.2719C4.43707 20.0642 4.33325 19.807 4.33325 19.5C4.33325 19.1931 4.43707 18.9358 4.64471 18.7281C4.85235 18.5205 5.10964 18.4167 5.41659 18.4167H6.49992V10.8333C6.49992 9.33473 6.95131 8.00313 7.85408 6.83855C8.75686 5.67396 9.93047 4.91112 11.3749 4.55001V3.79167C11.3749 3.34028 11.5329 2.9566 11.8489 2.64063C12.1648 2.32466 12.5485 2.16667 12.9999 2.16667C13.4513 2.16667 13.835 2.32466 14.151 2.64063C14.4669 2.9566 14.6249 3.34028 14.6249 3.79167V4.55001C16.0694 4.91112 17.243 5.67396 18.1458 6.83855C19.0485 8.00313 19.4999 9.33473 19.4999 10.8333V18.4167H20.5833C20.8902 18.4167 21.1475 18.5205 21.3551 18.7281C21.5628 18.9358 21.6666 19.1931 21.6666 19.5C21.6666 19.807 21.5628 20.0642 21.3551 20.2719C21.1475 20.4795 20.8902 20.5833 20.5833 20.5833H5.41659ZM12.9999 23.8333C12.4041 23.8333 11.894 23.6212 11.4697 23.1969C11.0454 22.7726 10.8333 22.2625 10.8333 21.6667H15.1666C15.1666 22.2625 14.9544 22.7726 14.5301 23.1969C14.1058 23.6212 13.5958 23.8333 12.9999 23.8333Z" fill="#7455FF"/>
</svg>
