<svg width="20" height="20" viewBox="0 0 20 20" fill="none" xmlns="http://www.w3.org/2000/svg">
<path d="M4.16667 15.8337C3.93056 15.8337 3.73264 15.7538 3.57292 15.5941C3.4132 15.4344 3.33333 15.2364 3.33333 15.0003C3.33333 14.7642 3.4132 14.5663 3.57292 14.4066C3.73264 14.2469 3.93056 14.167 4.16667 14.167H5V8.33366C5 7.18088 5.34722 6.15658 6.04167 5.26074C6.73611 4.36491 7.63889 3.7781 8.75 3.50033V2.91699C8.75 2.56977 8.87153 2.27463 9.11458 2.03158C9.35764 1.78852 9.65278 1.66699 10 1.66699C10.3472 1.66699 10.6424 1.78852 10.8854 2.03158C11.1285 2.27463 11.25 2.56977 11.25 2.91699V3.50033C12.3611 3.7781 13.2639 4.36491 13.9583 5.26074C14.6528 6.15658 15 7.18088 15 8.33366V14.167H15.8333C16.0694 14.167 16.2674 14.2469 16.4271 14.4066C16.5868 14.5663 16.6667 14.7642 16.6667 15.0003C16.6667 15.2364 16.5868 15.4344 16.4271 15.5941C16.2674 15.7538 16.0694 15.8337 15.8333 15.8337H4.16667ZM10 18.3337C9.54167 18.3337 9.14931 18.1705 8.82292 17.8441C8.49653 17.5177 8.33333 17.1253 8.33333 16.667H11.6667C11.6667 17.1253 11.5035 17.5177 11.1771 17.8441C10.8507 18.1705 10.4583 18.3337 10 18.3337ZM6.66667 14.167H13.3333V8.33366C13.3333 7.41699 13.0069 6.63227 12.3542 5.97949C11.7014 5.32671 10.9167 5.00033 10 5.00033C9.08333 5.00033 8.29861 5.32671 7.64583 5.97949C6.99306 6.63227 6.66667 7.41699 6.66667 8.33366V14.167Z" fill="#B4B4C2"/>
</svg>
