<svg width="86" height="16" viewBox="0 0 86 16" fill="none" xmlns="http://www.w3.org/2000/svg">
<path d="M0 7.97039C0 3.3139 3.24852 0 7.83743 0C12.4263 0 15.7648 3.3139 15.7648 7.97039C15.7648 12.6269 12.4571 16 7.83743 16C3.21774 16 0 12.6869 0 7.97039ZM12.6661 7.97039C12.6661 4.95584 10.6988 2.83608 7.83824 2.83608C4.97766 2.83608 3.06953 4.95503 3.06953 7.97039C3.06953 10.9858 5.06675 13.1647 7.83824 13.1647C10.6097 13.1647 12.6661 11.045 12.6661 7.97039Z" fill="#7455FF"/>
<path d="M25.9396 0.0300293C26.6847 0.0300293 27.3107 0.657114 27.3107 1.40345C27.3107 2.14979 26.6847 2.77687 25.9396 2.77687H24.9855C22.4821 2.77687 21.1708 4.47803 21.1708 6.92634V15.1052C21.1708 15.3437 20.9327 15.553 20.6938 15.553H18.4884C18.2503 15.553 18.0114 15.3437 18.0114 15.1052V6.86631C18.0122 2.77606 20.5756 0.0300293 24.9863 0.0300293H25.9404H25.9396Z" fill="#7455FF"/>
<path d="M39.1159 6.56695C39.1159 4.29793 37.8047 2.74603 35.9273 2.74603C34.0499 2.74603 32.6788 4.29793 32.6788 6.53694V15.1044C32.6788 15.3429 32.4407 15.5522 32.2017 15.5522H29.9964C29.7283 15.5522 29.5193 15.3429 29.5193 15.1044V1.58191C29.5193 0.746337 30.2345 0.0300157 31.0987 0.0300157C31.9628 0.0300157 32.6188 0.687117 32.6488 1.52269C33.662 0.537849 34.9732 0 36.5525 0C38.6389 0 40.3372 1.01486 41.3213 2.71683C42.3045 1.01567 44.0037 0 46.1491 0C49.5167 0 51.8411 2.62678 51.8411 6.47772V15.1044C51.8411 15.3429 51.603 15.5522 51.3641 15.5522H49.1587C48.9206 15.5522 48.6817 15.3429 48.6817 15.1044V6.56695C48.6817 4.29793 47.4004 2.74603 45.4931 2.74603C43.5857 2.74603 42.2445 4.29793 42.2445 6.53694V15.1044C42.2445 15.3429 42.0364 15.5522 41.7975 15.5522H39.5621C39.324 15.5522 39.1151 15.3429 39.1151 15.1044V6.56695H39.1159Z" fill="#7455FF"/>
<path d="M57.2286 9.1045C57.6756 11.5228 59.4931 13.1047 61.9074 13.1047C63.2186 13.1047 64.3509 12.8662 65.364 12.2691C65.7512 12.0306 66.1391 11.9406 66.4671 11.9406C67.2714 11.9406 67.8383 12.5677 67.8383 13.284C67.8383 13.7918 67.5403 14.3289 66.9142 14.7166C65.4539 15.6422 63.7556 15.9408 61.9074 15.9408C57.3177 15.9408 54.0699 12.6277 54.0699 7.97039C54.0699 3.31309 57.1986 0 61.6093 0C66.0201 0 68.9406 3.13462 68.9406 7.52259C68.9406 8.77595 68.0464 9.1045 67.4204 9.1045H57.2278H57.2286ZM57.2286 6.86549H65.8411C65.573 4.44719 63.9038 2.83608 61.6093 2.83608C59.3149 2.83608 57.6457 4.44801 57.2286 6.86549Z" fill="#7455FF"/>
<path d="M74.2309 9.1045C74.6779 11.5228 76.4953 13.1047 78.9097 13.1047C80.2209 13.1047 81.3531 12.8662 82.3663 12.2691C82.7535 12.0306 83.1414 11.9406 83.4686 11.9406C84.2737 11.9406 84.8398 12.5677 84.8398 13.284C84.8398 13.7918 84.5417 14.3289 83.9157 14.7166C82.4554 15.6422 80.7571 15.9408 78.9089 15.9408C74.3191 15.9408 71.0706 12.6277 71.0706 7.97039C71.0706 3.31309 74.2009 0 78.6116 0C83.0224 0 85.9429 3.13462 85.9429 7.52259C85.9429 8.77595 85.0487 9.1045 84.4227 9.1045H74.2309ZM74.2309 6.86549H82.8434C82.5753 4.44719 80.9061 2.83608 78.6116 2.83608C76.3172 2.83608 74.648 4.44801 74.2309 6.86549Z" fill="#7455FF"/>
</svg>
