<svg width="100" height="105" viewBox="0 0 100 105" fill="none" xmlns="http://www.w3.org/2000/svg">
<path d="M26.3322 91.4895C25.8742 92.3043 25.1401 93.4492 24.0087 94.6412C23.7663 94.8972 23.0996 95.5841 22.1028 96.3586C20.0084 97.9883 19.4359 97.7055 18.446 98.8706C18.1362 99.2342 17.0048 100.568 17.2337 102.245C17.2741 102.554 17.3617 103.154 17.7725 103.645C18.52 104.534 19.7323 104.379 23.3689 104.184C27.2279 103.982 27.9485 104.049 29.1944 103.423C30.0092 103.012 31.1407 102.433 31.6121 101.228C32.1845 99.7528 31.5717 97.8671 30.0833 96.3586C30.3797 95.9814 30.8107 95.3416 31.0666 94.4527C31.3831 93.3684 31.309 92.4458 31.2282 91.9407C29.5917 91.7925 27.9619 91.6444 26.3254 91.4962L26.3322 91.4895Z" fill="#DEDEE3"/>
<path d="M50.0245 95.1194C49.6945 96.1902 48.8527 96.298 48.718 97.0927C48.4756 98.5002 50.799 99.9818 51.2031 100.244C52.4759 101.059 53.5602 101.335 60.0456 101.928C63.1637 102.211 64.5578 102.299 66.0596 101.45C66.4973 101.201 67.9049 100.406 67.9655 99.1938C68.0328 97.9345 66.5983 96.9647 65.8037 96.4259C63.7294 95.0251 60.6517 94.419 59.3452 94.6413C59.197 94.6682 58.7323 94.7625 58.2609 94.547C57.9646 94.4123 57.7491 94.1901 57.4662 93.7523C57.1969 93.3348 56.8265 92.6613 56.5773 91.7185C51.4253 91.0113 50.0447 91.5838 49.7686 92.2572C49.4723 92.9778 50.4353 93.8062 50.0245 95.1194Z" fill="#DEDEE3"/>
<path d="M79.1853 58.9277C80.9094 59.3924 83.4483 60.2275 86.297 61.7428C89.927 63.6756 92.0282 64.8003 92.9777 67.09C94.2169 70.0802 92.7218 73.2185 91.119 76.5858C89.2872 80.4313 88.378 79.4345 84.4854 84.8896C84.0746 85.462 83.2665 86.6203 82.1014 86.654C81.0036 86.6877 80.1618 85.7044 79.953 85.462C77.5219 82.62 81.9869 74.5654 82.4381 73.7707C81.9398 73.6697 81.4145 73.5418 80.8622 73.3869C80.2696 73.2252 79.7106 73.0434 79.192 72.8616V58.9277H79.1853Z" fill="#E7E7EA"/>
<path d="M40.2257 15.4963C38.1986 15.7926 35.626 16.3112 32.7167 17.5302C30.5481 18.4393 25.2952 20.4395 21.9615 25.7396C20.2914 28.3931 20.0354 29.8343 17.5706 36.7507C15.4829 42.6165 14.3784 45.5259 13.0517 48.5834C9.2399 57.3855 7.48217 58.2879 6.49892 63.6621C6.0679 66.0192 5.47526 69.2653 6.43831 73.2724C8.15563 80.4313 13.8396 85.893 17.7659 87.5295C18.3383 87.7652 19.7863 88.304 21.7124 89.3748C24.0358 90.6678 24.4803 91.3076 25.9147 92.0484C27.2684 92.7488 29.1473 92.9509 32.8514 93.3213C35.6193 93.5974 38.0976 93.8398 41.5053 93.7658C43.0812 93.7321 44.4012 93.6378 47.6136 93.3213C54.1866 92.668 57.473 92.338 59.6416 91.9205C65.0966 90.8766 68.5784 90.2032 72.242 87.7181C73.6361 86.7753 76.8687 84.5596 78.8621 80.5929C81.1788 75.973 79.5962 73.3801 79.7511 62.7126C79.8521 55.7422 80.5323 56.3551 80.64 48.4554C80.7411 41.1012 80.7613 37.3299 79.2392 32.9254C78.6937 31.3428 76.9764 26.5411 72.7471 22.3589C62.524 12.2435 46.5091 14.5737 40.2325 15.4896L40.2257 15.4963Z" fill="#F2F2F4"/>
<path d="M16.3785 44.8928C17.9544 45.3844 18.6481 46.2195 18.8097 46.4216C20.3923 48.4083 19.5438 51.2839 19.2878 52.146C18.4932 54.8465 16.5671 56.3888 15.7589 56.9679C16.1967 58.7122 16.6277 61.5879 15.6646 64.7935C15.2067 66.3155 14.5332 68.5514 12.4186 69.8983C11.9202 70.2149 10.1961 71.3126 8.5529 70.7604C7.37435 70.363 7.0915 69.4 5.30683 66.8947C3.67706 64.6117 3.5491 64.8945 2.6332 63.5072C1.67688 62.0525 -0.491655 58.7526 0.100989 55.2506C0.511799 52.8598 2.03382 51.3917 3.82522 49.6676C4.4448 49.075 10.7551 43.1418 16.3785 44.8928Z" fill="#E7E7EA"/>
<path d="M63.1906 23.1401L38.8047 16.3179L40.2863 10.2635L63.9045 17.0318L63.1906 23.1401Z" fill="#DEDEE3"/>
<path d="M75.2119 15.0855L63.1907 23.1401L63.9045 17.0318L76.2019 10.4386L75.2119 15.0855Z" fill="#DEDEE3"/>
<path d="M69.5751 19.1061L30.5818 8.03438L30.7906 5.58299L69.9253 16.5604L69.5751 19.1061Z" fill="#E7E7EA"/>
<path d="M80.3908 12.5465L69.5751 19.106L69.9253 16.5604L80.8555 10.2635L80.3908 12.5465Z" fill="#E7E7EA"/>
<path d="M69.9185 53.4929C69.8916 53.3717 69.9589 53.2504 70.0734 53.1966C71.1307 52.7453 72.2352 52.2335 73.3801 51.6543C74.6529 51.0146 75.8315 50.3613 76.9225 49.7148C77.0909 49.6138 77.3064 49.7282 77.3198 49.9303L77.4141 51.4792C77.4141 51.5735 77.3804 51.6611 77.3064 51.7082C76.5184 52.2807 75.6092 52.8666 74.5923 53.439C73.1579 54.2404 71.8042 54.8263 70.5987 55.2641C70.4438 55.318 70.2822 55.2237 70.2485 55.062L69.9253 53.4861L69.9185 53.4929Z" fill="#DEDEE3"/>
<path d="M47.883 48.186C47.957 48.0513 48.1254 47.9975 48.2601 48.0648C49.708 48.7989 51.2098 49.5262 52.7655 50.2535C54.3145 50.9809 55.8432 51.6611 57.3383 52.3076C57.4865 52.3749 57.5538 52.55 57.4798 52.6982C57.1902 53.2908 56.9006 53.8768 56.611 54.4694C56.5436 54.6108 56.3753 54.6714 56.2339 54.6041C54.6512 53.8902 53.0417 53.1292 51.4052 52.3345C49.937 51.6207 48.516 50.9001 47.1287 50.1795C46.9873 50.1054 46.9334 49.9303 47.0075 49.7889C47.2971 49.2568 47.5866 48.7248 47.8762 48.1928L47.883 48.186Z" fill="#DEDEE3"/>
<path d="M63.6486 56.079C64.9012 56.1194 65.7296 56.1463 66.5377 56.7255C66.7667 56.8871 67.7365 57.5808 67.851 58.7795C67.9722 60.0389 67.0765 61.1568 66.1538 61.5946C65.8373 61.7427 65.1571 61.763 63.8169 61.7832C62.5845 61.8034 61.9582 61.8168 61.4059 61.6619C60.7729 61.4868 59.9984 61.2781 59.4731 60.5373C58.8064 59.6011 59.0488 58.5236 59.069 58.4361C59.3856 57.1093 60.7055 56.5504 61.1702 56.3618C61.9784 56.0183 62.6586 56.0453 63.6553 56.0722L63.6486 56.079Z" fill="#DEDEE3"/>
<path d="M55.1287 57.0211C55.4327 55.7936 53.5426 54.2693 50.907 53.6166C48.2715 52.9639 45.8885 53.4299 45.5845 54.6574C45.2805 55.8849 47.1706 57.4091 49.8061 58.0618C52.4417 58.7145 54.8247 58.2486 55.1287 57.0211Z" fill="#E7E7EA"/>
<path d="M74.3663 58.634C76.1991 57.5758 77.2507 55.966 76.7151 55.0383C76.1795 54.1106 74.2596 54.2164 72.4267 55.2746C70.5939 56.3328 69.5423 57.9426 70.0779 58.8703C70.6135 59.798 72.5335 59.6922 74.3663 58.634Z" fill="#E7E7EA"/>
<path d="M81.7439 74.807L80.3042 74.4863C79.7651 74.3662 79.2308 74.7058 79.1107 75.2449L75.2311 92.658C75.111 93.1971 75.4507 93.7315 75.9897 93.8516L77.4295 94.1723C77.9685 94.2924 78.5029 93.9528 78.623 93.4137L82.5026 76.0006C82.6227 75.4615 82.283 74.9271 81.7439 74.807Z" fill="#DEDEE3"/>
<path d="M69.9252 16.5604L30.7905 5.58299L43.7681 1.52588e-05L80.8555 10.2635L69.9252 16.5604Z" fill="#E7E7EA"/>
<path d="M84.4788 84.8963C84.068 85.4688 83.2598 86.6271 82.0947 86.6608C81.0307 86.6945 80.3101 85.8728 79.9464 85.4688C79.0103 84.4249 78.9362 83.1655 78.8554 81.96C78.8015 81.1249 78.7544 79.044 79.7241 76.532C80.4447 74.6597 81.4617 73.2522 82.3304 72.269" fill="#E7E7EA"/>
<path d="M92.7671 66.5337C96.7618 60.3778 96.8485 53.3424 92.9609 50.8196C89.0733 48.2969 82.6835 51.2422 78.6889 57.3981C74.6942 63.554 74.6075 70.5894 78.4951 73.1121C82.3827 75.6348 88.7725 72.6896 92.7671 66.5337Z" stroke="#DEDEE3" stroke-width="2.69384" stroke-miterlimit="10"/>
</svg>
