<svg width="24" height="24" viewBox="0 0 24 24" fill="none" xmlns="http://www.w3.org/2000/svg">
<rect width="24" height="24" rx="12" transform="matrix(-1 0 0 1 24 0)" fill="#F1EEFF"/>
<path d="M10.6698 5.62216L9.34011 10.5845L7.81206 11.4667C7.72218 11.5186 7.64764 11.5841 7.58845 11.6632C7.52926 11.7423 7.487 11.8291 7.46168 11.9237L7.35246 12.3313C7.29864 12.5321 7.32146 12.7187 7.42093 12.891C7.52039 13.0633 7.67055 13.1763 7.87141 13.2301L10.707 13.9899L9.59581 18.137C9.54199 18.3379 9.56481 18.5244 9.66428 18.6967C9.76375 18.869 9.91391 18.982 10.1148 19.0359C10.3156 19.0897 10.5022 19.0668 10.6745 18.9674C10.8467 18.8679 10.9598 18.7178 11.0136 18.5169L12.1248 14.3698L14.9604 15.1296C15.1613 15.1834 15.3478 15.1606 15.5201 15.0612C15.6924 14.9617 15.8055 14.8115 15.8593 14.6107L15.9685 14.2031C15.9938 14.1085 16.0006 14.0122 15.9889 13.9141C15.9772 13.816 15.9454 13.722 15.8935 13.6321L15.0113 12.1041L16.341 7.14176C16.5418 7.19557 16.7284 7.17275 16.9007 7.07329C17.073 6.97382 17.186 6.82366 17.2398 6.6228C17.2936 6.42195 17.2708 6.23538 17.1714 6.0631C17.0719 5.89082 16.9217 5.77777 16.7209 5.72395L11.0497 4.20436C10.8488 4.15054 10.6622 4.17336 10.49 4.27283C10.3177 4.37229 10.2046 4.52245 10.1508 4.72331C10.097 4.92416 10.1198 5.11073 10.2193 5.28301C10.3187 5.45529 10.4689 5.56834 10.6698 5.62216ZM14.0289 13.3604L9.56278 12.1637L10.5965 11.5669L12.0876 6.00206L14.9232 6.76186L13.4321 12.3267L14.0289 13.3604Z" fill="#7455FF"/>
</svg>
