<svg width="84" height="32" viewBox="0 0 84 32" fill="none" xmlns="http://www.w3.org/2000/svg">
<path d="M58.7567 0.825883C59.1539 0.384503 59.8461 0.384502 60.2433 0.825882L64 5H55L58.7567 0.825883Z" fill="#19191D" fill-opacity="0.7"/>
<rect y="5" width="84" height="27" rx="10" fill="#19191D" fill-opacity="0.7"/>
<path d="M13.9563 14.9258C13.9505 15.4648 14.4427 16.1445 15.3567 16.5137C16.2532 16.1504 16.7337 15.4883 16.7337 14.9258V14.8789H15.5618V13.8242H19.5227V14.8789H18.0579V14.9609C18.052 15.6875 18.6907 16.4902 19.968 16.7891L19.4055 17.7383C18.3684 17.4746 17.6887 16.8828 17.343 16.168C16.9915 16.8066 16.3411 17.3574 15.3509 17.5977C14.3606 17.3398 13.7102 16.7832 13.3528 16.1504C13.013 16.8594 12.3391 17.4688 11.3079 17.7383L10.7571 16.7891C11.9993 16.4727 12.6614 15.6348 12.6673 14.9609V14.8789H11.1673V13.8242H15.1399V14.8789H13.9563V14.9258ZM10.5345 19.625V18.582H14.7063V17.6445H15.9954V18.582H20.1907V19.625H10.5345ZM11.5774 21.6055V20.5625H19.0071V24.043H17.6946V21.6055H11.5774ZM24.6616 16.4609C24.6616 18.1953 25.6812 20.0234 27.3921 20.7383L26.6773 21.7695C25.4234 21.2246 24.5093 20.1172 24.023 18.7695C23.5366 20.2227 22.605 21.4414 21.3687 22.0273L20.6187 21.0078C22.2886 20.2344 23.3316 18.2598 23.3374 16.4609V15.5703H21.0054V14.4922H26.982V15.5703H24.6616V16.4609ZM28.1655 24.043V13.4492H29.478V24.043H28.1655ZM42.5215 13.4492V24.043H41.2793V13.4492H42.5215ZM33.2168 21.0312C34.7461 20.0996 35.4199 18.1895 35.4199 16.3438V15.6406H33.5801V14.5859H38.3848V15.6406H36.6738V16.3438C36.6738 18.1309 37.3125 19.9238 38.8301 20.7969L38.0566 21.7578C37.0781 21.1777 36.4277 20.1699 36.0586 18.9629C35.6836 20.2695 35.0098 21.3828 34.0137 22.0039L33.2168 21.0312ZM37.6113 18.1953V17.1406H39.1348V13.6484H40.3652V23.5273H39.1348V18.1953H37.6113ZM53.1682 18.0312V18.9922H48.9963V19.7656H51.9846V22.25H45.9612V22.9766H52.2776V23.9492H44.6838V21.3594H50.7073V20.7031H44.6721V19.7656H47.7073V18.9922H43.5588V18.0312H53.1682ZM43.9807 16.707C46.0725 16.6016 47.303 16.0391 47.5725 15.2891H44.4846V14.3164H47.7073V13.4258H48.9963V14.3164H52.2424V15.2891H49.1311C49.3889 16.0391 50.6194 16.6016 52.7346 16.707L52.3479 17.6797C50.4436 17.5625 49.0198 17.0469 48.3518 16.1914C47.6838 17.0469 46.2659 17.5625 44.344 17.6797L43.9807 16.707ZM61.9634 13.4492V17.668H63.5923V18.7461H61.9634V24.043H60.6743V13.4492H61.9634ZM53.6079 16.1211V15.0781H56.1157V13.6016H57.4165V15.0781H59.854V16.1211H53.6079ZM54.1001 19.3086C54.0884 17.8438 55.2251 16.8066 56.7719 16.8125C58.2954 16.8066 59.4262 17.8438 59.4321 19.3086C59.4262 20.7676 58.2954 21.793 56.7719 21.793C55.2251 21.793 54.0884 20.7676 54.1001 19.3086ZM55.3423 19.3086C55.3364 20.1699 55.9399 20.7207 56.7719 20.7148C57.5864 20.7207 58.1782 20.1699 58.1899 19.3086C58.1782 18.4473 57.5864 17.8789 56.7719 17.8789C55.9399 17.8789 55.3364 18.4473 55.3423 19.3086ZM72.6452 13.4492V24.043H71.3327V13.4492H72.6452ZM63.8679 21.125C66.6452 19.8066 67.9226 18.0137 68.157 15.6055H64.407V14.5742H69.4812C69.4812 17.7266 68.2566 20.4043 64.5476 22.168L63.8679 21.125Z" fill="white"/>
</svg>
