<svg width="20" height="20" viewBox="0 0 20 20" fill="none" xmlns="http://www.w3.org/2000/svg">
<path d="M9.125 10.5837L7.95833 9.41699C7.79167 9.25033 7.59722 9.16699 7.375 9.16699C7.15278 9.16699 6.95833 9.25033 6.79167 9.41699C6.625 9.58366 6.54167 9.78158 6.54167 10.0107C6.54167 10.2399 6.625 10.4378 6.79167 10.6045L8.54167 12.3753C8.70833 12.542 8.90278 12.6253 9.125 12.6253C9.34722 12.6253 9.54167 12.542 9.70833 12.3753L13.25 8.83366C13.4167 8.66699 13.5 8.46908 13.5 8.23991C13.5 8.01074 13.4167 7.81283 13.25 7.64616C13.0833 7.47949 12.8854 7.39616 12.6563 7.39616C12.4271 7.39616 12.2292 7.47949 12.0625 7.64616L9.125 10.5837ZM10 18.2503C9.90278 18.2503 9.8125 18.2434 9.72917 18.2295C9.64583 18.2156 9.5625 18.1948 9.47917 18.167C7.60417 17.542 6.11111 16.3857 5 14.6982C3.88889 13.0107 3.33333 11.1948 3.33333 9.25033V5.31283C3.33333 4.9656 3.43403 4.6531 3.63542 4.37533C3.83681 4.09755 4.09722 3.89616 4.41667 3.77116L9.41667 1.89616C9.61111 1.82671 9.80556 1.79199 10 1.79199C10.1944 1.79199 10.3889 1.82671 10.5833 1.89616L15.5833 3.77116C15.9028 3.89616 16.1632 4.09755 16.3646 4.37533C16.566 4.6531 16.6667 4.9656 16.6667 5.31283V9.25033C16.6667 11.1948 16.1111 13.0107 15 14.6982C13.8889 16.3857 12.3958 17.542 10.5208 18.167C10.4375 18.1948 10.3542 18.2156 10.2708 18.2295C10.1875 18.2434 10.0972 18.2503 10 18.2503ZM10 16.5837C11.4444 16.1253 12.6389 15.2087 13.5833 13.8337C14.5278 12.4587 15 10.9309 15 9.25033V5.31283L10 3.43783L5 5.31283V9.25033C5 10.9309 5.47222 12.4587 6.41667 13.8337C7.36111 15.2087 8.55556 16.1253 10 16.5837Z" fill="#B4B4C2"/>
</svg>
