<svg width="25" height="24" viewBox="0 0 25 24" fill="none" xmlns="http://www.w3.org/2000/svg">
<path d="M3.47503 21C3.2917 21 3.12503 20.9542 2.97503 20.8625C2.82503 20.7708 2.70837 20.65 2.62503 20.5C2.5417 20.35 2.49587 20.1875 2.48753 20.0125C2.4792 19.8375 2.52503 19.6667 2.62503 19.5L11.875 3.5C11.975 3.33333 12.1042 3.20833 12.2625 3.125C12.4209 3.04167 12.5834 3 12.75 3C12.9167 3 13.0792 3.04167 13.2375 3.125C13.3959 3.20833 13.525 3.33333 13.625 3.5L22.875 19.5C22.975 19.6667 23.0209 19.8375 23.0125 20.0125C23.0042 20.1875 22.9584 20.35 22.875 20.5C22.7917 20.65 22.675 20.7708 22.525 20.8625C22.375 20.9542 22.2084 21 22.025 21H3.47503ZM5.20003 19H20.3L12.75 6L5.20003 19ZM12.75 18C13.0334 18 13.2709 17.9042 13.4625 17.7125C13.6542 17.5208 13.75 17.2833 13.75 17C13.75 16.7167 13.6542 16.4792 13.4625 16.2875C13.2709 16.0958 13.0334 16 12.75 16C12.4667 16 12.2292 16.0958 12.0375 16.2875C11.8459 16.4792 11.75 16.7167 11.75 17C11.75 17.2833 11.8459 17.5208 12.0375 17.7125C12.2292 17.9042 12.4667 18 12.75 18ZM12.75 15C13.0334 15 13.2709 14.9042 13.4625 14.7125C13.6542 14.5208 13.75 14.2833 13.75 14V11C13.75 10.7167 13.6542 10.4792 13.4625 10.2875C13.2709 10.0958 13.0334 10 12.75 10C12.4667 10 12.2292 10.0958 12.0375 10.2875C11.8459 10.4792 11.75 10.7167 11.75 11V14C11.75 14.2833 11.8459 14.5208 12.0375 14.7125C12.2292 14.9042 12.4667 15 12.75 15Z" fill="#7455FF"/>
</svg>
